<mxfile host="Electron" agent="Mozilla/5.0 (Windows NT 10.0; Win64; x64) AppleWebKit/537.36 (KHTML, like Gecko) draw.io/24.7.8 Chrome/128.0.6613.36 Electron/32.0.1 Safari/537.36" version="24.7.8">
  <diagram id="prtHgNgQTEPvFCAcTncT" name="Page-1">
    <mxGraphModel dx="1029" dy="615" grid="1" gridSize="10" guides="1" tooltips="1" connect="1" arrows="1" fold="1" page="1" pageScale="1" pageWidth="827" pageHeight="1169" math="0" shadow="0">
      <root>
        <mxCell id="0" />
        <mxCell id="1" parent="0" />
        <mxCell id="dNxyNK7c78bLwvsdeMH5-11" value="" style="swimlane;html=1;startSize=860;horizontal=1;containerType=tree;glass=0;fillColor=#eeeeee;strokeColor=#36393d;swimlaneFillColor=none;strokeWidth=2;swimlaneLine=1;" parent="1" vertex="1">
          <mxGeometry x="40" y="10" width="721" height="860" as="geometry" />
        </mxCell>
        <mxCell id="uwBZGx5Mv4PH8Rtc_T75-2" value="&lt;b&gt;&lt;font style=&quot;font-size: 15px;&quot;&gt;用户层&lt;/font&gt;&lt;/b&gt;" style="shape=hexagon;perimeter=hexagonPerimeter2;whiteSpace=wrap;html=1;fixedSize=1;fillColor=#A3FFEA;strokeColor=#82b366;" parent="dNxyNK7c78bLwvsdeMH5-11" vertex="1">
          <mxGeometry x="18" y="40" width="90" height="90" as="geometry" />
        </mxCell>
        <mxCell id="uwBZGx5Mv4PH8Rtc_T75-4" value="" style="endArrow=none;dashed=1;html=1;rounded=0;strokeWidth=2;" parent="dNxyNK7c78bLwvsdeMH5-11" edge="1">
          <mxGeometry width="50" height="50" relative="1" as="geometry">
            <mxPoint y="150" as="sourcePoint" />
            <mxPoint x="721" y="150" as="targetPoint" />
          </mxGeometry>
        </mxCell>
        <mxCell id="uwBZGx5Mv4PH8Rtc_T75-6" value="" style="rounded=1;whiteSpace=wrap;html=1;fillColor=#A3FFEA;strokeColor=#0e8088;" parent="dNxyNK7c78bLwvsdeMH5-11" vertex="1">
          <mxGeometry x="120" y="40" width="350" height="90" as="geometry" />
        </mxCell>
        <mxCell id="uwBZGx5Mv4PH8Rtc_T75-7" value="&lt;b&gt;Ant Design Pro&lt;/b&gt;" style="rounded=0;whiteSpace=wrap;html=1;fillColor=#ffe6cc;strokeColor=#d79b00;" parent="dNxyNK7c78bLwvsdeMH5-11" vertex="1">
          <mxGeometry x="131" y="50" width="99" height="30" as="geometry" />
        </mxCell>
        <mxCell id="uwBZGx5Mv4PH8Rtc_T75-8" value="&lt;b&gt;JSON&lt;/b&gt;" style="rounded=0;whiteSpace=wrap;html=1;strokeColor=#d79b00;align=center;verticalAlign=middle;fontFamily=Helvetica;fontSize=12;fillColor=#ffe6cc;" parent="dNxyNK7c78bLwvsdeMH5-11" vertex="1">
          <mxGeometry x="241" y="50" width="99" height="30" as="geometry" />
        </mxCell>
        <mxCell id="uwBZGx5Mv4PH8Rtc_T75-9" value="&lt;b&gt;TypeScript&lt;/b&gt;" style="rounded=0;whiteSpace=wrap;html=1;fillColor=#ffe6cc;strokeColor=#d79b00;" parent="dNxyNK7c78bLwvsdeMH5-11" vertex="1">
          <mxGeometry x="131" y="87.5" width="99" height="32.5" as="geometry" />
        </mxCell>
        <mxCell id="uwBZGx5Mv4PH8Rtc_T75-10" value="&lt;b&gt;React&lt;/b&gt;" style="rounded=0;whiteSpace=wrap;html=1;strokeColor=#d79b00;align=center;verticalAlign=middle;fontFamily=Helvetica;fontSize=12;fillColor=#ffe6cc;" parent="dNxyNK7c78bLwvsdeMH5-11" vertex="1">
          <mxGeometry x="350" y="50" width="99" height="30" as="geometry" />
        </mxCell>
        <mxCell id="uwBZGx5Mv4PH8Rtc_T75-13" value="&lt;b&gt;UmiJS&lt;/b&gt;" style="rounded=0;whiteSpace=wrap;html=1;fillColor=#ffe6cc;strokeColor=#d79b00;" parent="dNxyNK7c78bLwvsdeMH5-11" vertex="1">
          <mxGeometry x="350" y="90" width="100" height="30" as="geometry" />
        </mxCell>
        <mxCell id="uwBZGx5Mv4PH8Rtc_T75-14" value="&lt;b&gt;ProLayout&lt;/b&gt;" style="rounded=0;whiteSpace=wrap;html=1;fillColor=#ffe6cc;strokeColor=#d79b00;" parent="dNxyNK7c78bLwvsdeMH5-11" vertex="1">
          <mxGeometry x="240" y="87.5" width="100" height="32.5" as="geometry" />
        </mxCell>
        <mxCell id="uwBZGx5Mv4PH8Rtc_T75-15" style="edgeStyle=orthogonalEdgeStyle;rounded=0;orthogonalLoop=1;jettySize=auto;html=1;exitX=0.5;exitY=1;exitDx=0;exitDy=0;" parent="dNxyNK7c78bLwvsdeMH5-11" source="uwBZGx5Mv4PH8Rtc_T75-6" target="uwBZGx5Mv4PH8Rtc_T75-6" edge="1">
          <mxGeometry relative="1" as="geometry" />
        </mxCell>
        <mxCell id="uwBZGx5Mv4PH8Rtc_T75-16" value="&lt;b&gt;Qi-API-Client-SDK-Starter&lt;/b&gt;" style="rounded=1;whiteSpace=wrap;html=1;fillColor=#A3FFEA;strokeColor=#0e8088;shadow=0;glass=0;" parent="dNxyNK7c78bLwvsdeMH5-11" vertex="1">
          <mxGeometry x="481" y="40" width="169" height="90" as="geometry" />
        </mxCell>
        <mxCell id="uwBZGx5Mv4PH8Rtc_T75-17" value="" style="endArrow=none;dashed=1;html=1;rounded=0;strokeWidth=2;" parent="dNxyNK7c78bLwvsdeMH5-11" edge="1">
          <mxGeometry width="50" height="50" relative="1" as="geometry">
            <mxPoint y="250" as="sourcePoint" />
            <mxPoint x="721" y="250" as="targetPoint" />
          </mxGeometry>
        </mxCell>
        <mxCell id="uwBZGx5Mv4PH8Rtc_T75-18" value="&lt;b&gt;通讯层&lt;/b&gt;" style="shape=hexagon;perimeter=hexagonPerimeter2;whiteSpace=wrap;html=1;fixedSize=1;fillColor=#d0cee2;strokeColor=#56517e;" parent="dNxyNK7c78bLwvsdeMH5-11" vertex="1">
          <mxGeometry x="15" y="160" width="96" height="80" as="geometry" />
        </mxCell>
        <mxCell id="pnSuQXYb4ILXROEF6l5I-152" style="edgeStyle=orthogonalEdgeStyle;rounded=0;orthogonalLoop=1;jettySize=auto;html=1;entryX=0.5;entryY=0;entryDx=0;entryDy=0;" parent="dNxyNK7c78bLwvsdeMH5-11" source="uwBZGx5Mv4PH8Rtc_T75-19" target="uwBZGx5Mv4PH8Rtc_T75-27" edge="1">
          <mxGeometry relative="1" as="geometry" />
        </mxCell>
        <mxCell id="uwBZGx5Mv4PH8Rtc_T75-19" value="" style="rounded=1;whiteSpace=wrap;html=1;fillColor=#d0cee2;strokeColor=#56517e;" parent="dNxyNK7c78bLwvsdeMH5-11" vertex="1">
          <mxGeometry x="125.5" y="170" width="530" height="60" as="geometry" />
        </mxCell>
        <mxCell id="uwBZGx5Mv4PH8Rtc_T75-21" value="&lt;b&gt;Https&lt;/b&gt;" style="rounded=0;whiteSpace=wrap;html=1;fillColor=#fff2cc;strokeColor=#d6b656;" parent="dNxyNK7c78bLwvsdeMH5-11" vertex="1">
          <mxGeometry x="145.5" y="183.75" width="100" height="32.5" as="geometry" />
        </mxCell>
        <mxCell id="uwBZGx5Mv4PH8Rtc_T75-24" value="&lt;b&gt;CDN&lt;/b&gt;" style="rounded=0;whiteSpace=wrap;html=1;fillColor=#fff2cc;strokeColor=#d6b656;" parent="dNxyNK7c78bLwvsdeMH5-11" vertex="1">
          <mxGeometry x="521" y="183.75" width="100" height="32.5" as="geometry" />
        </mxCell>
        <mxCell id="uwBZGx5Mv4PH8Rtc_T75-23" value="&lt;b&gt;DNS&lt;/b&gt;" style="rounded=0;whiteSpace=wrap;html=1;fillColor=#fff2cc;strokeColor=#d6b656;" parent="dNxyNK7c78bLwvsdeMH5-11" vertex="1">
          <mxGeometry x="395.5" y="183.75" width="100" height="32.5" as="geometry" />
        </mxCell>
        <mxCell id="uwBZGx5Mv4PH8Rtc_T75-22" value="&lt;b&gt;Nginx&lt;/b&gt;" style="rounded=0;whiteSpace=wrap;html=1;fillColor=#fff2cc;strokeColor=#d6b656;" parent="dNxyNK7c78bLwvsdeMH5-11" vertex="1">
          <mxGeometry x="271" y="183.75" width="100" height="32.5" as="geometry" />
        </mxCell>
        <mxCell id="uwBZGx5Mv4PH8Rtc_T75-26" value="&lt;b&gt;&lt;font color=&quot;#000005&quot;&gt;服务层&lt;/font&gt;&lt;/b&gt;" style="shape=hexagon;perimeter=hexagonPerimeter2;whiteSpace=wrap;html=1;fixedSize=1;fillColor=#E5CCFF;strokeColor=#001DBC;fontColor=#ffffff;" parent="dNxyNK7c78bLwvsdeMH5-11" vertex="1">
          <mxGeometry x="30" y="275" width="70" height="295" as="geometry" />
        </mxCell>
        <mxCell id="uwBZGx5Mv4PH8Rtc_T75-27" value="" style="rounded=1;arcSize=5;whiteSpace=wrap;html=1;shadow=0;glass=0;fillColor=#E5CCFF;strokeColor=#6c8ebf;" parent="dNxyNK7c78bLwvsdeMH5-11" vertex="1">
          <mxGeometry x="125.5" y="275" width="530" height="300" as="geometry" />
        </mxCell>
        <mxCell id="uwBZGx5Mv4PH8Rtc_T75-28" value="&lt;b&gt;Spring Cloud Gateway&lt;/b&gt;&lt;div&gt;&lt;b&gt;服务层网关&lt;/b&gt;&lt;/div&gt;" style="rounded=0;whiteSpace=wrap;html=1;fillColor=#8EE6F0;strokeColor=#10739e;" parent="dNxyNK7c78bLwvsdeMH5-11" vertex="1">
          <mxGeometry x="140" y="285" width="384.5" height="40" as="geometry" />
        </mxCell>
        <mxCell id="uwBZGx5Mv4PH8Rtc_T75-32" value="&lt;b&gt;业务服务&lt;/b&gt;&lt;div&gt;&lt;b&gt;&lt;br&gt;&lt;/b&gt;&lt;/div&gt;&lt;div&gt;&lt;b&gt;&lt;br&gt;&lt;/b&gt;&lt;/div&gt;&lt;div&gt;&lt;b&gt;&lt;br&gt;&lt;/b&gt;&lt;/div&gt;&lt;div&gt;&lt;div&gt;&lt;b&gt;&lt;br&gt;&lt;/b&gt;&lt;/div&gt;&lt;div&gt;&lt;b&gt;&lt;br&gt;&lt;/b&gt;&lt;/div&gt;&lt;div&gt;&lt;b&gt;&lt;br&gt;&lt;/b&gt;&lt;/div&gt;&lt;div&gt;&lt;b&gt;&lt;br&gt;&lt;/b&gt;&lt;/div&gt;&lt;div&gt;&lt;b&gt;&lt;br&gt;&lt;/b&gt;&lt;/div&gt;&lt;div&gt;&lt;br&gt;&lt;/div&gt;&lt;/div&gt;" style="rounded=1;arcSize=5;whiteSpace=wrap;html=1;shadow=0;glass=0;fillColor=#fff2cc;strokeColor=#d6b656;" parent="dNxyNK7c78bLwvsdeMH5-11" vertex="1">
          <mxGeometry x="134.5" y="345" width="240" height="160" as="geometry" />
        </mxCell>
        <mxCell id="uwBZGx5Mv4PH8Rtc_T75-33" value="&lt;b&gt;core&lt;/b&gt;&lt;div&gt;&lt;b&gt;核心业务&lt;/b&gt;&lt;/div&gt;" style="rounded=0;whiteSpace=wrap;html=1;fillColor=#f8cecc;strokeColor=#b85450;" parent="dNxyNK7c78bLwvsdeMH5-11" vertex="1">
          <mxGeometry x="271.5" y="375" width="94" height="40" as="geometry" />
        </mxCell>
        <mxCell id="uwBZGx5Mv4PH8Rtc_T75-34" value="&lt;b&gt;interfaceInvoke&lt;/b&gt;&lt;div&gt;&lt;b&gt;接口服务&lt;/b&gt;&lt;/div&gt;" style="rounded=0;whiteSpace=wrap;html=1;fillColor=#f8cecc;strokeColor=#b85450;" parent="dNxyNK7c78bLwvsdeMH5-11" vertex="1">
          <mxGeometry x="160.5" y="375" width="99" height="40" as="geometry" />
        </mxCell>
        <mxCell id="uwBZGx5Mv4PH8Rtc_T75-35" value="&lt;b&gt;order&lt;/b&gt;&lt;div&gt;&lt;b&gt;订单服务&lt;/b&gt;&lt;/div&gt;" style="rounded=0;whiteSpace=wrap;html=1;fillColor=#f8cecc;strokeColor=#b85450;" parent="dNxyNK7c78bLwvsdeMH5-11" vertex="1">
          <mxGeometry x="160.5" y="435" width="99" height="40" as="geometry" />
        </mxCell>
        <mxCell id="pnSuQXYb4ILXROEF6l5I-29" style="edgeStyle=orthogonalEdgeStyle;rounded=0;orthogonalLoop=1;jettySize=auto;html=1;" parent="dNxyNK7c78bLwvsdeMH5-11" source="uwBZGx5Mv4PH8Rtc_T75-36" target="pnSuQXYb4ILXROEF6l5I-28" edge="1">
          <mxGeometry relative="1" as="geometry">
            <Array as="points">
              <mxPoint x="384.5" y="470" />
              <mxPoint x="384.5" y="470" />
            </Array>
          </mxGeometry>
        </mxCell>
        <mxCell id="uwBZGx5Mv4PH8Rtc_T75-36" value="&lt;b&gt;thirdPerty&lt;/b&gt;&lt;div&gt;&lt;b&gt;第三方服务&lt;/b&gt;&lt;/div&gt;" style="rounded=0;whiteSpace=wrap;html=1;fillColor=#f8cecc;strokeColor=#b85450;" parent="dNxyNK7c78bLwvsdeMH5-11" vertex="1">
          <mxGeometry x="268.5" y="435" width="99" height="40" as="geometry" />
        </mxCell>
        <mxCell id="uwBZGx5Mv4PH8Rtc_T75-39" value="&lt;div&gt;&lt;b&gt;治理&amp;amp;配置&lt;/b&gt;&lt;/div&gt;&lt;div&gt;&lt;b&gt;&lt;br&gt;&lt;/b&gt;&lt;/div&gt;&lt;div&gt;&lt;b&gt;&lt;br&gt;&lt;/b&gt;&lt;/div&gt;&lt;div&gt;&lt;b&gt;&lt;br&gt;&lt;/b&gt;&lt;/div&gt;&lt;div&gt;&lt;b&gt;&lt;br&gt;&lt;/b&gt;&lt;/div&gt;&lt;div&gt;&lt;b&gt;&lt;br&gt;&lt;/b&gt;&lt;/div&gt;&lt;div&gt;&lt;b&gt;&lt;br&gt;&lt;/b&gt;&lt;/div&gt;&lt;div&gt;&lt;b&gt;&lt;br&gt;&lt;/b&gt;&lt;/div&gt;&lt;div&gt;&lt;b&gt;&lt;br&gt;&lt;/b&gt;&lt;/div&gt;&lt;div&gt;&lt;b&gt;&lt;br&gt;&lt;/b&gt;&lt;/div&gt;&lt;div&gt;&lt;b&gt;&lt;br&gt;&lt;/b&gt;&lt;/div&gt;&lt;div&gt;&lt;b&gt;&lt;br&gt;&lt;/b&gt;&lt;/div&gt;&lt;div&gt;&lt;br&gt;&lt;/div&gt;" style="rounded=1;arcSize=5;whiteSpace=wrap;html=1;shadow=0;glass=0;fillColor=#ACE4CE;strokeColor=#82b366;" parent="dNxyNK7c78bLwvsdeMH5-11" vertex="1">
          <mxGeometry x="540.01" y="285" width="104.5" height="205" as="geometry" />
        </mxCell>
        <mxCell id="uwBZGx5Mv4PH8Rtc_T75-62" value="&lt;b&gt;Dubbo RPC&lt;/b&gt;&lt;div&gt;&lt;b&gt;远程调用&lt;/b&gt;&lt;/div&gt;" style="rounded=0;whiteSpace=wrap;html=1;fillColor=#8EE6F0;" parent="dNxyNK7c78bLwvsdeMH5-11" vertex="1">
          <mxGeometry x="404.5" y="355" width="80" height="40" as="geometry" />
        </mxCell>
        <mxCell id="pnSuQXYb4ILXROEF6l5I-12" style="edgeStyle=orthogonalEdgeStyle;rounded=0;orthogonalLoop=1;jettySize=auto;html=1;" parent="dNxyNK7c78bLwvsdeMH5-11" source="uwBZGx5Mv4PH8Rtc_T75-62" edge="1">
          <mxGeometry relative="1" as="geometry">
            <mxPoint x="444.5" y="325" as="targetPoint" />
            <Array as="points" />
          </mxGeometry>
        </mxCell>
        <mxCell id="pnSuQXYb4ILXROEF6l5I-13" style="edgeStyle=orthogonalEdgeStyle;rounded=0;orthogonalLoop=1;jettySize=auto;html=1;exitX=0.48;exitY=0.999;exitDx=0;exitDy=0;exitPerimeter=0;" parent="dNxyNK7c78bLwvsdeMH5-11" source="uwBZGx5Mv4PH8Rtc_T75-28" target="uwBZGx5Mv4PH8Rtc_T75-32" edge="1">
          <mxGeometry relative="1" as="geometry">
            <mxPoint x="339.16650000000004" y="314.99999999999994" as="sourcePoint" />
            <mxPoint x="299.5" y="324.96" as="targetPoint" />
            <Array as="points">
              <mxPoint x="334.5" y="325" />
            </Array>
          </mxGeometry>
        </mxCell>
        <mxCell id="pnSuQXYb4ILXROEF6l5I-16" value="&lt;b&gt;Nacos服务注册&lt;/b&gt;" style="rounded=0;whiteSpace=wrap;html=1;fillColor=#fad7ac;strokeColor=#b46504;" parent="dNxyNK7c78bLwvsdeMH5-11" vertex="1">
          <mxGeometry x="548.08" y="325" width="88.37" height="60" as="geometry" />
        </mxCell>
        <mxCell id="pnSuQXYb4ILXROEF6l5I-20" value="" style="endArrow=classic;html=1;rounded=0;exitX=0.997;exitY=0.177;exitDx=0;exitDy=0;exitPerimeter=0;" parent="dNxyNK7c78bLwvsdeMH5-11" source="uwBZGx5Mv4PH8Rtc_T75-32" target="uwBZGx5Mv4PH8Rtc_T75-62" edge="1">
          <mxGeometry width="50" height="50" relative="1" as="geometry">
            <mxPoint x="374.5" y="385" as="sourcePoint" />
            <mxPoint x="414.5" y="335" as="targetPoint" />
          </mxGeometry>
        </mxCell>
        <mxCell id="pnSuQXYb4ILXROEF6l5I-28" value="&lt;b&gt;RocketMQ&lt;/b&gt;&lt;div&gt;&lt;b&gt;异步化&lt;/b&gt;&lt;/div&gt;" style="rounded=0;whiteSpace=wrap;html=1;fillColor=#8EE6F0;" parent="dNxyNK7c78bLwvsdeMH5-11" vertex="1">
          <mxGeometry x="404.5" y="450" width="80" height="40" as="geometry" />
        </mxCell>
        <mxCell id="pnSuQXYb4ILXROEF6l5I-31" style="edgeStyle=orthogonalEdgeStyle;rounded=0;orthogonalLoop=1;jettySize=auto;html=1;entryX=0.444;entryY=1;entryDx=0;entryDy=0;entryPerimeter=0;" parent="dNxyNK7c78bLwvsdeMH5-11" source="pnSuQXYb4ILXROEF6l5I-28" target="uwBZGx5Mv4PH8Rtc_T75-35" edge="1">
          <mxGeometry relative="1" as="geometry">
            <Array as="points">
              <mxPoint x="444.5" y="495" />
              <mxPoint x="204.5" y="495" />
            </Array>
          </mxGeometry>
        </mxCell>
        <mxCell id="pnSuQXYb4ILXROEF6l5I-39" style="edgeStyle=orthogonalEdgeStyle;rounded=0;orthogonalLoop=1;jettySize=auto;html=1;entryX=0.5;entryY=1;entryDx=0;entryDy=0;" parent="dNxyNK7c78bLwvsdeMH5-11" source="pnSuQXYb4ILXROEF6l5I-38" target="uwBZGx5Mv4PH8Rtc_T75-34" edge="1">
          <mxGeometry relative="1" as="geometry">
            <Array as="points">
              <mxPoint x="210.5" y="425" />
            </Array>
          </mxGeometry>
        </mxCell>
        <mxCell id="pnSuQXYb4ILXROEF6l5I-38" value="&lt;b&gt;Sentinel&lt;/b&gt;&lt;div&gt;&lt;b&gt;流量控制&lt;/b&gt;&lt;/div&gt;" style="rounded=0;whiteSpace=wrap;html=1;fillColor=#8EE6F0;" parent="dNxyNK7c78bLwvsdeMH5-11" vertex="1">
          <mxGeometry x="404.5" y="400" width="80" height="40" as="geometry" />
        </mxCell>
        <mxCell id="pnSuQXYb4ILXROEF6l5I-40" style="edgeStyle=orthogonalEdgeStyle;rounded=0;orthogonalLoop=1;jettySize=auto;html=1;entryX=0.944;entryY=1.035;entryDx=0;entryDy=0;entryPerimeter=0;" parent="dNxyNK7c78bLwvsdeMH5-11" source="pnSuQXYb4ILXROEF6l5I-38" target="uwBZGx5Mv4PH8Rtc_T75-28" edge="1">
          <mxGeometry relative="1" as="geometry">
            <Array as="points">
              <mxPoint x="502.5" y="420" />
              <mxPoint x="502.5" y="363" />
              <mxPoint x="503.5" y="363" />
            </Array>
          </mxGeometry>
        </mxCell>
        <mxCell id="pnSuQXYb4ILXROEF6l5I-43" value="&lt;b&gt;Nacos配置管理&lt;/b&gt;" style="rounded=0;whiteSpace=wrap;html=1;fillColor=#fad7ac;strokeColor=#b46504;" parent="dNxyNK7c78bLwvsdeMH5-11" vertex="1">
          <mxGeometry x="548.08" y="400" width="88.37" height="60" as="geometry" />
        </mxCell>
        <mxCell id="pnSuQXYb4ILXROEF6l5I-44" value="&lt;b&gt;Redis分布式锁&lt;/b&gt;" style="rounded=0;whiteSpace=wrap;html=1;fillColor=#99FF99;" parent="dNxyNK7c78bLwvsdeMH5-11" vertex="1">
          <mxGeometry x="141" y="515" width="115" height="50" as="geometry" />
        </mxCell>
        <mxCell id="pnSuQXYb4ILXROEF6l5I-45" value="&lt;b&gt;Redis&lt;/b&gt;&lt;div&gt;&lt;b&gt;分布式Session管理&lt;/b&gt;&lt;/div&gt;" style="rounded=0;whiteSpace=wrap;html=1;fillColor=#99FF99;" parent="dNxyNK7c78bLwvsdeMH5-11" vertex="1">
          <mxGeometry x="395.5" y="515" width="115" height="50" as="geometry" />
        </mxCell>
        <mxCell id="pnSuQXYb4ILXROEF6l5I-46" value="&lt;b&gt;Mybatis-plus&lt;/b&gt;&lt;div&gt;&lt;b&gt;ORM框架&lt;/b&gt;&lt;/div&gt;" style="rounded=0;whiteSpace=wrap;html=1;fillColor=#99FF99;" parent="dNxyNK7c78bLwvsdeMH5-11" vertex="1">
          <mxGeometry x="269" y="515" width="115" height="50" as="geometry" />
        </mxCell>
        <mxCell id="pnSuQXYb4ILXROEF6l5I-48" value="&lt;b&gt;日&lt;/b&gt;&lt;div&gt;&lt;b&gt;志&lt;/b&gt;&lt;/div&gt;&lt;div&gt;&lt;b&gt;处&lt;/b&gt;&lt;/div&gt;&lt;div&gt;&lt;b&gt;理&lt;/b&gt;&lt;/div&gt;" style="rounded=0;whiteSpace=wrap;html=1;fillColor=#DCF578;" parent="dNxyNK7c78bLwvsdeMH5-11" vertex="1">
          <mxGeometry x="663" y="275" width="30" height="300" as="geometry" />
        </mxCell>
        <mxCell id="pnSuQXYb4ILXROEF6l5I-50" style="edgeStyle=orthogonalEdgeStyle;rounded=0;orthogonalLoop=1;jettySize=auto;html=1;exitX=0.5;exitY=1;exitDx=0;exitDy=0;" parent="dNxyNK7c78bLwvsdeMH5-11" source="uwBZGx5Mv4PH8Rtc_T75-27" target="uwBZGx5Mv4PH8Rtc_T75-27" edge="1">
          <mxGeometry relative="1" as="geometry" />
        </mxCell>
        <mxCell id="pnSuQXYb4ILXROEF6l5I-51" value="" style="endArrow=none;dashed=1;html=1;rounded=0;strokeWidth=2;" parent="dNxyNK7c78bLwvsdeMH5-11" edge="1">
          <mxGeometry width="50" height="50" relative="1" as="geometry">
            <mxPoint y="600" as="sourcePoint" />
            <mxPoint x="721" y="600" as="targetPoint" />
          </mxGeometry>
        </mxCell>
        <mxCell id="pnSuQXYb4ILXROEF6l5I-54" value="&lt;b&gt;数据层&lt;/b&gt;" style="shape=hexagon;perimeter=hexagonPerimeter2;whiteSpace=wrap;html=1;fixedSize=1;fillColor=#87BE2D;strokeColor=#0e8088;" parent="dNxyNK7c78bLwvsdeMH5-11" vertex="1">
          <mxGeometry x="18" y="620" width="96" height="80" as="geometry" />
        </mxCell>
        <mxCell id="pnSuQXYb4ILXROEF6l5I-154" style="edgeStyle=orthogonalEdgeStyle;rounded=0;orthogonalLoop=1;jettySize=auto;html=1;entryX=0.5;entryY=0;entryDx=0;entryDy=0;" parent="dNxyNK7c78bLwvsdeMH5-11" source="pnSuQXYb4ILXROEF6l5I-55" target="pnSuQXYb4ILXROEF6l5I-66" edge="1">
          <mxGeometry relative="1" as="geometry" />
        </mxCell>
        <mxCell id="pnSuQXYb4ILXROEF6l5I-55" value="" style="rounded=1;whiteSpace=wrap;html=1;fillColor=#dae8fc;strokeColor=#6c8ebf;" parent="dNxyNK7c78bLwvsdeMH5-11" vertex="1">
          <mxGeometry x="128.5" y="620" width="534.5" height="80" as="geometry" />
        </mxCell>
        <mxCell id="pnSuQXYb4ILXROEF6l5I-58" value="&lt;b&gt;关系型数据库&lt;/b&gt;&lt;div&gt;&lt;b&gt;MySQL&lt;/b&gt;&lt;/div&gt;&lt;div&gt;&lt;b&gt;数据持久化存储&lt;/b&gt;&lt;/div&gt;" style="rounded=1;whiteSpace=wrap;html=1;arcSize=40;fillColor=#f8cecc;strokeColor=#b85450;" parent="dNxyNK7c78bLwvsdeMH5-11" vertex="1">
          <mxGeometry x="245.31" y="620" width="141.38" height="80" as="geometry" />
        </mxCell>
        <mxCell id="pnSuQXYb4ILXROEF6l5I-59" value="&lt;b&gt;No-SQL数据库&lt;/b&gt;&lt;div&gt;&lt;b&gt;Redis&lt;/b&gt;&lt;/div&gt;&lt;div&gt;&lt;b&gt;热点缓存、分布式Session等&lt;/b&gt;&lt;/div&gt;" style="rounded=1;whiteSpace=wrap;html=1;arcSize=40;fillColor=#f8cecc;strokeColor=#b85450;" parent="dNxyNK7c78bLwvsdeMH5-11" vertex="1">
          <mxGeometry x="482.19" y="620" width="172.62" height="80" as="geometry" />
        </mxCell>
        <mxCell id="pnSuQXYb4ILXROEF6l5I-60" value="" style="shape=image;verticalLabelPosition=bottom;labelBackgroundColor=default;verticalAlign=top;aspect=fixed;imageAspect=0;image=https://www.mysql.com/common/logos/logo-mysql-170x115.png;" parent="dNxyNK7c78bLwvsdeMH5-11" vertex="1">
          <mxGeometry x="134" y="624.3399999999999" width="105.5" height="71.32" as="geometry" />
        </mxCell>
        <mxCell id="pnSuQXYb4ILXROEF6l5I-63" value="" style="shape=image;verticalLabelPosition=bottom;labelBackgroundColor=default;verticalAlign=top;aspect=fixed;imageAspect=0;image=data:image/png,iVBORw0KGgoAAAANSUhEUgAAAgAAAAIACAYAAAD0eNT6AACAAElEQVR42uzdeXxcddU/8M+5d+6d7G3aNOm+UdYKqKC4o2yiAoJYZGttM5NpQVHxUX+Py6NxeXB5HkVcSjuZpJWySV3ABVxAfVQUFBCBskP3JUubJk2TzF2+5/fHJCVA0maZme+dO+f9evWFNpO5597O3Hvu957v+QJCCCGEEEIIIYQQQgghhBBCCCGEEEIIIYQoSKQ7ACFE/m1avNg2jL5jDaUWK+KFBJrDoDkENYmJyokxCQCI0KeAHjB1GMQdYGxWxM8Rm8/6XPrY4k2bHN37IoQYH0kAhCgCT712/nzDo7cz+M0A3gLgBADWBN/WAfgxAv5OwG/7jP4/nfxY60Hd+yqEGB1JAIQIoT++E5GZ7QvfxFDngegsgE/J/VbZA4wHQfxLhrr3uMe3PUIA6z4WQojhSQIgREhsWrxwrknqfQDeA+AMAOWaQ9oKxu0guvW4JzY/pvv4CCFeThIAIQrYU8fNmgrLvpgYywB+CwL6nWbgSQAb2TduOeGpF5/THY8QIqAnCyHEyDYtnj0lAutiNvhSME4HYOqOaQwYwAMAbrKixm1HPfxil+6AhChWkgAIUQD+fVJdeVSVXcTApQQ+BxMv4AuCPoB/CkbLsZu2/knqBYTIL0kAhAgoBoxnFy98C6CWMuEyAJW6Y8qh7WDcyhbWHP/oli26gxGiGEgCIETAPHPi/OMU41IClgFYoDuePFMM/oPBxoayKnfjnL/v6NMdkBBhJQmAEAHw2Ilzqy2YSwaK+d6qO56A6CTGRgJuPGbTlkd1ByNE2EgCIIQmzy1aFPWi/jlEvBTA+wHYumMKLnoY4A0+exsWb9qxT3c0QoSBJABC5Nkzixe+gUmtAHApgGrd8RSYXgZ+AkLLcY9v+bMUDgoxfpIACJEHmxbPnmIY1geJ+SoAr9UdT0hsB+NWpejGE57avFV3MEIUGkkAhMgRXgLzuacXvkuxSgC4EOGYuhdEisF/IDKSviq7SxYoEmJ0JAEQIsuefc284xXTh4mwnIE63fEUmU5ibARo9bGbNv9bdzBCBJkkAEJkwQunLJzkOPwhqeIPEikcFOJwJAEQYpx4Ccxnnpx/NgjLkaniL9EdkxjWQQB3MDh1/BNb/6Y7GCGCQhIAIcZo0+KFc01DXQaFVSDM1x2PGJNnQFhnRiItR//r+XbdwQihkyQAQozC5vnzS9KVdD6zShDoTMh3p9A5AO5ipg3HnbD5btoIX3dAQuSbnMSEOIynTpx7CrGxDMCVAKbojscoLYPq69UdRsjwDjDdItMJRbGRBECIV3ipLW/w5uxP/9LXYVRVYf/GW9H74N8Alj44WXRoOmGPPeXOUx9+2NUdkBC5JAmAEMisvPfciQvPUOwvA+iDAEp1xzQca9YcLPjlfSDLgrN1M7p+dge6f/kzeO1tukMbPcOAES0J+kjGHjB+ZJLfdPQT21/QHYwQuSAJgChqz520aLbP3hWFVNBX97kvY/Jly176C6XQ+4+/Y//GW9Hzh9+BPU93iK9mGCh97etRec77UHHGOdi+/BK4u3bqjmqU6GEmJA/a6ZtPfXhXoLMWIcZCEgBRdJ5btCjql/oXEKtlDHoPAFN3TGMRqZmGBXf/CUZp2at+5nd34cDv7sb+2zcg/cxTegM1TJS+9nWoPOd9qDznvYhMqwUAHPj9Pdj1yav1xjY++4lxhzQZEmEhCYAoGptOmLvYJGMpiGMA1eiOZyKmfeIzmBK76rCv6X/ycXRtvA3d9/wC6uDB/AQ29KJ/7nmITH31Yd6+4lL0PvSgjsOWRZlRAaXKbl28aVOP7miEGA9JAESoDenQlwD4FN3xZItRWYWF9/wfzEmTj/haTqfR83/35axwkGwbpa9/AyreeRaq3nM+zClTR3xt+vlnseUD54apePEAwHcaZN50zOMv3qs7GCHGQhIAEToMGM8uXvgWQC1lwpUAyib8pgE0NX41aj7+6TH9jrN1Mw7c/Qt0/fwOuLt3jXvbFI2i/M1vyzzTf9dZMCoqR/V7rV/+HPb/5Datxy2HngLhR5S2m4999tkO3cEIcSSSAIjQePrYOTNhm0vBaABwlO54cs0oLcOCu/+ESM20sf/yOAoHKVqC8je/deCifzaMioqxbfJAN144881Br/7PhjSAXxhkJI9+/MX7CAjNcIcIF0kAREHbtHixbaD33US8FOCLAIrojimfqi9bhtrPfXlC73G4wsGXXfTPfDeMsvEPpuz7URPa//c63Ycs355j4FYLZvOiJ17YrjsYIYaSBEAUpGdOnH8cKywHYQWAWt3x6EKWhQW/vA/WrDlZeb++fz+Crp/fAXYcVJ79HpS/5R2gaHTib6wUXjzvDLjbi7bRns/gPxIZyd1TN//8XX9CAOdqimIjCYAoGM8tWlSlov6FitRSAp2lO56gqLrgA5jx39/WHcZh9fzpPuy8Jq47jGAg7ILCBpi89rjHtm7WHY4oXpIAiMB76sS5pxjKSDDx5QCN7cFzMTBMzP/p3YguOkZ3JCPasXIZDv7tL7rDCJpDrYd9VXbX4k2bHN0BieIiCYAIpCePnzfDjNCHWWEFCMG9sgVExZnvxqzvrtEdxrCcrVuw+YIzAaV0hxJkbQD/CIbRfNxjm5/RHYwoDpIAiMDgJTCfe3rhuxSrBIALAVi6Yyokc2/5GUpPep3uMF6l7bovofO2m3SHUUAyTYYc6r3l5Mda89TBSRQjSQCEdk+dvPAY+OpyAuoBZKearQiVnfZWzEndrDuMl1EHD+KFs94E1SPN8sahmxi3K0Mlj39828O6gxHhU1RTpkRw/PukuvIol14C5nr46m264ylkkdo6VJ7zXlSdf5HuUF6l6xc/lYv/+FUxIUFsJJ5+zfxHAKSsqHHrUQ+/2KU7MBEOMgIg8uqpE+eeQmwsA3AlgCm64ylUFC1BxelnoOqCi1H+tneAzADm8szY/P6z4WyW1XSzqB/AL6XJkMgGSQBEzg324wd4FTGC95C6UBgmyt/ydlSd9/5MU56SUt0RHVb/4//G1isuClPf/2BhPAsDLS7T+hOf2NyqOxxReCQBEDnz0vS98Pbjz4foomNQdf5FqLrg4vG1/dXI27Mb3Xffha6f3QFHprznijQZEuMiCYDIqk2L5083DXyYmOMMWqQ7nkIVqZ2OynPeg0kXXIzo8Yt1h5MV/U8+ju5f/hzdv74Lfuc+3eGEkzQZEmMgCYCYMAaM505ceIZM35sYo6ICFWeck+m7//bTAcPUHVJOsOvi4N/+gu5f/BQ9f/w92HV1hxRGisF/MNjYUFblbpzz9x19ugMSwSMJgBi3505aNNtn7wowrgIwT3c8BckwUfbGN2HSBRej4qx3wygtricl6kA3ev50H7p+8VP0Pvg3qRfIjU5ibGSiHx73xObHdAcjgkMSADEmmxYvtk2j9/3EahmD3gMgnLepOXbouf77P4jI1Brd4QSCu2snDvzml+j66e1wthXtokE5lmkypFTZrYs3bZL5mUVOEgAxKkNW36sHUFiVaAERmT4DVe99PyZdtAT2/IW6wwm0l+oF7oTf2ak7nDDqJsbtgLHh2E0v/lV3MEIPSQDEiDbPn1+SrqTzmVWCQGdCPi9jZlRUouKMszHp/A+g7LS3ACSHcCzYcXDw73/N1Av84XdgTwrcs42BJ4lwE7tu6vind+7VHY/IHzkbiVcZ0qxnKYBq3fEUOrNqEiK1dTCqqjL/u6Z24P9PQmRaLSLTamFWTTr0/8Xw/O4uHPjd3ej+5c/Q98hDusMJozSAX0iToeIhCYAAIM16goKiUZiTJsOsmgSzZhoitXWZ/101Cea0WkSm1cGsqsokDnUzQFZxTrhwNr+AA7/5Fbp+8TO4O7bpDieMnmPgVgtm86InXtiuOxiRG5IAFDlp1lPYKFqSSQZqh4wiDIwwmENGGIyqSZliQ8PQHfKocToNr70VXnvbS3/aWuF1ZP7rd7TD3bNL1hrILWkyFGKSABQhadZTnMiyYFZPQcmJr8Ws62/UU4+gFLy9HfA72jMX9472zEV9bwe81j3w93bAbd0Nf99e6Q8QNANNhgxDJY95fNuLusMREycJQJHgJTCffmrhe4hVHMTvAyiAq8eIfJnx399G1QUfyOp7+t1d8IferQ/evR+6a2+Dt2eXFPIVPgXgXoCazX7zrqOffz6tOyAxPpIAhJw06xHDidRMw4Jf/gFGRcWE3mf35/8DvX/7C7y9HdLEpzjtJ8YdBvOao5/c+i/dwYixkQQghKRZjxiN6mVx1H768+P+fXf7Vrx43hmAUrp3JXBcVjBBMIpo2qdMJyw8xfPpLALSrEeMBZkm5m38NaJHHzuu32//9nXYt75J924EBgM46Pvo9Dz0+T4e3bsX88vLcUxFBSbbtu7w8qkfwC9lOmHwSQJQ4KRZj5iIstPegjmpW8b8e+w4eOGsN8uqfgA8Zux3PXT6LhyVudZFQHiwve3Qa6ZGbRxTUYkFFRWIFNGoAIDtYNzKFtYc/+iWLbqDES9XVJ/EMBkyfe8yAJW64xGFa+a3V6PynPeM6Xe6f3Undn/2Wt2hazP0br97mKLGVyYAg2zDwLzychxTUYmp0aIaFZDVCQNIEoACIs16RC5Eps/Agl/cO6aVCLct/SD6Hn1Yd+h5N3i3v8934aqRR7ZHSgCGmmxZWFhRgaMrKxEtoP4MWdBJjI0E3HjMpi2P6g6mmEkCEHAM0DOL570ToDgIHwBQojsmHSgSgVFZCaOiCmZlFYzKKpiVlYca2xilZYe64rHrQvX1Zn5RKfgHDkAd6IZ/oBuqpxvqwAGZivYKU1deg5qPfnJUr00/+zS2XDy2EYNCdqS7/eGMJgEYZBJhdlkZjqmowPTS0mI7Kf+DmH/kwb998aYd8jwpz4rss1Y4iq1Zj1FWBmveAthz58OeOx/WnLmI1ExDpG4GzKk1iEyZmr3GNczw9u2Fv7cDXutueB3tcLdvg7N1M5ztW+Fu3QzV26v7kOQV2Tbm/+y3sOfNP+JrW7/2X9j/45t1h5xzLit0uT72eR5cHttMh7EkAENVWRYWVVRgUUUFSsyimryTJvDvmYybeuwpd5768MPSBSoPJAEIEAaM505ceIZilQBwIYBQNnqPTKtFyUmvQ8mxxyN63AmIHns8rJmzdYf1Mu6uHUg//STSzzyF/qefRP/jj8Ibxwm9kFS86yzM+t7hq/pVby9eOPO00LbfZQYOqszd/gHfG3drg/EmAIMMAupKSnFMRQXmlpWBiqtwcB8xfuKbvPaEx7Y+ojuYMCuqT1VQhb1ZT6RuOsrf8g6UnvJGlL3+VFhzCnMXnW1b0fevf6LvoX/g4N/+Aq9tj+6Qsm726haUv/1dI/58/x23oPWrX9AdZtY5rNDl+eh0x363P5yJJgBDlZnmoVqBykhxNfAc7C3gMq0/8YnNrbrjCRtJADR5btGiqIp6FyniGIHOABCqKqCSE09GxbvORsXb34XocSfoDif7mJF++kn0/OWP6Pnj79H/xGO6I8oKe+48zP/570AjzFvfcsl5SD+1SXeYWcFgHPAyd/s9vp/V985mAjCIAEwvLcXC8nLMKytHxCiq07cLxt1MfFOk3/q1tB/OjqL6BAXBphPmLjZNIw7GUgBTdceTTdaceag670JUve/CUT1LDhNn62Z0//oudP/qTrjbt+oOZ0KmfeIzmBK76lV/3/fvR7Dtyot1hzdhjlLo9D3sdz14OWpfnIsEYKjB6YTHVVaiuriaDAFAJ4DbiWntsZs2/1t3MIVMEoA82LR4cYVJPR8CKAbgzbrjySoilJ32Fkxecjkqz3o3YBRV4dKrMaP3wb9h/8ZbceDe3wIqu3eW+WCUlGL+L+6FNWPmy/5+9+c+ie5f/lx3eOPCAA54Xk7u9oeT6wRgqJeaDJUjQqEaSBwF/iuBfnDM8Vt+QhtReF82zSQByKFQN+shQuXZ70HNR66FvTD0kxTGxXnhOXSsvh4Hfv+bglsop+q9F2DGN2849P/9/Z144aw3g9OFNfKaVgr7fQ+djgc/jx1p85kADLLIwNzyMiwsL8eM0tK8bjsANgO4weyPrJHHA6MnCUCWDTbrIearALxWdzy5UHbqaZj2mS+g5PjX6A6lIPQ/+TjavvU19D38D92hjMmclttQ9oY3AQD2rW9C+7ev0x3SqOT7bn84OhKAoSZZFo6qqMDRlRWIFteo3HNE/PFjH996j+5ACoEkAFnyzOKFbwDU1Uy4FCFt1mNUVKLmo59E9WXLDjXgEaPEjO5f3Ym2b34Fftd+3dGMSnTRMZi38dcg08Tm88+Es3Wz7pAO69DdvuvC1zzgojsBGFS8TYb4Zp8rrlq8aVM456tmSfF8HnKAl8B89sn5S5jwSQBv0B1PLkWPPhazvt8Ea9Yc3aEUNG/Pbuz8WAL9Tz2hO5RRqf1sI+wFR2FHYqnuUIalAPRovtsfTlASgKHKIxEsKC/HsZWVKC+O6YRPK5/OPeGpzYVdlZtDkgCMwx/ficiMjnkfBuj/AThadzy5VnH6GZjxre/DKBt9r3gxMtXbi12fvgYH//wH3aEckVFZhZLjF6P3H3/XHcrL9CuFLt9Dp+vBD2B9RRATgEGD0wmPqajAnLIyGOFuMvScaUXeevS/nm/XHUgQhfpfPheePXHhWYrVdwCcqDuWfCg77S2Y/cMWUDSqO5RQYdfFzmviOHj/n3WHUjAUGN2ej66A3e0PJ8gJwFClpjlQKxDqJkMtxz2xJaY7iCCSBGCUnj52zkxEzBQIRbMKij1vPubd8Wu5888RdfAgtix5X8H3Dci1fqWwz/PQ5XpQeazkn4hCSQCGGpxOuLC8Ama4mgz5cKPVxz3zzAHdgQRNUZWHjtfTJ85/PwzjtyCcpDuWvDEMzPrumqJr6JNPZNuIHns8un/xU92hBI4PRpfrYbfjoM110a8K5dKfYYCws/eg7jDGpM/3saOvD88cOIADnofySASl4ViQyIDJP/tBW+cu3YEETWjHfLLl6dfM/xgY1yNkrXqPpPzNb0PpKW/UHUbolZ16GspOewt6H7hfdyiBUIh3+2HjKIXnDhzAcwcOYJodxXGTqrCgvFx3WBNCprNbdwxBVFQXtbF6avH8ywDcgCI8TpMuXKI7hKIx6aJLdIeglc+MTtfFC319eKGvD52uKxf/AJgatbGosgKzywq7qVCP7+HYf+/YqTuOIJIRgBFsWjx/OhGaJv5OhalkcVHUOAZCyeLiebI01KG7fc+Fkut9IFhkYH5FOY6tqMSUaOGvMcAAdvZLY8CRSAIwgghhJQOFPe41kf2vna47hKJhTS++Y+2wwl7XRZfvFVqX5FAK63oCu9P9OOB7usMILEkARsCM1xXzHAm/cx8i02foDqMoeHv36g4h72wyMCsaxXTY6HY97Pc89CqlO6yiMni3f0xlJaaGcEXBdsfBrgJbuyLfJAEYwX7Pffdky9Idhjbp55+VBCBPnBee1R2CNiYI1ZaFassa0txHfyvfMAvr3f5Qu51+GfofBUkARtDt+yXFnAB0/+pOlL/tdN1hFIWuAl1iN9tKDAMlho1ay9a+mE/YHHq2X1mJKSG82x/kg7Gltw+dnqs7lIIgCcAIOtw0ZkSjsMLdJnNEB+69B1O3flz6AOSYs+VF9Nz3W91hBAoBqIpEUBWJwGGFLs9Hp+vBZXlEMFYv3e1XIBLyc1mP52Fzfx/S8ihp1CQBGIFiYHNfL44uLUfIvzfD4nQae774Gcxdd7us/JcrSmHPF/8f2HF0RxJYNhmYZhmoiVg4qHx0eh66PSnqOhzbMDCvPPx3+4MUAzvT/Whz0jJ5dIwkATiMbs/D9nQf5pYU9jzY8ep75J9o/Xoj6j7/Fd2hhFLb//43+v71kO4wCgIRUGGaqDBNeLaN/a6HTt+FI/MHDymmu/1B+1wXO9L9cOSuf1wkATiCNseBz8CCkhIU41DA/ts3wCgrx7RPfKYo9z8nmNH+3W+ic0OL7kgKUoQINbaFqbDQp3zs9/yi7SUweLd/XGUlqovgbn9Qr/Kxo79fRoMmSBKAUdjrOnBYYUFJGexwLZIxKvta1sB54VnM+MYNMCoqdIdT0FRvL/Z84VM48Pt7dIdS8AhAmWGizDZRZ1no9jzs8zz0F8HdYIgX7jksRynsctLY6zrSPyILiueTM0Y3z61+1cfLIgPzS0swKVKcswPso47G9C9/A6Unv153KAWp79GHseeL/w/O5hd0hxJqQVhPIBerAQ7e7R9fWYnJRXS3DwAuM/ak+9HuOBhPenfltk651g1DDsoIhksABk2KWJhXUlqUowEwDFRftgxTr/4EzKpJuqMpCH53F/b+8Hp03r4BKIK706BQnOkDr2M6YTYTgGK92weAtFJocxy0u+kJPeKRBGB4clBGcLgEAABMIsyMRlFr26AiPIxGeTkmf2gppjZ8RB4LjED19WL/bTdhX/Ma+N1dusMpammlsN/3sN/14OVh7HiiCUAx3+0DmaWJdztpdHpuVob6JQEYnhyUERwpARhUYhqYHS3B5CJ9LGBWV2PyxZdh8qVLEakrvp72w/Fa96DztpvQ9dPb4e/v1B2OGIKBgSZDPg6q3K1DMN4E4FAlf3kFIkV2tw8AB30fu9JpdGW5kY8kAMOTgzKC0SYAgypMEzOi0aKtD6BIBBVnnI2q8z6A8redDiqyLorsujj41z+h+1c/R899vwNLB7vAc1mhy/Wxz3PhZjkTGEsCMHi3f0JVFSYV2fdmUI/vY3cOLvyDJAEYnhyUEYw1ARhUGYlghh1FVaR4J1iYkyaj8uz3oOKMs1H2xjeDoiW6Q8oJTvej98G/4cAff4+e3/8Gftd+3SGJcWBk7jw7PQ8HPB+chcLBIyUABGBaNIqjKiqK9m6fAXR5Lnan0ziY44RZEoDhyUEZwXgTgEFlhom6qI0pllWUNQKDKFqCstPegvK3vgNlr38DosccCxim7rDGR/lIP/M0eh/5Jw7e/2f0/uPv4HS/7qhEFnnMmSZDngdnAq2HR0oASkwTiyoqcHRlJSqL9CZBMWOf62KPk87blE1JAIYnB2UEE00ABllEmGbbqLOjMKWRDoyKSpS+7lSUnngyosctRvS4E2DNmKk7rGG5u3Yi/cyTSD/9JPoeexR9jz4E1dOjOyyRJ4PTCfePoxBtaAJAAKaXluKYigrMKSuDUaTnAZcZ7U4abY6Tl0LMoSQBGJ4clBFkKwEYZIJQY9uoi9qwQ7oE53iZkybDXnQM7LnzYc2dB3vuAlizZyMyrQ6RqTW5W4tAKXh7O+C1t8LdsR3Oti1wt22Fs20LnOeflSF9AQDwmTNNhnwP/f7o7lgjIDy2by+OKvK7fSDTta/NcbBvnHP4s0ESgOHJQRlBthOAQZmVzizMiEZRYRboUHgekWnCnDoNkdpamFWTYFRUZv5bWQmjohI0cGI1SsuAwQIq14Xq6wUAsOdB9RyAOnAAfncXVE/mv15bK/y9HVKsJ8akT/no9PzDNhmqNCOYHMmsW1Csd/uDsy1aHSdnhX1jIQnA8Io3LdVksPCly3NRFYmgbqBgUD6dw2Pfh9e2B17bHt2hiAkyKqtgz5kHa/YcRBcdA/uoo2HNmoO2b30VfY/8U3d4o1JqmCi1TUy3bfR4LzUZsg0DkyMRTI5EinYJcSDTfGmv66DVTY96tEToIwmARt0DS5tGDQPTLBvTbFvqBERBI9NEZMasl13k7dlzYc2eA2v23Fe9vvPmdQVz8R/KAFAViaAqEoHHXDSr743EY0abk0ab48KbQPGkyC9JAAIgrRR2pPuxy0ljimWhzrJRKo8HRICZVZNgDVzYD93Nz56D6FFHj3rap7P5BbR/91u6d2XCivni3+f7aHX1Pt8X4ycJQIAoZnQ4DjocZ+DxgI2qiCWPB4QWFIkgMn3mq+7m7aOORmRa7YTem30Pu7/wKZlGWYAGH2O2OY4sx1vgJAEIKHk8IPJl8G7eXnQ0okcdDWv23Mx/5y8Ambk5RexL/hD9jz2qe9fFGPhgdDr5nb8vcksSgIA79Hgg3Y8plo06Wx4PiLEjy0Kkbgaii46GvfBoWHMyF/no0cfCqKjMayzppzZhb/IHug+JGKW0Umh3MyOT+Z6/L3JLEoACoQB0uA46XAcVZubxQHUkAsiogBjCrJqUuZMfuMgP3s3bCxYGogMjOw52f+6TYBk6Drwe30erkx5XIyRRGCQBKEA9voeePu9Ql8FaO1rUhUjFhmwb9tz5sBcuyhTiDd7NH3M8jPJy3eEdVvt3v4X088/qDkOMQAHodB3scRz0SY+M0JMEoIC5zNiVTmOPk8bUiI1pURtlAbjLE9kRqa2DvXBRZhrdnLmwjzoG0aMWwZo5O3fdEXOo75GH0HnLOt1hiGE4SqHVcbDXlWH+YiIJQAgoBtpdB+2ugzLTRK1lY4plowgXGCs4r7ybz1TbL4I9/ygYZWW6w8sa1dOD3Z/9BCDFY4EyOMzf6bnIwiKIosBIAhAyvb6PLX4fdqbTmGpbqLVs2AV4txg2Q+/m7UXHDFTbz4E1a05R1HG0ffMrcHft1B2GAKDA6HRdtKYd9CoZ5i9mkgCElMsKe9JptKbTqIxEMM2yMTliFcO1RpthW93OngN74SIYJaW6w9Om54/3ouvOjbrDKHqHVuNzXXgyEiMgCUDoMYb2FDAxzbJQY9tSNDhOY211W+z8zk60fuVzusMoar1+ZjW+va4LlnF+MYQkAEUkrXzsSPvYmU5jshXBdDuKcukpMGrRY4/HtE9+FuVvebvuUArGni9/Fl5Hu+4wig6Dsd/10Oqk0SPV/GIEkgAUIR54BtjpulI0OAbpZ57CjpXLYM9bgEkfuASTl1wOo7JKd1iB1XXXT9Fz3291h1FUXFbY67hocx04MswvjkBO+SO4eW51UY2VRYgw1bJRa9uIStHgqBjl5ah6zwWYfMVyRBcdozucQPHa9mDLRefC7+7SHUpR6FWZYf59rgNVVGeuUem+clvnJN1BBJEkACMotgRgEAFSNDgOpa8/FdVXrEDFmefkrH9+wWDGjquW4+D9f9YdSahl6ntctMqiPEfA9165bf/ZuqMIoiI/U4lXennRYGYhIikaPLK+Rx5C3yMPIVJbh8kfvAyTL10Ks3qK7rC06LxlvVz8c8hnxl7XwZ60A4dlmP9ImOi7umMIKjmrj6BYRwCGQyBMtiKos6OokKLBUSHLQsW7zsbkJZej7E1v1R1O3jibX8CWJefJMr850O+rgYZfaRnmH707rtzW+SHdQQSVJAAjkARgeFI0OHYlJ5yISUsuQ9V5F4a6HwD7HrYtWyLL/GYRAzjgeWh1HHR5ru5wCgqBHuovNc6IPdNxQHcsQSWn8BHcPLdaQY7PiKRocOyMyipMev/FqL5yRaYDYMjsvfEGdKz+ru4wQsEHo9Nx0eqk0SfV/GPGwL+iyj/rkh3d+3THEmRygRvBzXOqt4IgnV2OQIoGx8EwUPbGN6P6ynpUvONdoWgF3P/UE9h2+UWyzO8EpVVmmL/DkUV5xo1xj23hskte7JQpKEcgD3RH8IHq0qMBvEF3HIUgrRQ6PRf7Bk7+pYYBIwQXtZxhhrtjOw7c/Qsc+PWd4HT/QLvgEt2RjW93HAc7r1ouDX8moNvzsK2/D9v7+9Hj+5B7/nHxwXTd89s7Ex/p7JcilFGQs/QIfjR76izTUJsAyPzRMZKiwbGjaBSV734fpiyLI3rs8brDGZO2b30VnRtadIdRcBSATtfBHsdBn3TrmxjGNgIvvWL7fpl+MgaSABzGhtlTziWDfwUZKRk3KRocu5ITTkT1lStQ+Z7zQZFgz9Tte+Sf2LbiUlnmdwwGF+VpdRz4Msw/UQpAk2vwf67Ysn+/7mAKjZySj+DmeZMvAtOtAApzfDYgpGhw7CI101B1wcWovmwZItNn6A7nVVRPD7ZcfK4s8ztKPb6PVieNTs+FrMmTBYx/GwZddfnWfX/XHUqhkgRgFG6aN+kMg40fA6jRHUuhk6LBsQtqT4E9X/g0uu76ie4wAk0NrLvRmnbQq2SYP0v2MNA4e1tn87sAqTqdADn9jtKtC2rrlO/+CMC7dccSFlHDQK1to8ayYUomMCr2gqMw+UNXYtIHLoFRWqYtjp4/3oudH2vQfTgCy1EKba6DDseFJ936sqWXge+TTddd+fy+bt3BhIGcdcegETAWzZ38EYC+BkCWgcsSKRocO6OiAlXnno/qK1fAPurovG7b7+zElovOgbe3Q/dhCJxeP7Moz17XBcs4f7Z0AVitLPe7y17oadMdTJhIAjAOAzMErgfwQcgxzCopGhyjgZ4Ck5dcjsqz3g0YuU+gdv3H1Tjwu3t073lgMBj7XQ+tTho9Us2fNSaMvhKDNriG/xmZ058bcoqdgFtmT30jG+q/AJynO5awMYlQbVmos6MolaLBUbFmz8XkJZdh0kUfglldnZNtdN31E+z5wqd172oguKyw13HR5jpwZBZE1thkoC5qY5oVhUEAETYx04/gercc98z2XbrjCxNJALLg5rnVbwVwHYB36I4lbIYWDVZHIqHompdrZNuoeOdZqF4WQ+nJr8/a+3qte7DlA+fC7y7um7Fe30eb62Cf68iiPFk0WBM0zY5ihJRfAfR3JtykVNmtizdt6tEdc6GTs2kW3TJ36lkK6lsEvE53LGFkG4Qay0atZSMiowKjMrgQ0aTzLwJFJzCTlRk7rlpetMv8ZpbJdtHqOOiWdsdZVWqaqLNtTI3YY8nvu5loQ0T5q4/etO1J3ftQqCQByLJGwDh67pSLGepTAL1RdzxhNFg0OM2yURXwRjlBYU6ZikkXLsHkD10Ja+asMf9+54YWtH3rq7p3I+98Zux1HexJO3Ckmj+rqiKZwt9JE/sOMwh/NGB8/ZjHX7xX9z4VGkkAcuTJk+a/6YDr/edex3lfp+dGpOFXbpQZJmptKRocNcNAxTveheorVqDstLeM6pGKs/kFbFlyHjhdPO3V+5VCu+Og3U3LMH8WDSbv0+0oyrM844eAB2CoLxz72Lb7dO9noZBTZhZtfu38yWkPHyZCAzMWD/59Wim0Og465GSSMyYI1baF6XYUJfJ4YFTseQsw6QOXYNIHL4NZNfySF+x72Lb0g+h//N+6w805BnDA89DqOOjyXN3hhIo50Al0um3DzvX3k/gnJlnXHv3Y8zt073fQSQKQBc++Zt7xCrQKQAxA+Uiv85RCh5tZ49uVIYGcqTAjqLOlaHC0jPJyVL3nAky+Yjmii4552c/23ngDOlZ/V3eIOeWDsddx0Oo4SEs1f1YdKuwbqOjPoy4G1x//xNaf6T4GQSZnxwl45qS5ZzIbnwPjjLH8ngJjn+uiNZ1Gn5xwcsYiwlQ7UzSY87uOkCh9/amovmIFKs48B+lnn8a2yy8Ch7ToLa18tDku2l0HShLyrKowTdTZUd3tvhng+HFPbJWlKkcgCcA4PL143hls0HXEOG0i78MAujwXbVJZnFNSNDh21oyZABlwd4VvFLVbhvlzgkCYYlmoi9ooy0NDqlHyyVDvlrqA4UkCMAZPnbzwGMP3v82grDf+6fcHeofL3UhOlQxZf8CQxwNFwwej08k8fpNRt+wykRlpy8vz/XHhJ457YuuJuqMIIjkDjgID9PSJCxqI+Ts4zDP+bPCY0eG4aHfT8jwyhwaLBussG6Wy/kBopZVCu+ug3XHgS2KdVVHDRF3URk0k+DNwOIIFxz+6ZYvuOIJGxkOP4N8n1ZU/o0pvI+bz87G9CBGmR23URW2pSM4hH4wOx0GH46DKjGBaNIpq05SiwZA44HtoTWe+O3LZz66APN8fE9PFZN0xBJEkAIexafHiClMdvA9A3hv6EDKNMqoiEaSVj3bXRYfjwJO7mKzr9j1093pSNFjgBhfl2eOkcVAW5ckqA0D1wDS+QhsxY7DnouJ53XEEUYHkb3o8/Zr5dwBYojuOQfIcMz+IgCrTQp0tRYOFYHAa3x5HFuXJNosI0+woam0bkUK53X+F/Z735Jue3rF44u8UPnJ2G8FTr5n/TgTo4g9knlvX2Dam2pnHA+2ug/2eCxkUyC7mzOyMLs9FiWmgJmJjmm3DLNATYFillUKbdOvLiTIz02GzJmIV9GMxRyls7e97SHccQSUJwAgIfEVQB0iGPh7oHzgJ7nUc+PK0M+v6fYUdfj92p9OYaluolU6D2snz/dwwAEyxbdTagZrGN24+GC/09cJRqnh6WI+RJADD2DCvZka/4jeXBL20FZlpbXNLSjA7GsU+N9NToFfJ889s88Focxy0OY50GtRAnu/nzmDtS50dhRWSz7MPxnMHD8pn5QgkARiGwer8bs9bXGLbukMZfcyUeTxQY9vo9X20Og72uS5Y7pGyrsf30NPnDTwftQeej8qoQC7I8/3cGRzmn2pZoICOdo5HWvl4vq8PfXLxPyJJAEbQ6bqoLaAEYKgy08SC0lLMKSlBx8Bdqyxlmn0uM3al09iTTmeGTi0bZQVWIR1UaeUPLKDlyPP9LBrsillnR1ERws/qfs/F5r4+6fkwSpIAjOCA76HL8ya6VrVWmZ4CUdRFo+j2XLRKy+GcUMChngJlpok628aUkN1V5UvfwOhVh+dABq+yxyIjU8MS0imuPjO29fdjr+voDqWgFO7VLQ829/Xi+PIKRAv8C0MAJkUsTIpY6PcVOjzpjJYrvb6PzX192NHfLz0FxqDH97E7nZamV1lWZmSG+adYwe/WN16drott/X2ywuo4SAJwGB4znuk9iGPLyhANQVUsAJSYBmabJZgZLcE+10FbWooGc8Flxp50Gq1pRxYiOoxuz8OudD965Hlt1mRmCYW/j0Va+djW348uGdUct/B+OrLEUQpPHzyIo8vKQ/V81wBQY2UWxen1fbS5DvY5DqRSILsYjE7XRafrotyMoNa2UG1ZMIr48QAz0Om52O2kpVAri0wiTLWCvChPdnhKYZeTGcWUIueJkQRgFFxmPHXwIOaURFFrR3WHk3Vlpon5ZilmR6VoMJcO+h4293nY0Z/GNNsqutkDDMY+N3Ph7/fl85UtJaaBaZaNaVY0tMP8AKAYaHPS2O2k5fFllkgCMEoMHhhu8jGvpCSUGfbQokFZiCh3XFaZ2QNOGlMtG3VWFCVm+D5PgzInbgetTr88p80SAlAZyfSjmBSxdIeTUz4z2h0HrY4DV25MskoSgDHq8lxs6vEwqySKaVY0lH1ghluISIoGs08x0D4weyCMJ3MGY6/jYmdaLvzZcmgZazuK0hDehAzlsjrUfEvOPbkhCcA4+AOjAW2Og9klpZgc4kKbqGFidtSUosEcYmSK4bo9D+UDS61OKeAug4oZ7a6DPem0XPizJGoMDPMXwZoUDiu0pmWNh3wI75UrD/qVwvO9BzEpEsGskpJQ9M8eiRQN5sdB38eLfb3YQQZq7ShqbKtgVmHzlEKbm1mtUu7YsqNiICGcHLEKNR8ctX6lsMdJY68jHUzzRRKALOjyPHT19GBSxMKskmioEwFAigbzwWGFHek+7HL6MNXK9BMI6jrsvb6PdsfBXk+69mWDAaB6oJo/qP/m2TTY/Gmv58jKpnkmCUAWdXkuuntcTLYsTLejKA/5l3ewaHC6bWO/76FNOg1m3WCdQLvjoNKMoDZqo9rU/3hAcWZ6Y7vryBz+LLHJQG3UxjQr/MP8QOaxV6uTlnn8GkkCkGUMHJr3fagtbMTWfb7OLSJMjliYHLGkaDCHDvgeDvR6sA0DUywLUywrr6NNDEa352Ov62C/58rdfpYMLspTE7G0J3a5Jqs6BoskADk02BZ2l5FGnW2jJuTzdAEpGswHRynsGViEqMQwMDliYZIVQYVpZn39AZcVugYKFLs9D54kdVkR9kV5Xslnxl5XVnUMGkkA8iCtFLb192OX46DGskK17vZIhi0alJXdsm6wcGqPk4YJQnnERLkRQXnEQKlhIErGqO8qPVboVwp9vkKP7+Og8qRhT5ZllpCOotayEAn5ND4gc+5rc6SiP6gkAcgjb+DOrTXtYKploS4a/rm8gBQN5osPztypwwMGFkUjEGzDQIQyFx8amgxwZr0LlxVcZnlkk0ODw/xTi2SVyB7fR6uTxn7PlcK+AJMEQAMGo8N1sNd1MCmSaQkb5kU7Bh3qNGhHsd/P1AlI0WBuMRhp5SOtO5AiRCBUDwzzh70gGHip1XOrPPYrGOG/6gQYA9jvudjvuSgxDdQODJkbIX88QARURyxUDyka7HAceb4sQsEiA1Ntq2iWgvbB2OvI8/1CJAlAQPT7Ctv8fuxKp1FjW5hmRREtgpOHFA2KsCgzMsP8Uyw79MW+QGY53ta0gw7p/1CwJAEIGI8Ze9IOWtPh7A8/EikaFIUos26GhboieYwHyPP9MCmOT2wBGtofPmqYmGZZqLHtgmkLOxFDiwb3upmiwbQMLYoAMYkw1bIxPWrDLoIlnRWAzoFpfH0yfz80JAEoAGnlY0fax+50umhWAgMyRYN1dhS1dmZ54vaBBjRy1yF0KTEMTLNtTCuCnh4A4DKj3UmjTWp0QkkSgALig9HhONg7sHzsNMsuikVCXr48sUK766DDceHJVEKRBwQU1eM4INPErM3JPN+XdXnCSxKAAjT08UCJYWTmF9s2zCKYXxw1DMyOlmBmNIouN9NLXHrRi1wwQai2M+t6lBTBiJsCsG+gT4cU4hYHSQAKXP9Al8Ed6TSmWJmeAmFfjRAADBCqLQvVliVFgyKriq3mxuXMNL5WJw1XhvmLiiQAIaE483igw3FeWoSoSLqODRYNzomWoHNgPfo+KRoUY1RVpMP8e10XLOP8RUkSgBAaXIRoe38/amwbtXZxVCqbRKgZeBwyWDTY6bnyDFOMyCDCFKt4hvkHV+OTR2cCkAQg1DI9BdJoTaeLaq7y0KJBR2XaLre5DjwZFRADooaBaZaNabYNsyiG+RX2Oi7aXOnWJ14S/quBAAPo8lx0DbQcrokUz4nPNggzo1FMj9rocjOjArL+QPGqME3U2VFURyKjXiWxkPWqzDC/1MeI4UgCUGT6fYUdfj92pfsxxbJRG5WiQRFuhMFhfhulRbEoD9DtuWiVxbbEEUgCUKQUgA7XQYebKRqstWxMsW2E/ynoy4sG2x0X7a6DtEx7Ch3bGFhgq0iq+X1m7HVlUR4xepIACPT6Prb4fdiRLr6iwenRTDvXbikaDI0yw0Rt1MbUIpkF0+9nmmO1u2kZ0RoO8UHdIQSVJADikKFFg8XW+WywaHBwTrQUSxWWYluUhwEc8Dy0Og66PFd3OIFmwNikO4agCv83RYzZcAsRFUvRoEWE6dEo6qI29kvRYOAV2zQ+H4xOR3pdjEEnW9ioO4igkgRAHNbgQkTFVjRIQ4oG+5XK9EV3HSjplBYIFhGm2VHUFUliOrgGRrvjwJfP4OgRPnrl8/u6dYcRVJIAiFEp5qLBEsPA3JISzIpGMz0FHFeKBjUpH5zGZ0WK4vl+j++j1UnLKpjjwfztK7ftv1V3GEEmCcAwFFR/MZxcxquYiwbr7Cjq7OihokE5MedesT3fVwA6B6r5+6Rb3zjR967Y3vnpK3WHEXBylRvGhnmTXk9sPKw7joJBwGQzsxBRMZygh5Kh2dwptuf7Diu0pR20u/JZmgCXGB+/YnvnjboDKQSSAIzg5jnVfwfhTbrjKDTFVjQ4SDGwd6DlsNy1TYxFhLpoFDVWcczfH1yUp8NzZArqxLzIREuXbt33N92BFIrwf7vGaWAU4K8ASnXHUogMoKiKBofq8TPTs6SnwNjYhoE628Y0Kwoj5GcmBUaXLMqTLQwgZfdFPnlJe3uP7mAKSci/ZhNzy9wpSxh8K6RWYkIOFQ1aduhP7EO5zGh3ZCGiIykdWL66JmKFvj9/5jORRpvrymciOzaxwR9dumX/n3QHUojC/W3Lgg1zJl9ARLdDRgImLDKwXG+xFA0OGrzb2+OkcVDu9g4pM03MsKOotsLfbGpwmH+v64JlWCgbuojoaz01+25Y+TCkE9I4SQIwCjfNmXQqkXE7AUfpjiUMaKBocFoRFg32+D7anDT2FfHjgapIBDPtKCpC/m/PYHQODPNL4pc1DkBrDM/96uW7DnToDqbQSQIwSjcvmlIFh38AYKnuWMJksGiwWBZsGXTo8YCThlcEFd+DU/lmRqMoD/mKfC4r7HVcaSedXT4Dt1usvnTp9q4XdAcTFsVzxs2SDfMnv5MUrQFwrO5YwqRYiwZ9MDocB61pBw6H72IxeOGfVRIN/b9rr8oM88sy09kzuJTzjGhURQ36A5GR7LGn3Hnqww/LsH8WSAIwDnfMnl3qGD2fBug/AFTpjidsirFocHAN913p8AwXTyqCC//gv1urI2tGZJNBhGmWhTq7BParTwJ7wPiRSX7T0U9sl9GACSiS02tu3DG7akraMD9DwMcgRYJZFyHCVCtTNBgtgkYwgwanERZil8HBO7bpto3SEA/1+8zY6zrYE9KRG11MEKbaNmZEo7CO/EhQEXAfCKuPeXzLXVS0VTXjJwlAFtx0VEUtudYnAXyCgKjueMKGAFRGIphm2ZgcscI+U+yQfqXQlk5jr+vCD/i5zQShxrZQZ0dhhzhZ61cK7Y6Ddjctw/xZZJGBaQMzhMZZC/Q4QF879onNP6FMN2UxCkVyKs2PXy+sOzGtVLKPvdOY5djmQtQwMM2yUWNbiBTJVMJDS8AGsMtgiZE5cU+zbBghzcwYwAEvMyrT5cmj52yKGgam21FMzd7CYv8gNj567KYX/6l73wpBOL+xefbsa+Ydz4yrmWgZgKrBCu9WJy09vXOEQJhsRVBnR1ER4qHmV+r2PLQNLEKka1DAHOjRP9WyQ33sBxOvPU4a/VLNn1Vlpona3DV/Usy4QaH8Pxdv2uTo3tcgkwRgAp5ePO9dRPRZBs7CMMdSMWOf66LVSaNPTiA5U4xFgx4rdLoe9nouDvpezmsFIkSoikRQHbEwOeRL8aaVj3bXRYfjFMUUzXzJ96qOBDygPPe845/euVf3vgdVeL/FOfTU4vnvJsKXALx5tL/TLUOIOWcSodrKPIcuDfFz6FfymdHleejyPPT4HtJZSDYNAsqNCCrMCCZZJsqNSOhrL+Q7mht6V3Wkh+Ha7zrumWcO6D4OQRTyr3R2Pfuaeccz8C0GnTfe9+j3FdpcBx1SRJQzQ4sGqyOR0PeXfyVPKfQohbTy0acUHKXgMsMf+DOURYQIESwyUGIaKDEMlBomygyjKI7b4CidDPNnn0WEaXYUdZpXBiXQt499YvOndB+PIAr/NzwLHjrlFKuiv+O/QPgsQFkZu/KUQrvros1Jw5VhxpyxDUKNZaPWshEpolEBcXhppdDuOmh3HKnTybJy00SdHcWU4CTffT6XT5Z6gFcLxL9OkD197JyZsIy7ADo1F+/PDHT70kgk1waLBqdZxbf+gHhJj++j1UnLUs1Zlu/n+2NlgE845omtT+mOI2iC9y8VIE+ftOBYKP4dgLm52gZRpmPapIiVmfftyOOBXMgszOKi03WLsmiwmKmBf/s9TvCmURY6vc/3R4cBWBHarTuOIJLT3wiePvbYSljpBwEcn+9t+8zoGHg8kI2CLjE8kwjTbAvTLBvRELerLVaOGqi3kWr+rLPJQK1tY5rm5/ujcdD3t53y1PZ5uuMIIhkBGAFHnEbScPEHMhemuoGuWAc8D+1uYbaFDTqfGXvSmXauVUVcNBg2vcpHW9rBXtcFyzh/VuV4/n7WKQA70/0P6Y4jqCQBGAYvgfnMUxzXHUfmuVoEVZHIobnJUrSUG92eh27Pg0WZXuS1lh3qlrZhI4vy5M5g/cx0u/CWct7e14cuz+vQHUdQSQIwjCefnDnLpGCt8hc1TMyOmpgZLcE+10GrPM/MCZcZe9JptKYdKRosADKNL3ciRKixbdRa0eFW5Au87f39aHel8P9w5Mw2jMd70xecXGYHcoTLAFBj2aixbPT6PlodB3s9Ryqas2xo0WCJkXneWRPifveFJtNuO41WGRHLukNFstnrz59XioGt/X3YKxf/I5IEYBi+z06P8lBpBvvwlJkmFpSWYpaKHprTLMVO2devFLb192NnOp3pKWBbUjSoycHBaXyuJ8/3s4hAqB5YW6PQhvmHSiuFF3p70atkdHQ0gn2F02hnfxrHlRfG4bENA7OiJZgZjWK/mykalOeg2eczo9VJo9VJHyoaLKbliXWR5/u5EyHCFMvG9KgNu8BX12xzHOxI90PJTdCoFcYVToMe38OudD9mRkt0hzJqmSzeQrU1tKeAI1+IHBgsGhxcnrgQpkMVGnm+nztlRqaaPwy9MNLKx9a+fnT7khyOlSQAh7E7nYY1cIIvNCWGgbklJZhVEg3sWvJhkFYKO9L92OX0Y+pAy+HSAh5CDQKXGa3pNDpceaSVTUHv1jdWioHdTj/2pB15HDROhf8pyCEGsLWvD55izIhGdYczLiYylbw1to0eP7PambRBzT7FQLuTqcOoMCOos6WnwFg5SqHVcdAunTCzykRmaut0OxxTWxnAPtfBznQajowMTYgkAKOwM92Pg8rHgpLSgh7mrTAjqCiNwGXGXsdBm+vIFygHenwPPX3ewGposhDRkfQNzGbpkNksWRU1TNTaFqZZ0YIf5h/U7XnY0d8vRX5ZIgnAKO13XTzp+5hfWhr42QFHYhFhejSKuqgtRYM55DJjVzqN3QM9BQqxkUou9fo+djtpdLqu7lBCY3Ap7DrbxqSIpTucrOn2POx20jgg56msKuwrWZ6llcIzBw9immVjVkkJIgU8GgBI0WC+DO0pUGGaqA3WUql51+152OWk0SMn86wxQai2LdTZUZSGZLSJAXR5Lnal0+iV+qWckARgHNpdB/s8F7OiUdRadihO5FI0mB89vo+evl5sH3w8YEcLPpEcjcGpfLvSaRyUz1XWhHEWCmNg9kc6jT55RJlTkgCMk8+Mbf39aHcczCopxeQQVNUCUjSYL4OPB1rTDmpsG3UhmIc9nMEL/87+tDy3zaIK00SdHQ1VHwrFQIfnYE9/Gg7LhT8fwnHV0qhPKTzfexAVpokZ0WionrtJ0WDu+cg0F2pz0qiKWJgZDU+dQJdc+LOKQJhiWZhuh2uqqWJGh+tgdzoNVx4/5pUkAFnS4/t4rrcXlZFMsdekkIwIAFI0mA+Dzzu7PPfQNMJCvLs7NHwri1VlTWY2SRS1th2qx0UuM9qctLQw1yg8V6mAOOB5OOB5iBom6mwLNSGagiNFg/kxOI2wxDBQG41iqmXBRLA/RD4YHWkXra7Mzc6WMjPTra8mYoWizmhQn++j1XWwz3Wk34NmkgDkSFr52NbvY5fjoMbKVOdaIfoSS9Fg7vUrhW19fdjZ15+p8A5gl8F+pTINkCQRzAoChXbKaI/vY3c6jS5Ppn0GhSQAOeYpdWh9+amWhenRKEpCMk0HeHnRYLfnod1x0OlL0WA2+WB0OA46HAdVkQhqLTtTdKopofQHevTvdR30SNKXFYNNo6bZNqwQFYOqgSmw8kgomCQByBNGptClw82cxMPWqAMAqiIRVEWkaDCXBhchipCBaiuCqREL5WYk57mAx4xuz0On52K/LMWbNWWmiVrLxhTbRngu+5kbnw7XRasjhX1BJgmABoMn8TLDRF3URrVlwQj4M96xkKLB3PNYHVp7wCTCpEgEkyIRVJgRRLMwwqQYOKg89PgeulwfB5UHOY9nx+Aw/zQrHIvyDNWvFFrTaex1HUjqH3zh+vQVmF7lY3NfH7an06ixLNTa4ZoLLkWD+TE4JL9voKVuxDBQYRiIGiZKDQO2YcAigjnwZyiXGR4zXFbo9xX6lUKf8jNT9+SfKasihpH5nlvhWJRnKHm+X5gkAQiAl+oE0qFarnMoKRrMH08p7FcKgIy6BEGZkanmn2LZoZkRBMiUzzAI11WmwA2dC15iGJkpQCGaRggMXzS433dleFmEChEw2Yyg1o6iMmTJvMeZotQ2Nw1H5vEVtHB9MkOkXyls6+/HznQaNZaNupCs5T2UFA2KsDGJMNWyMT2E39de30eb62CfI8/3w0ISgIDz+aVWsWFc5hOQokFR+ErMgUV5QjZiN7iWQ6sj38kwkgSgQGS+iJnZAyWmgVrLRo1lwwhRc6HhiwbT0i1MBBIBoU3KfWbsdR3sSTuyME+ISQJQgPp9hW1+P3al05g6MHsgaoSra9griwb3OGn0y+MBEQAmKNOZ0Y6iNGTD/H2+j1YnjX2eK4l3EZAEoIB5zGh1HLQ5DiojmXnF1Ro7xOWCLE8sgiJqDAzz2/arplMWMkZmDZNWx5FpfEVGEoAQGPp4wDYINZaNWstGJGR3J0OXJx5sguPK8KTIsQrTRJ0dLcjVGQ/HB8voWpGTBCBkHMXYlU5jd9oJbbcxiwgzo1HMkKJBkSMGgOqBav6gLcA0UWnlo81xZQEnIQlAWPHAIhydrvtSv/GQNSIZWjR4aIqSLDEqJiCzKE8UdSEb5gcyo4QyzC+GkgSgCPT6Prb4fdie7ke1Fc7ipTLTxHyzFHOiJegcWISkT4Y1xSgNDvOHrYZGDbSJlu+DGI4kAEXE55cvKxvKokHKFA1OtW0c8DKPB6RoUAyHQJhiWaiL2igL2SyatFJodzN1Mr4M84sRSAJQpAaLBsO6DjnhpU6DjsosxdzmOvDkLqjoDQ7z19oWIiH6zAOZRXlanbQkvWJUJAEoci6Hv2jQNjJFg9OjNrqkaLBolZmZRXmmWhYoRMtvq4F6H1mUZ3gE6tcdQ1CF60wvxu1lRYMhXb3MkKLBokMgTLYiqLOjqAhZNX9mOmwabY4LT6bDjogZW3XHEFSSAIhX6VU+tvT3YXt/P6ptC9PtKEpCWjQ4O1qCjoFnpWl5PBAaESPTLjvzaCtEWSwGFuVxHOx1XbCM8x+Jq5h+rDuIoJIEQIzIx0tFgxVmpud52IoGI0SYbkdRZ0cPFQ3u92R54kIVNUzU2lYIF+Vh7Hc97HHSOCjD/KPGxF/98I69O3XHEVSSAIhR6fE99PRligan2jZqrSjsEJ1hhxYNDlZQd8jQasGoME3MiEZDtyiPNzBzR5bKHgfCb2Zv3f913WEEmSQAw2CCJyNrw3OZsSedRmuIiwajhoHZ0RLMjEbR5XpoddLokbuuwBmcxhfGbn1SozIxBPqD5Zd94F3olGrfwwjXmTtLSKnnOUTD3LnwyqLBaVEbUyPhLRo86PtodwZOyLoDK3KDz/drbRuRMH1PmbHP89AmCeeEMHPzvmjnRz72/L607liCLkTfnuxZewqs8vbqpwEs1B1LIRlcJjWMRYODvIF10ltlnfS8C+vzfX/gM7VHPlMT1QvGf1y5vXON7kAKRYi+Rtm1Yc7kC4noZ5BjNC5hLRoclFmB0UWrIz0Fci2sz/f7lcqsaummZZh/wvgfbEaWLd3c8YzuSApJ+M7MWbRh7pRGAn9JdxyF7KWiQRt2SEcF+pVCm+OgQ07kWRPW5/sM4IAsypNNB5ipcfb2fd97FyCZ+BhJAnAEG+ZN/i9i+oruOArdYEOWMBYNDvKZD/Vfl54C42Mi05q6LhoN1fx9H4y9joNW+WxkC4Nwu6nMT122vWOX7mAKVXi+YTm0Ye7kZQRaDaBcdyxhENZOg4PkLm/sImSg1rZDtwxvv1JoddLYK9X8WcPAX02iz1y+dd/fdcdS6MLzTcuxW+dPPU756nYQTtYdS1gMFg3WWeEa5h0qrXy0uy46HAeedBd6FZsM1EXt0BX2dUsCmAtPEvPnrti+/y7dgYRFiL5yubf2FFhl7ZOvJtDXAFTojidMBosGJ1uRUC3UMsgHo9ORddkHRY3MHf8024YRkn9v+TfOEca/mfg70W37b7kEkPmRWRSOb16e3T5n0lEeGd8BcIHuWMIm7EWDh2YPpB10+8VXs1RuRjA9GsXkSCQ0J5/BzpHtjgNfRnmyhgn/Zyj6+hXb9/1WdyxhFZbvoBY3zZ56mmHwfwN8pu5YwoYIqDIt1NnhLRrsVT5a0w72FcGiLpWRCGbY0VD9W/b4PlqdtKwdkX33A+pLV27ruk93IGEnCUAW3Dq3+m0KuA7A23XHEkYlpoGaSGa4OEwFYoM8ZrQ5DtqcdOjqBMpNEzNDNIdfDXTA3OM46JNufdmkANytWH152fauh3QHUyzCdzbV6Ja5U89iqP8B8FrdsYRR2IsGFQMd7uBUscK+uFSYEcyMhueO32VGu5NGmxRzZpsL4HbDMK67fMvep3UHU2wkAciyRsA4as7kC4jok5ARgZwpM03UWjam2DbCVinAALpcF3tcBz0F1GWQAEyKWJgejaIiJAlar+9nmjx5DkL+lCbfOhlIKmV8X5br1UcSgBy6bd7k1/lM1wK4FEA4xkADJkKEGjuzMIxNYUsFgL6BC9BeL7jzyA0iTLUs1NpRlIagcJPB2O962OOkcVCG+bPtRQKSVgRrLnmxs0t3MMVOEoA82DCvZgZYrSTwxwBU644njAiZQrM62w7N8+ahfGZ0uC7anHRgOsmVmiam2TamWhbMEJxKXB7s1peGK8P8WUYPM9T3Zm/bf6u07A2Owv/WFpDmY2sq7T6vnkDXApinO56wihompllWKIsGM9MIPex1Hez33LyPCliU6dE/1bJRFrJh/r1FMBsjzxSAuw2i66RrXzCF6+xYIBoB45i51e9TwGcBvFl3PGFlAJhi2aiN2igzwnGxGkoxY7/nYb/nosvzcjYHvcQwMDliYVIkggozEorFHQeH+VudNHpkmD/bDgC0jkz1nSs279+qOxgxshB8lQvbzXOr38qEjxLjYkidQM4cKhoM6/oDDBxUPno8Dwd9HweVB2ccwwMGAaVGBOWmiYqBP2FqyOSywl7HRZvrwAnIo5QQ2czgG5zSSEvsmY4DuoMRRxbCU2FhWjd/2nRbeR9m4KMAZuuOJ6wiRJhqZYoGoyG6sA3HZ0ZaKfQrBY8VPGYMveQRABMGIkamJ3+JaYSykBLINF1qcxzsk0V5ckCe7xcqSQAC5o7FsJ0D1ZeA8FEwTtMdT1gRAZNMC7W2jcoQtaUVQzCj0/fQ5jg4UEDTKQuEB+BnMOj6K7fse0B3MGJ85LwXYLfMnXSKgpEgYCmAUt3xhFXUMDDNslFjW4iE9A64mPjIVPPvSTtwWIb5s6wLoB/J8/1wkASgANx0VEWt6VormHE1CHN1xxNWBMJkK4I6OzyNbIqJoxTaZFGenCDiZxVjda9X1rRy165e3fGI7JAEoIDcAZje3Or3KvDHADpLdzxhFvaiwTCRbn05owD+gwH63mXbOn9FcnRDR05tBeq2eZNf5zGtIuBKAGW64wkrkwjVloW6kHS5C4vBZZV3p2UaXw4cYOA20zCul/784SYJQIG7dWZljYpE4gBWQZoL5QwBqIpEUDuwpK18cfTwwWhPZzoiyvP97CLiZxn0Pbs38qNL2tt7dMcjck/OYyHRCBhHz516BkMlAHwAgDzEzpGXigZtRMLQFacAyPP9nLqfQDdY2/b97BJAhlOKiJy9Quj2OZOOcsloICAGoEZ3PGEV9k6DQSDP93Omh4FbTdD3Lt+2b5PuYIQekgCE2PcWITrVmXIBgz8B4C264wmzikgEdZaN6kgEoeiVqxED2O+6shpfbmwmYK2l/KZLdnTv0x2M0EvOVEViSE8BKRrMIYsIU20btVYUtkwfGBMGY5+bKezrlza92XY/gW6YuW3fz6VbnxgkZ6gis27+5MkRhQ8T6OMAFuiOJ6wGewpMs2xURSK6wwk0xUCHm8YeR/rzZxMDaQLuMBT+9/IdnY/pjkcEjyQARapRigbzRnoKDC9T0e9gj5OGJ4V92bSHQWtNz/3B5bsOdOgORgSXnI6EFA3mScQwUGNZqLXsUK2wN1aOYrS5/WhzXCi58GdRZlGe3mn7b1v5MFzd0YjgkwRAHDKkaPDjAN6qO56wIgKqTAszo1GUF1HL4bRSaHMctDtpyEB/1jgA7mKi7y7duu9vuoMRhUUSADEsKRrMj8pIBLWWjcmWFdovY79S2JXuR6fnQm74s4XaGLyOfPrBlTv37dAdjShMYT3niCy5Y2H1pLTHywn0MQALdccTVoPNhabZNsyQTCN0lMIuJ40OV+bwZwsD/zJAayxVtuGSHTv6dMcjCls4zjQi5xqlaDAvTCJMs2zU2oVbJ9Dn+9jjONgrzXuyRQG4m2DccMW2vffqDkaEhyQAYsx+NHvqLMPgBgJ/BFI0mBMEQvXA0sSFUidwwPOwx0mjy5Np5lnSBdCPyFTfuWLz/q26gxHhIwmAGLeXigZVQpYnzp0gTyNUADpdB61pB71KuvZlyTMMvrHXK2tauWtXr+5gRHgF7HQiCtVNcyadahrm1cx8KYBS3fGEUYQM1NhW5vEA6X08cND3sdd1sdeVxXmyRAH4pSL1vWVbu/6gOxhRHCQBEFl1x8LqSa5HHxpYf+B43fGEERFQaUZQbVmYErHyVjTYrxQ6PQd7HVda9WZPNwO3m4Zx/eVb9j6tOxhRXCQBEDnR+PKiwYsASD/cHCAQKk0TVVYEk8wISrNYL+Azo8f30e152O+5SMtFP5ueJyDlGLx2xZb9+3UHI4qTJAAi5waLBkF8NTGm6Y4nzEwiVJgmys0ISgwDJYYB2zAQOcwogWLAZYV+pdDvK/QrHz3KR7/vSxF/djHA9xmg7122rfNXJHMkhGaSAIi8kaJBfQgEk/CqxwUus7Tjzb0eBm41Qd+7fNu+TbqDEWKQJABCi1vmTjqFma4G0WWQokERTi8S0w8si1suebGzS3cwQrySJABCqyFFgx8HcILueITIgvsJdMPMbft+/i5AmiKIwJIEQAQCA3Tr3KlnStGgKEQMpAm4Awr/c+WOzsd1xyPEaEgCIALntjk1MxX5Sxn4KIDZuuMR4jB2Myhpeu4PLt91oEN3MEKMhSQAIrDuWAzbPTDl/VI0KIKHHmao783etv9WGeYXhUoSAFEQbp0/9Til+CqA6wFU6I5HFCUHwF0w6DtXbtn3gO5ghJgoSQBEQbl50ZQqcnApg68B8Brd8YhiwK0MWq+U8f0P79i7U3c0QmSLJACiYN06t/ptCvgYgAsBWLrjEWFDDxOQdIyqm1Zs2dKvOxohsk0SAFHwNsyrmWGwv4yBjwCYozseUdBcAHcSjOQV2/beqzsYIXJJEgARGncApje3+r0K/DGAzoR8vsUoMaEdjJaIRz+8bNe+7brjESIf5AQpQmnDgppj4fsrCEgAqNYdjwisRwl0Y49XcvPKXbt6dQcjRD5JAiBCrfnYmsqSPnWZIv4IMU7SHY8IBAXgboJxgwzzi2ImCYAoGrfMnXQKw/g4gEshRYPFqAugH5mGuv6yLfu36A5GCN0kARBF59YFtXXsu8sZuArAPN3xiNwi4mcVYzWno6llra0HdccjRFBIAiCK1h+ByK55ky9gNq4G+AzI9yFMFIB7CMZ3L9+29z4CZM1jIV5BTnhCALhldtXRyjBjBDQAmKI7HjE+g4vyGKBvXr5t3ybd8QgRZJIACDHEuvnzSyJq/yUEuhbAa3XHI0aLWxnGGlmUR4jRkwRAiBHcMnfSKQpGgoClAEp1xyOGwfg3Ea22VNmGS3bs6NMdjhCFRBIAIY5g3fzJkyMKHybQxwEs0B2PAAN8nwH63mXbOn8lz/eFGB9JAIQYpTsA050z+TwmfFQ6DWrRC2ADm+b1Szd3PKM7GCEKnZzAhBiHIUWD0mkw5+T5vhC5IAmAEBMw2GlQlifOAXm+L0ROSQIgRBYwQDfPnXIWgT8K4DwAhu6YChfdB/hfv3Jb1326IxEizCQBECLLbptTM9MjlSDwRwDU6I6nQDCAX8Og/75yy74HdAcjRDGQBECIHPneIkSnOlMuYOZPgvAm3fEElAvgdoC+ceW2fU/qDkaIYiIJgBB5MKSnwDIAJbrj0W2wYx8r/ytLd3Q/rzseIYqRJABC5NGGeTUzDKWuUgavIsY03fFo0EWEH/oR94ZlL/S06Q5GiGImCYAQGtwxe3apa/QuZfAnAByvO57cozaAr4dNq698fl+37miEEJIACKHdrXOr36aA/wfgfQjfd3Ivg35ANr4jF34hgiVsJxshCtats6tPYpM+oZgvJyCqO54J6gDwbbsv8oNL2tt7dAcjhHg1SQCECJibjqqoNV1rBQMfAzBTdzxjtJXB13M6mlrW2npQdzBCiJFJAiBEQK2bP78k4u+/jIg+CuD1uuM5HAI9BOLvztza+eN3AZ7ueIQQRyYJgBAFIIjTCAem8v2CYCSv2Lb3Xt3xCCHGRhIAIQrIuvnTpkfYbQDThwk4SkMIigl/IaZbXENtXLFl/37dx0QIMT6SAAhRoG6ZPfWNMP0PMdMFABblcFMOQH8hxq99i3+67MXObbr3XQgxcZIACBECt8yuOpoN41yA3gbGm0CYO973GhjafxjMfyfgLxw1/ihT+IQIH0kAhAihdfOnTbfZPR5sHM3gRURUw8xTAC4ffA0BzEztIOoAeDcRP+vDfKqkYu8Ll2yCo3sf8uWaa66J9qTTi01F8xVQbQBdzLTbt7Bz/Zo1W3THNxbLly+fbJolCwA1kw2eBmAfE7WaSm1JpVKtuuMTwSIJgBCi6DQ2Nka27dz5fjAuJqL3gVE1wks3E3CXb+D2dcnkg7rjHk4ikajxFK4kwgVgvB1AZISX/ouAXzD7Nzc3N8v6C0ISACFEcalvaDiLmL4N4KSx/B4B9ypFn2ppWftv3fsAAIlEosxnugbMnwUwaQy/6jHQEjHQmEwmd+veD6GPJABCiKKw5NprSysP9DQT6LIJvI0H4k81NzXdoHNfGhoaFiumXwBYOIG36QLTpc3Na3+jc1+EPpIACCFCLx6P1zHMOwF+Uzbej8DNs2fPWtXY2Jj3pkfx+Mr3MvFth3lsMRY+A59qSSW/m+/9EPqZugMQQohcWnLttaVRx78X4Ddm713p9Qe6u6sfeeSRe/K5L/F4/BQG3QOgIktvaRBw7utfd8rOf/3r4UfyuS9CP0N3AEIIkUNU1XPwRwCfku03ZtA19Q0NDfnakWWrVs1iGL8EUJb1Nyf8oKGh4S352hcRDJIACCFCq76h4cNgLMnV+xPT9fX19XlZsCni+d8FMCNHbx/1mZobGxsjE38rUSgkARBChNLy5ctLiOnLOd5MOYzIl3K9L7HYqjcS6OJcboOA43bs2F2f630RwSEJgBAilEzLWgmMvyPiaBFQH4/HZ+dyG0z8X8hD0TaDv9DY2CjXhSIh/9BCiHBiXJ6nLUUA4/25evP6+vpKAp+dp32Zs2PHjiwWS4ogkwRACBE6mefy9IZ8bY/BOUsADMN6L4BovvZF5TCZEcEiCYAQInTINN+BvPY5oaz0FxgOE5+Wv/0AKEu9EkTwSQIghAgfhZw+kx9G5dVXX52tufkvx8jLLIOXUJ63J3SRBEAIEUa5mi43Itd1c3XhzPe+SAJQJCQBEEKEDhPl5m78cNtkrszNO1P5xN9jTPJ+7IQekgAIIYQQRUgSACGEEKIISQIghBBCFCFJAIQQQogiJAmAEEIEGINVnjeZ7+0JTSQBEEKIACNGR5432a57n0V+SAIghBBBZmB3XrdH2KN7l0V+SAIghBABRowt+dweM23Xvc8iPyQBEEKIAGM2fpvP7Rng3+veZ5EfkgAIIUSANTev+SeAHfnaHrN/t+59FvkhCYAQQgQbg2hDfjZFDzQ3Nz+ve4dFfkgCIIQQAWcSfxPA3lxvh+B/Xve+ivyRBEAIIQIumUx2EfCVXG6DQb9NpVJ/0L2vIn8kARBCiAKQSiW/D8btOXr73VBuve59FPklCYAQQhQGNk3EAHo4m29KQJ8ycFFLS8su3Tso8ksSACGEKBDJZLI3apvvBOHOLL3lbmbjneuSyQd175vIP0kAhBCigKxevbpnzqyZF4P5SwT0jf+d+PduxHhDc/Oaf+jeJ6FHRHcAQgghxqaxsVEB+Eo8Hm8BGV8G40oA9mh+l4F/GqDPp1JJafhT5CQBEEKIApVKpXYAiCUSiU8qRecCOJ+ZFxFhNgO1APoBdIDxNIDfA/4vW2SevxggCYAQQhS4ZDLZBeDHA3+EGBWpARBCCCGKkCQAQgghRBGSBEAIIYQoQpIACCGEEEVIEgAhhBCiCEkCIIQQQhQhSQCEEEKIIiQJgBBCCFGEJAEQQgghipAkAEIIIUQRkgRACCGEKEKSAAghhBBFSBIAIYQQoghJAiCEEEIUIUkAhBBCiCIkCYAQQghRhCQBEEIIIYpQZKJvkEgkLKVUHYAphmG0d3Z2tm3cuNHXvWPjsWTJErOmpqbKdd1yZi5RplllKtVWWlra/v3vfz+tO748omWrVs2MKLUAzNMMNqYpcA0xVwEAE1UDABF1A+gF0AvF+wHuJTIOKoVtSqWfX79+/X7dOyJyo7Gx0dizZ0+N41BFJOKTUmoyAChldXo2p8uJejs6OroL9VxQyJYsWWJWV1fXKqWm+b7dWVFhthXZ+Wtcli5dWm7bdpTZngwAhuFWAwAzdzHbyjDcg6lUqg0A6441W2isv5BIJCzfxzkwcD4U3g3C/Fe8RAHYDKbfAnx3d3fn7zdu3Ojo3tEh8ZcppU5hNk6GgYUAFoCxEMBCABWH+dXdINxLTL+2bfPXq1ev7tG9L9mwYsWKaZFI5DRmOpkJJ4NxEoD5AKJZePsOgJ4H8XPEeI4Zj/i+c78kBoUhkUjUeMyvBYyTwLyQwAsAWgBgGoCaUb7NfgBbAN4KNrbAUJvZp8ciETySTCa7chV7fTyxloBEPo8XQZ2aSqUezuc2gcw52WM+C0zvI+DdyJzLXjm62wHG/zHRPQb8X6VSqdZ8x6lbY2OjsWvXrgW+jxOJsJgJxzLTLALPADAHhz//D/IBtAHYw+AXDNCzzHjWN/HIwc7OJwst4R11AtDY2Ghs377zChB9CcBRY9jGVib+7wjR+mQy6eZ7B2Ox2BTAPBegtxLxmxg4CRMf+Wgn4JtdleWrN15/fV++92kili9fPjkSib4bUGcr0FsJOC7PISgQHifmPwPGnz3P/Ov69av36D4uxa6xsdHYuXPnScz0Dia8DYw3A5idw00ygGcBPEzAg0T8m6ampmez9ebFkAAsWbLErJw05QoCfwmZi/5o9ROwJhIxvr5mzZq2fB6jfFq+fHlJJFLyJkC9k0FnAPx6AOU53ORBgB4B4Y8K6g89+/f/PUg3v8MZVQKwbNWqWZbHPwH4TRPY1ibTwAeTyeTTud6pWCy2iMh8P4DzGXgrsvCoYwQvEtRFqVTqsVzv00QkEokZPvMlxHRRjo/HeDBAD4LU7SbRHclkcrfugIpFIpEo85jfM3Dn+F4AdZpDepGBe4hxj+87961fv75/vG8U9gQgFovNA0V+CvApE3ibA2DEmpuTG/N0iPJxXKYwRS4CsMQAv4OBUo3h9IBwDzH9vK/P/vUtt3y/W/fxeaUjJgD19SvfTAb/DMD0LGzvABN/uKWp6efZ3pFEIjFJKfoQg5cDeHP2D9WIDhJoWSq19md53OYRXXPNNdGD/f0fJKYVAN4JwNQd0yj4DPo/kLqdlPppc3PzPt0BhU1jY2Nkx47d5wC4nMHvx+iGPXXYD6aNbPJNLcnk/Rjjc9cwJwArGhpON5g2IvMoZqIYzP/d3Nz0RRTos+0h57orAZwJwNId0zAOgmkjQKnm5jX36w5m0GETgBUrVp5gmHw/gMlZ3KbLCue1tCR/l403W5FIvN5gfAKMiwGU5e5QHX6fCMY5qdSaP2na/iGxWGwekfkRBlZg9M9pA4eAPibc5Bv07fVr1z6nO55CV19fP5PIjIOoAbkd2s+FFwlY7/vumnXr1rWPan9DmgDEYqteB1J/QZaHshn4fEsqeV1OD1CW1dfXz4QRWTXw76x79GosniKg2ffdm0b7ec6VEROAFStWTDMM6x/DFPllY6vdUMZbm5vXPDHed2hoaDhHMX0amYwvCPaxMt/Q0nLjizo2Houteg0M9RkwLkUwM+DxUgS6i0j9b1NT0990B1NoGhoaFjPjMwy6DAX+uRhMCg3wd45ULxDGBGD58qunmxHvH8gUrGWbMojf39TU9KvcHaHsiMVi85jMLxFwJQr7M93LQMqA+p9UKrVDRwAjPgs2TOs6IAcXfwBgVDGptQDehjEOO8ViifeB8DXFeG3+DtOoTCHD+w6AC/O50eUrVx5t+vxVQF0CHvusjgJgMPgiZrooFm+4H2x8rrl57Z91BxV08Xj8JGbjq4pxPsYx2yeIGCgFY6UCNcQaEr8wwF9oamrapDuufDFN73rk5uIPAIZiSiYSiUXJZLJX974OZ/nyq6dHIu7nGLSSAFt3PFlQRsDHGMaq+nhiPZT5zXzfQA57YojH4ycxjEeQ4+fGBLo8lVp722heG4uteiuIvw7w2/N5gMaKDby9JZn8a663s2zZR6ZatvtVAHEUdhY8VgzgDtPAZ5LJ5DbdwQRNPB5fwDC+AuByhL/Rl0/g9U7E/NJNa9bsHPqDsI0AxOPxUxjGP5HjZI6Bz7Skkv+Ty22MVaZuZdfHGfgyclvFr5sHpnW+b34xXzOjRjhB0H8gD0VjTPz/jvSaFSuunhOLJX4CUn8N+sUfAMjHJ3L5/kuWLDHj8cRVlu0+C+AqFNfFH8icAD/kKzxVH098KZFI6Kr7CJQl115bGmtY+WWG8SQyQ6Nhv/gDgMmgmOWpZ2PxxNeWXHutzorvnGLQfyEPIzkEfCaRSATmnBKLrXrd9h27H2DgfxHuiz8AREDcYEa8Z+PxxOfz8Xl+1UkikUhYDDo/L7vLODkWiy0a7keJRMKKNaz8f4bpPQXCxXmJJxsI716+fHlJLt46Ho8fX1VVfT8DqwFM0b2rmpUR0OgrPFVfnzhHdzA61Tc0vKeq++CTYP4igJx89gKuDMDnq7oP/jsWW/kO3cFk29KlS8sBeneeNlfj+5TPWVTDamxsNGINK78MUv+Y4FTHQlTJwNeqDhx8JtbQcGkuN/SqGgCl1NsBozp/+2pciEx2d0g8Hj/FV/gRwIvzF0fWVBiG/Q4AWZnlAGS+DNt27PoPBr4CKsoT/OHMJQO/iTUkvltWEv1sMbU8TSQSk3zGd8CoD8dT/gkiHA3wn2KxlTeCuSosx8S2S89GXhM79V4A2upsli9fPnn7zl03g/E+XTEExBww3RaLNyw1DboqF488XzUCoMg8Jq+7SPS6of83Hk98hGH8HUAhXvwzu2Tyoom/S0YikZixfceu3xHwLRTn3d1oEBjX9valH1ixYuUJuoPJhxWJxGm+wmNg1OuOJWAIxFeDkNM7p7wy6K153R7hNF27Go/Hjzcj9oNy8R+K3usrbKpvWHlNY2NjVh/tvfrNmGfmddeAWYP/uz6e+DoDP0ChP9dWmJGNt6lvaDjLU3gUwZnqGHSvNU1+KBZLrNQdSC7F44mrDIX/AzBXdywi94izcz4ZLQZlo+nbmA0UOt4PIL83oYWhgpi/t33H7vsbGhqydnP8qkcABnhaPmeT8UBhRzye+E8G/jNvG84lgyZP9C3q44lPEON/URgd/AKDgVIQ1tTHEyce6Or8eKEtznE4iUSizGesYcZS3bGIfOK8Nrmh7HR9HZP6+pWnMvh3APL4+LkQ8ZsU0yOxhpXfKCuxr5voI89XPwIA5bl6mCgWa6hnoKC6UB12jxjjXmCjsbExEmtINBNwPeTiP24EfKSqqvpnmQKqwheLxRb5jL9BLv5Fh0H5vihOzufGGhoa3kAG/x5y8R8tG8xf7OtL/zMejy+YyBsFYKoQLwLRWoSkWQkAMPPO8fzeNddcE92+Y+dP5LlulhAusKKlf4zH44XUJvRVGhoa3gAyHwDjZN2xCJFNsVhsnmL6NfKcdIQBAycyjAfrE4m3jfc9ApAAYBKCtTpdFpj/GutvLF26tLy3r/+XAL1fd/RhQsAbGMbfl69cebTuWMYjFlv5DgW6F8BU3bEIkU1Lly4th2HehewsalSsphkKv4vFVr1uPL8chAQgbLY1N695dCy/kEgkJtnRkt8CdLbu4ENqgenzH5avWjVfdyBjUd/Q8B4i/g0YVbpjESLLKBota5FRrYnL1D2pO1etWlU71t+VBCDLCPgZxrC+QSKRqFEKfwDyPNWn+Mw2PfX75cuv1lLhPFbx+MoPEtOdmtczFyInYg0NH2PwJbrjCJG5juf/cKy/JAlAFhHQ50SM/x3t6xOJRJmv+NcMvF537EVikRnxfr9s2UcCPZweiyWWMPh2hGPBEyFeZvmqVfPB9N+64wgbAl3c0NDwhrH8jiQA2fWDVy5KMpLGxkbDZ9wC0Bt1B11kXhOx3XuuuOKaQA6r1ycSbwPhJsgMEBFOZHp+EuHv668DKUbjWH5BEoDsecK2I18Z7Yu37dh1PTi/SweLDALeUFLafxMCNvOkvv6qY0nhTkjHRxFSsVhimdQ65RKdE4vFRr1OjCQA2dEJ9i9avXp1z2heXB9PfIKAj+kOurjR++vjic/qjmJQIpGoIfJ/Can2FyE1sMpgo+44Qi4CGKNuoywJwAQx0EZQ721ubn5+NK+vb2i4gIBv645bAAR8JR5fqf1uZOnSpeWewt2ZxWyECCelaAUI83XHEXZMNOq+AJIATAThSQPqTalU6oHRvDwej88mpnUovOPuANgG4CEAvwFwMwgbGfgngHbdwU2AyeBbE4mE1p760WjJagLGVLwjRCFJJBIWMwdmxC3caN5oXxmyBjx5QuhmxtfKS6LfG20v5sbGRmP7jp0bAIz6+YwmLoC/g+h+QD0GZT5hmuqZZDLpjvQLS5cuLbessuMNg9+ggDcMXMyOR2EUstX4ijc2Nja+tbGx0cv3xmOxxOUMLNN9EITIJY/5CiKarzuOYkDgUd/QSAIwegqMvzHhp7Zp3LpmzZox9fvfvn3n/wPRO3XvxAg6CfxjZuPuaNT842hrGQZt2LDhIDKjAw8BuBHIPNP2mN8NxvsI9G4EOvGhN+7YsetTAL6Rz63G4/EFDKzWvfdC5BwbS8fQHkVMBI3+QEsCkOEz8BwBT4JpO6BaYaCX2OhjUt3E5h7HMR+/6aYf7h3Pmzc0NLxBMX1Z906+AoPwe2Jq8bz0XevXr+/P5psnk8kOALcAuKWxsTGyc+fOcxXTCgDnIZjz27+4fOXKn65fu/a5fGyssbExsn3HrluQaYUtRGjV19fPJPA7dccxSgxgD4A+AF3ILE0/CUAVCuW7qnBgtC8t5gRgGwMbofC7SAR/TSaTvbnYyNKlS8sV063IfJCCQAG4E2x8rTm1ZsxrFozHwND6rwD8KpFI1HgKKwj4BICZug/GIAZKTcVrAZyJPNyqbN++80sgerPu/R6HHgaeMsBPAfSUIt5usNHDjB4if79PVGEoqmCDywGjjsDHgPlYgI4DMEd38CL/iCIfQgDrngjoY/BfwfgrG3g0QrSps7Nz+8aNG53hXl9fX19pGMZiRXQiKeMNIH43AK31Q8My0DHalxZbAsAA/4IV3TB37sz/a2xsVLneoB0t/SyARbp3fGD3/+Qb9LH1yeTjuiIYGBn4n2uuueZ7B/v7lxHTZwJzfBjvqo+vrG9JrW3O5WZisVWvA6lCKYhiAA8Q8Dtm4/dz5kx/cLy1EolEYq5SdCaAMxl8LmTKY3EgLNEdwhD9YNzJBt/WXVHx+43XX9832l9saWk5AOCBgT9NABCPx49npgtBtBzAMbp3DgCg+B+jfWnxJACMewyDP93U1LQpX5usr79qIeD/h+5dB7CHQJ9OpZK3ICAP4gaKJ5sSicR6j2kVMX8JAbggEPh/Vq1a9cux1niMaRNQ30PwCyR3EbCe2V832imuR5JMJrcBWAdg3TXXXBM92N//frBRT+CzEcA7RDFxy5cvLwFwiu44AHSC+btKeTeuW7cuazOXUqnUUwCeAvD1+kTibYaiVQz+ELReW437R/vKYkgAdhvEiaZU06/yvWHDUP/Luru6EX5tEpYnk2tHPSyUTwOzC74fi8VuITIaGfQR6L0YVLu++k8An8zFm9c3NFwOxrjX786DF8D46pw5M2/J5ayIgQTwDgB3xGKxRTDML4JxOYKfGIkxiEQir2W9NT+KwD9kVo3Nzc37crmhlmTyrwD+GovFPs9kfpKAOICyPO/vvu6qsr+N9sXhTgAIG920ddV4i/cmor6h4Sxmvkjj3rtM9J8tTWuvR0Du+g9n4Mv5sfpE4g7y0aK1KQ7jqmWrVn17tOs6jNbVV19d4TjeNwP6j7GHQV+IGHzT4aZ85sLACMOyRCJxnVJ0HUPr90ZkkSLzDcTaPvG7CerKVCr1h3xutLm5eSuAjycSiW94Co0E1CNf11qilrE81gjrsFs7GJc0NyUv0XHxTyQSFoFu0Lj/B1jhvJamtd9BAVz8h2pJJv9qmngtmHROjyuxPPX5bL9p2vU/x8Asjfs1HAZTk22ZJ7Sk1jbn++I/VDKZfDqVWvsBAl0MYLfuAyMmjsCaGlzRA6y8U/N98R8qmUzubkklV5oGTgTh13nYpMe+ceNYfiGECQA9QFCvb25ObtQVgVK0AowTNG1+N9g4vaUl+Ttd+z9RyWSyt7l57UcItBRATmZnjEJs+apV87P1ZvF4fAGYc/JYYQJ2KOJ3NTevTdx4442duoMZlEqt/ZltmYsB/Fh3LGJimHGUhs3+sqzUfmdLS8su3fsPZBLb5qbkeQRaAiBnMTHRNS0tN744lt8JVQJAoDu6u/adnkqlduiKQXPLy1bTwBnNzfmZ3pdrqdTamwnqzci0Ic432/TVf2XrzZjNTwGIatiPYRFwr/Ld169ravo/3bEM58Ybb+xsTiUvBfOnAfi64xHjQ/ke8SI8ycq7YrQdWvMplVr7E9PACQOjm9mdgcZ0Q0vT2jVj/bXwJACEDV1d+y4faQ5nvniKlmla8KIDbJyVTCaf1rn/2ZZKpR5zI8ZbADyR940zliYSiRkTfZtVq1bVEvGKvMc/4m7hG11dnedmsxo6V5qbm/6XQO8BoVt3LGIcCNV53RyrVQPT9QIpmUx2ZUY31VsBPJaFt2QQfWXOnBnjGl0MSwKQmjNr5vKNGzfqvlMggD+lYbtpg/j9zc1r8n+RzIOb1qzZ6XvO2xkYdXVrlliewoQv3K7rX8NAaZ5jH44i4OMtqeRnA/BdGbVUau3voYyzAQTmMYUYJc7rLKhHU6nUX3Tv8mikUqkH5syeeQoYnwRG37hnqMxKtHRRc9PaL423p03BJwAEuqU5lUzko6nPkdQ3NJxLwHEajsFVTU1N+b445tX69ev3Rwy8d2AFwrwhRkNjY+O4vydXX311BYiuzmfMI3AJ9OFUKvk93YGMR3Pzmn+AjTMxzpOlCD8CZ+OOOm8aGxu95ubk9ay8hQw0ItOCeDQ6CPism+5bmEqtvWsiMRR6AvBQV2VZAwJS6U5MH8v/RrE2lVq7Tve+50Mymewi9s9FdobORocwf9vOne8e76/3O14c+hdCYiZekUqtvVlzHBPS3LzmXwR1LoAxLVYl9GFgf762pYLTbn1MWlpaDrSkkl+eM3vmLGXgTWD+GoN/MjDi+TxADwD4JZi/CabT58yeOSOVSn5jYBG2CSnkPgCtyo98YCxzHnNpxYqr5wDeOXne7DMm5aZhTVA1NzfvW7Hi6vMM0/sHgOn52CaBEgDuGevvZZaA3vWJPB+iV2GiT7U0JW/RHUc2pFKphxsaGj6omH6JAj3hFxPKJAC1+dkWnROLxabkuuFPrgyMYj848CcvCnUEwGMDH1y3bvV23YEMItO7FPk9nj4rujJXixgF2bp1q7crAxcCyOoKhiNinFdfXz/mhYt27Nh9JoB5+T06r4ydbhjoBxEaTU1Nv2XihO44xChwXus2phKZP1ty7bVBqLcpCIWZABD9z0DbxcAgwhV53SDT2paWtQ/p3m9d1iWTD4I4X+ssRAwj8v6x/hIz1+f5sLx8+8A/u7v3fUZnDLnS0tS0HsCPdMchjoA4r43YGDi96kDvb5cvXz5Z964XgsJLAAhPlpXYX9YdxlANDQ2LwTg5j5vssG3jC7r3W7fmpqbVINyZj20x4/yxvP6KK66pAuFCHcdlwAFiX/u02FyK2pGPgvGc7jjEyBikoTCP3x6J2H+ur19ZiMtt51WhJQA+lLEiaE0eFIy83v0T8I0gdW7TSXluAkDu7zII71q6dGn5aF9eUpI+DxoXgmLi/8jWKn5BtXr16h5lYimy3VRFZI0BeljHdhk4kQy+PxZP/LShoSEYy/QGUGElAETfam5eM+q1jvMVFRRflsft7e6qLNfZJz9Q1q1b1w7mfAxzl9h26dmjfjXhYn1HhR6eO2tWs77t58+6ZPJBlkcBgeVFSOdjSgLwAcX0RCyWuC0ej58x8HdiQMEkAAQ80r1/X6PuOF4pFlv12rx2/mN8NygzH4Kiublp3cBUmZwi4vNG87qBNdDP1XQ4GEwfD0JfjHxRXuRz0ikwmNavWbMFgO6OkxYIlzKM+2LxxHOxWMNnx1PUG0aFkgD0AurKID7PJFLjniM+5m0Bfa5rFcWd3Rgxwc/66n2v2gjofRjFHUQkEn078r8OeAbhJ83Na+7Xsm1N1q9fvYcZ39QdhxjR3boDGOIoEF1HRmR7fTzxj3g80djQ0PCGiTT7KmSFsdOM/5dKpZ7SHcbwoXHeEgAm/ETH8saFILPsJ/8px5uZnkgkFh7pRUzIdz+IQ4hVUV4IleesBhDYHvBFjel23SEMwyDgDQx8STH9Y/uOXbtisZXrYrGG+oaGhsXFkhAUQiOgh+bMmRnIZ96ZoV7KW6UpBfOLFBxMN4DwzlxuQik6FcALh4+Dz9Ky+6A/NKdSWoqudFu/fv3++ngiSUC+poaKUTJNvs9X6ABQozuWw6gD8XKAlisGtu/c1V0fX/mQAX5AET8YIbonmUy6uoPMtqAnAMogvjqozzMty3q94rwt8brfMPj3uvc5yLq7O39ZNal6O4A5udoGE07FYdapr6+vrwRwoo79N4Bv69huULAfuYFM7+MI/nmtqCSTSTceb/gJg1bpjmXUGFUEPoOBM4gJPuP5+njDP4npn2zinxHgkTA0YQv0MAcDqaamprwu/jIWSuEtedsY4U9hzECzaePGjT4IP8ntVviUw/2UyHojAFPD7u/p6tr3Ww3bDYx161ZvB+EPuuMQw+HvASiYFSiHsYhAl4HwHVL4i6/QFWtIPBqLrUzWNzQsX7Zq1SzdAY5HkDPlgwbUF3UHcVgGvTGfyxDF4yul/ekRMDi3/eEZr29sbDRGGpUi4jfpWJmKwBsLaYnfnB0HptsZrK0GQwwvlUo9VR9vuINA+ZwynUsRME4G8cnE1GB5CrF4YhMIv4Oi35km/7kQRgiCnAB8N5VKteoO4rAYJ+VxWxcy+ELduxx4ub/6Ttq2rfVoAM8Mu3nCyTrWplTKuC3/Ww0ez0v/3IzYNwJ5ezQnRskAf5VBH0LAR54nYDEYi0F8ra/QH2tI/BmKf2zbkZ8HtXFbUP8h9vme87+6gzicgQUnFumOQ+QfkX/8SD9j1vL8v7WlZW3O+yAUgvXr1+8H4f90xyFebWAm162648iTEjDOAVGz4/q7Y7HEXfH4ysvG0k00H4KZADDfsH79+v26wzicioMHj4eeZ71CMzZo2CLD5cuXl5COpJDxV+Rj7KNAEOPPumMQw1O++0kG2nTHkWdREC5g8K12tLQ1Fk9sWJFInKY7KCCYCUCvaVIgp/0NZfg4SncMQg8Czx7u723bng8Nj9WI5IL3ckqOR0CtW7euHcQNuuPQqBzAlYbCA7H4yofi8ZUJncsXBy4BYCCVTCY7dMdxxDjz2f5XBAozzxnh7+fpicf4i94jEiylpaX/ANCvOw4xvJampl8QeI3uOPTjUxi8turAwRfr44kvxePxunxHELQEQEGZN+gOYjQIWKA7BqEHMY2QABg6EgC/rMx6UvMhCZTvf//7aYIsExxkhkEfI0itxoDpBDQCxuZYbOUP4/F43q4tAUsA+L6Wlhtf1B3FaBBouu4YhDazh/9rzv8CI4ztQVseOwhYEoBASyaTrmHgg2D5dxrEQCmIr2YYz8YaEmsSicSMXG8zUAkAwUjqjmG0mHma7hiEJoRhm34oHa1OieUEOhzC87pDEIeXTCY7iNQZOFJr7eITAWOlr/BcPJ5ozGWNQJASgFbD4Lt0BzFqBEkAitcIzYZ4St4jISqIEbO8U5DjUgBSqdQO04AkAcMrZ+BLVQcOPhaPrzw7FxsITgLAvL7AWt1O0h2A0GbYAjMCVWuIpUvzsQgkItqvOwYxOslkcpvy3TcD+LvuWAJqEYN/F483pLLdRyAoCQADKqU7iDEq0R2A0Gbb8H/Nef9MEKNH98EIKFkauICsW7euvbuy/EwwZMXTETAoZkVLH2poaHhttt4zIAkA/7O5ubnQntlpm7spNCPcOcJPcrsOwTCUXOiGxZIYFZyN11/f19ycvIyJroJM4xwWAccx099iscSSbLxfIBIAJuPHE3+XvMv7yV4EhKK/DvfXDLLzHYoByAyAYZFcQApUS9PaNQR1GoBHdccSRJnZAvhxLNbw2Ym+VxASAMWeuVF3EONQSPUKInvSgHf/cD8ghhrrm2VBmebjEUjMKu8915UySfd+h0UqlXrMNPBGAr4ASXKHQyC6Lh5PfGsibxKEBODJdetWb9cdxDg4ugMQ+Ufgm5ubm/cN/0PS8Zmo1HtEAsrkvB8XIgrC+TQ0ksmkm0ol/5ugjh+oDZD1Ll6BgU/HGlZeN97fD8AHlgo1u5MEoPj0E+EwGTfn/TPBnP8LXYHQkAB4ATifhk8qldrc3Jy8zCA+DZB1L16F+bOxWMOnxvOr8oEdv/26AxB5xvh0U1PTs4f5+cG8x0RUq/OQBBWp/B8XGQHIraampn82p5KnM/H7ATyhO55AIfpGQ0PDu8f6a/KBHTfeqzsCkUeEtc3NyR8e7iVMyP9ngnG0tmMSZJT/4+JLApAXLU1Nv2hOJU9ihTNA2AipxwIAUzHdlkgkxrRKrXxgx432Tfw9RAFgMH+tuSl5FY7wDJKI8p8AEI7RdWACLu/HhXxJAPKIW1qSf2xuSl5iGpgHov8CUIi1ZNlUrRSaAYy6GFU+sOPEwG7dMYicewxsvL25uem/MIoCJGZu0xBj9YoVK6Qt9avlPwGQEQAtksnk7uamtV+bM3vmfIJ6BwHfBbBVd1w6MHB6PJ5YNdrXR3QHXMCK8gNWBPoB/i3BSM6ePeM3jY2No57aZ4C2sYZC5UgkchqAX+V9wwG1bNWqWfDUnIm/01hJEaBOA9/Vvwz8uba+fuWpZOIDYL4AwGLd8eULA99MJBJ3JpPJI96kSgIwTsTYMvqBluxhYB3kmVfWEFMfoPYRUTug/tXV1fXIxo0bx1nN72/VMaimYJwOSQAOsVx1uo7vppIRgEBpaVn7EICHAHxu+fKrp5umdwYI7wJwBoCFuuPLoUpf4b8AXH2kF0oCME5s4gXS0PaF2FjT3LzmH7r3Xwxrs46NMvPpunc8WOidWqaMSw1AYK1fv3oPgFsH/mD5qlXzDY/fQYzTiPhNDJyEcF0P47FY7DtHarEfph3Oq6hpbnKUn/ftssFvAyAJQAClUqnWWDyxF8DUfG6XgNctW/aRqTfd9EOZmQIQiM/SsmEZASgY69es2QJgC4CbAGDJtdeWVh48eAqY3miwOoGZXgPCySjcRd8skPk1AJce7kWSAIzTjTfe2BmPJ3YyMCuf2yVW5wL4ju79FyPhxzN3oHkViUS9JQDW6N573VYkEm+EwgId2yaSoupCtfH66/sA/HXgDwAgkUhYvm+8hg3/VDCdSsAbALwGhbMOzCXxePy6VCr12EgvkARgAhj8b4DymgAAdHoikZiUTCZlHfgAIuBxBt6Z9+0yXwZJAGD4dBlIT8dYIiUJQIgkk0kXwL8G/jQBwNKlS8utkpIzCfReMN4LQEOx6agRw7gGQMNIL5AP7EQwHtSwVdv3caHuXRfDY8Y/NW36bYlEYq7u/depsbExAuJLdG3fl/Np6G3YsOFgS1PTL5qbkquaU8m5BHUyAZ9l4G8I5loFlycSiUkj/VA+sBNAZPxdz4ZRr3vfxUiUns8EYCiFj+ree5127Ni9BMAMXdsnJTUAxSaVSj2WSiW/0ZJKvhXsH8PAVwnYqTuuIcqUog+M9EP5wE5AX5/9IID8VwICb6+vv+pY3fsvXq25ufl5BnQ0BAITVh4u2w87Bn9G5/alCLC4NTc3P9+SSn7RMLAAjCsAPKo7JgBg4hELAeUDOwG33PL9boB0DPkSDP+TuvdfDM8A/UnLhhlVvo+Vuvdfh/r6xDkAXqs5DDmfCiSTSbe5OXlrcyr5egJdDsYWrQExTl+6dGn5cD+SD+xEEX6nZ7NYtnz51dN17754NQU9nwkAAOHTV111VbXuY5BPjY2NBgx8TXccSooAxctxKrX2NmbvJBDWQl+NQNQqKXnHcD+QD+wEGVC/1bTpEtPyPq97/8WrGfB1fSYAoCbt+o26j0E+bd++c/nAFC2tSM6nYhgtLS0HmpuSq5SBN4Pwbx0xkMJbhvt7+cBO0KxZsx4AsEfLxhkrY7HYIt3HQLxcKpXaAY3P/wi4uqGhoSh6n19xxTVVILpOdxwAACkCFIexLpl80CS8BYRf53/rdMpwfysf2AlqbGxUBL5T0+YtkHGD7mMgXo2An2jcfEQpak4kEoXSsGTcSsrS1wOo0x0HIEWA4siSyWSv09/3IQAv5nXDNPxiSPKBzQJmQ+PJnt4bj6+8TPcxEC+nlKkzAQAIp/k+f1X3ccilWEPDpeDgTIlVcj4Vo7Bhw4aDBMp3zcqsxsbGVzX+k06AWTBnzow/bt+xazs0dYVi8PdXrLj6r+vWrd6u+1iIjJaWG5+JxVc+DPApE3+3cSL6dH1Dw70tTU336j4e2VZff9VCsB+szodSBDgqjY2Nxvbtu8+BweeAcQqA4zF4LWJ0MfFDxHhQKevHYT2ndVWW3V514GAS+bsGmy/u2VOHV/QokA9sFjQ2Niow/0hjCFMN0/txMQz5FhRSLZojMIjpxytWrDxB96HIplgsNoVM/5cAAtXzgJScTw8nkUhY9Q0rr9m+fdfTIL4HjGsBvAPANADVAKpBmE+gD4LofwzTeyEWS9wWj8dP0h17tm28/vo+cH5XD404VPHKv5MPbJaYJq0HoGGB4EPe7CmsBXSshC6G47vurQT0aQ5jimHyb+Lx+GzdxyMbllx7bSlg3gVGAJMaqQEYSX39ypN9xqPE/D0Qjh7lr1kgXMowHqqPJ76EkJ3biFCWz+2Zplf6yr+TD2yWJJPJFwD+jc4YCFhRH08EoyJaYP369fsZuEV3HADmMIzfrFq1qlZ3IBOxfPnykqoDB38Mwtt0xzIcKQIcXkNDw3lk8N8mkLRZBDTGGhI/C0uny0QiMYmBmXnerPvKv5APbBaxIu0V+QT850C2LALAIP4f6B0ZGrTY8dT/1dfX5/ukkxVXXHFNlRmx7gFwvu5YRqJkOeBXicdXnq2Yfgpk4W6XcaGv8FBDQ8Nrde/XRHlMy5DnEQ1m7n3l30kRYBa1tCR/H4snNgHQOgebgMZYrIGbm5u+ovuY5FIikahRis5kwslQmAFStZn9NzoVeK8BesDzzD+uX79aT58GAE1NTc/Wxxt+RqAP6j5eBBwHI/Ln5atWnbV+zZotuuMZrXg8Xgek72bQ63XHcjgEKQIcKpFIzPUV/xiAncW3XcRMf6tvWPnJlqa1Orvrjdvy5ctLiPlj+d6uYRj7Xvl3kun/QqsAABJRSURBVABkF4NxHSgAw75EX47HG2oMg/5jYF3rULjiimuqSsr6VxDTMl/htQAbYAzk0pmEmsGgzH8/ZkY8xOINf1KExnVNTf+nJWhlfBMGa08ABhxleuqfsdjKS5ub196nO5gjicVWvRVQP2Zglu5YjkgaAb2Mn6lJynpbagZKifnGeDxxsRcxGgopmQUA04x+G+B8N3DrSSaTXa/8S/nAZll3d+ePATyjOw4AYNA1vsK9mTuogkf1DStXlZSmXwDTdxl4PUb9+aV3Gkx/isUTtycSibwW3gBAS8vahwAE6WJbA+Lf1scTn0aAC6tiDQ0fB6k/FsTFHwDJI4BD6uMrlwE4N5fbYOAs01OPxeOJjyxZssTUvc+jEWtouBTEV2vY9Jbh/lI+sFm2ceNGH4wgDb2/AzAejsUS79MdyHglEolJsXjibmK+EUDNBN7qQ77C7TpOFkz8jXxv8whMAr5VH195b9DaSdfXX7UwFm/4HZi+C6BgprZKI6CXEPg/87SpSgZ+UDWp+pF4PH6G7v0+nHh85QfAdJOWjTOeGO6v5QObA83NydsAvl93HIMYmAXCr2LxxC0rVqyYpjuesVieSJzoK/wZ2bubOL9q8pS8X4xbmpruBeOefG/3SAh8BpH5WCzW8NlrrrkmqjOWJUuW2LFY4jNk+I8DdLbuYzNmMgsAABCPx9+OTHOffDqJYdwXa0j8PB6P53vbR1Tf0HAJg2+HpoSWRliESD6wucEE/jiCUf091OWGaT0ViyWuXb58eYnuYA7nmmuuidbHE18xFR4GkN1GIMyfisVW5nR4cjiGwZ8A4OR7u0c8HEApiK7r7Us/V9+wctWSJUuyWbR1RIlEworFEvGqSdXPgvBNZKNiXANSUgSYQZdr2zTjQobxRKwhcUd9/cqTdR+J5YnEibF4w6+J6cfQOpqlhr0hlQ9sjqRSqYcB6O4EN5ypIHzHjNjPxmKJeNC6By5ZssSub2ho6O1LP0nAfyFHXxomvj7f+97U1PQsmK/P5zbHaA4x31g1qfrZWCzxmUQiMSOXG1uxYsW0+njiE77C0yA0AZin+wBMjIwAAACDTtUcggHGEjL4X7F44hf19YlzGhsb8/pvs3zVqvmx2Mp1psKjAL1X58EgoK+0tPQfw/1MZgHkkBUxPu96agkC1rJ0wBwQmnyFL8fjiTWeF2nSOV1u1apVta6rrgDhWnDu11Qg4Dil6AMAfpzP/YxGra+lHW8p8t8EZCzmgfBNX+G/6+MrfwNStxvM96ZSqdaJvnEsFptCFDmDmS8F4Xxkd4qYVlIEmBnN8RVO1B3HAAJwPhk4f/uOXZtjDStbXJPW3bRmzc4Jv/MwlixZYlZWVp9pGLSKPXUBCIEoTGTG3d///vfTw/1MEoAcWrNmTVt9PNFIQJDv+mYy8BUz4n0hHl95pyJ1R4TonmQy2Tvxtz68RCIxSSk6VwFXup46F5TfzyODlyPPCcDq1at76hsaPkNMN+dzu+MUIfB5YDqPQRyLJx4H0x+Z8DgxPQ24TzU3N+8b6Zfr6+srAetYInU8DHoNmN8J0CkMNoM792D8pAgQUEpNAQyttSQjWADmr1oefzkWX/kPAv+K2bi7uXnNo5hAL4Grr766Ip32ToeBc8H4IIDpHLDWBGzwbSP9TBKAHDvQ1fn9SZOqL2TgdN2xHIHN4EuI6RKf0Vsfb7ibmH5LpO5PpVJPZWMDy5cvnxyJlLxWQZ0O4Bxf4Y0ARzReC85KJBJl+Uh2hmpparo1Fk9ciRxPk8oyAnASiE/KtFxgACbi8USfAg4Q0ANQJ8CVAAb/VGCwSQMPvkV4SStgwPNsMiOe7jAOxwD4TQy8CaS+FosndoPwCDMeN0CPAf4mpayeaBSdvu+nk8lk7xVXXFNl2z3RSCRSy2zMU4S5BH4tGKekHe9kEKyAXfOH6lKu++uRfigJQI5t3LjRX7Hi6qWG6f0bOWiKkSNlmRW58EGGgVg80Q7gAQaeBdHzBuMFItXu+5FuIN0fjUb7Dh40jEhETQJgccSfbPiYQYS5TDSHGEcx+LUAFjBUkC4DERc4EcCDed4uE9RyhvFvAAXdo4GBUgJKAdQWYFO27JIiwEI0A4z3EfC+zJ27ATJ8OAOt02LxBIA0AAuKAYAzuW+BYOBn69ev7x/p55IA5MG6dau3x+MrEwzeqDuWcZoG4HwCAM58TZgJZPgAInBcH5btH3oxKbx008dBGxB7OWI+HvlPAJBKpVobGho+rJjuQdhvjYuEjAAA8+fXtm3fsasHQMWE30xMnKLVh/tx0X9g8yWVWvsTAjfrjkO8HCnSlgQ3NTX9loHv6D4GIjuYqOgTucbGRgXwk7rjEAAIvx7oQjoiSQDyKJ3u/zgC0iZYZBCRP/F3Gb8DXZ2fA+hh3cdBZAFzIKq+dSMNI2piGMo4YkdaSQDyaMOGDQdZme8HsFd3LCKDmZ7Vuf2NGzc6psEfAtCu+1iICZJHAAAA3yD9i6GJ3zQ3r/nHkV4kH9g8a2m58Rk2cCGA/om+l5iwtO/3a7/7TiaTLxDUBQDyOhtBZJkUAQIA1iWTDzLwtO44ipgDNj49mhfKB1aDlmTyrwRajqIvm9aLQX86XIVsPqVSqQco00JV6yMJMX5SBPgSIv6y7hiKFQPXNTeveWI0r5UPrCap1Nofg5GvFbPEMIjxXd0xDJVKrb0LjE/ojkOMjzQCeklzU9PtIPxRdxzFhoDHD3R1fn20r5cPrEbNzclvEfj7uuMoSoRfNzev/Y3uMF6puTn5AwL+R3ccYuykFfDL+QatBLBvwm8kRstViuo3btw46gXH5AOrWSrV9HEQ/a/uOIoJATst06jXHcdIUqnk/wMFun20GI6SRwBDrV+79jmwcQEBfbpjKQYEXHukaX+vJB9Y/bi5ae2nwfwl3YEUiXbfp3PWrFnTpjuQw+DmpuQnGWjUHYgYPSIpAnyl5uY19wP0QQBdumMJNaamVCr5w7H+mnxgA6K5uekrBHwUgNIdS4htZmW+fd26tQXRqKQllfyyfCYKhzQCGl4qtfZusH8ywEeclibGjoG/lZXZ14zndyUBCJBUKvlDMFZCKsFzgB4mqDe3tNxYUI2YMp8JboB8JoKPg7H8axA1Nzdv9T33dAAp3bGEzBPsuxeOtNzvkUgCEDDNzcmUQfw+APt1xxIWBLrDSfeeno317HVobm5qIdDFAA7ojkUchhQBHtb69ev7m1PJBjAvA6FbdzyFjoDHle+esW7dunE3EXvVB5aY8r2Wo5vn7QVeU1PTb1mZb4K0DZ4oH0T/mUqtvXTDhg0HdQczEZkpgsZbALygOxYxPGb05OJ9CZyT9z2MnG6vublpg0k4EeDf53m/QoOAx33fPXMiF39guASAeE9+9yTP2ysQLS03PhO1I6cCuFl3LIWIgJ2scHZz09pvIiQNl5qb1zwB9t8Ixi90xyJejRg7c/G+zNid513J+Tk5mUxua041vRuMVZCRrbFh/NUwMKE7/0GvSgCYOScf4hH3JUdfmjBYvXp1T3MquZRA9ZAvyRjwXY5jndzSkgxdI5Lm5uZ9zc3JC0H8CWQWKhfBsSMn72rkOwGgfG2Pm5uTa/2IcZKMBoxaqru788xkMtmRjTcb5pmVOaoWgtligB7L5/YKUSq1dp0fMU5i0B90xxJwHUx8ZXOq6cKbbvphmBdc4uamphsI6o0A/qU7mEAibADw5zxuUfl+5C+5eWf8PY/7Ac5ztf76NWu2NKeazgHjIsgjrpF4TPSx5lSyYSyNfo7kVQlAc/OafxLydleuPM+U4cxRWL9mzZaW1NqzCNJdaxgMwgbluye0NDUVzUpkqVTqMdPAaQR8ETIakMF4Dv+/vXOPkequ4vjn/O6wwNItoRS3WXmViqWBVNK0oY1SK6l9iQ9i1jStXZeZuXcXKxpSE3xEO5E/rK2JpsSmc+fO7CTalIJUwBdg1LTxASm0qY/aWrWFXYXYlG4XWZadvb/jH4vamN2yy86dO8vez5+zN/ecc+/snd8953vOT+XmYsFvE9heO7McKJcfiSR1rjq0lxreX4P9Sa1svZVi0d/VOHP6ckS+QJLx/C8Kz1jDqlIhX/WpsSOpVhX0ydqEJr+O6p/mAkWDIO87hisZbqdJ+sOVg9ZwQ7Hgt1WjJjbZ8H2/EgT+FjRcARrLg7tO6FfYEoaDVxeL+Z8Pf2R3UyORsSiPR3XuUql0UpFapchPGGOiyWSMga1bt54pFvLfCIdS7xa0yNQWifcieu/C+S3Xd/n+s1EYGHFwRXtn52JnyL4ITI8yOrXcWir5+6O0cSHjuu5Kq/J14La4fak5wguicn8Q5HdygYj8qoHrumutygPA8rh9qREVQYvWhltKpdI//v+PmaxXALKReqC82tg4fdn59mKPBdd1r7MqBxnlmV0tBL4YBP4DUdoYD+2dnYtTQ+FmRdYT8e9RHVFBKIWVVC7qF+RRv0zprPdNgfsitL23GPi3RxncVCGb7bzJol8RdE3cvkSO8DyWBxcsaNmWy+WSDMgItLa2OhdfPOeTQA5hcdz+RIRF2R6m5KvlfP7l0Q46+zLzB2BWVI4Ick8Q5CPv1slmO55Q9BMRmjg+eOb0u+qxZTadTreIOPch0kGE9zJmLLANDe8vFot/qYXBURcAnufNHrIcEFgWgd3XHcMq3/cTwUcVWe95qxwrmxX9CFxQU8lCRX4qyrf/l95NOBee500LQ70Tkc1cOBmBkwpdKcPDY31+ZDJuGpFiFM4o+ngpKNxNDbJQ6XS6RUzqGaAlilAEWRcE+d1RxzERPM+71Fo2KKwHLo/bnyoxCGwX7ENBENRUFP+26aT2jo6lTqgHgEuqGawVvaWrUHiqloFOJTzPWxhaPCADXBa3PxPgFYGuMEyVu7oe6Y7bmUmMZDIdt4JuQPgQk3Nx+FdUH3UcKfi+P+6NZTKZDh9Rt5oOCTxrDKt93++v1UVwXfc6VXlKYWZVTyzytWIhP5k2JJN02rtJDGmBj1f9etSG1wDfMXzH9/1az3oAxlBPSqc7bsDoLoF3VMHev1S0rVQo/CCOYKcauVwu1d197GaM3nW2xeaiuH06J8rLoE+qmu+XSvnDJPX9qrJ+/acXmFT4KVTvAq6K259z8Dqw3Yh+r1Ao/JYJfBdyuZzp7j72aLUWAQq/aUiZdXHsKpnJdNyG6DZgdpVieXjh/JZNk7Wk5nne7DDkThXaBK6nvkfcD6LsVaOP2UplT7lcHojTmTEJSjKZzCLE2QNcPQFbfwsNHyv7/u/jDHiq0t7ePsNMm/YBsWYt6B11VBs+hnBQlP3GsD8pC9UO13VXqkqrwh3Ayrj9AUB5FcM+rPy4r+/Evmr2PAOScd3PMiySnHH+Z+G7jTOmu1GK/s5FNpu9StXsRlg6gdNUBPlMEOT9uOKI4Lo0q5oPI7oWZA3QFLdPQD/wNMouCHcUi8W6aeMes6J048aN0/v7BzYi8iVgzjgs9IE8NDjQ/616FJdMVTKZzCIwN4JZjXAN6Aqi7vqAfwp6SJHDiB4iDA+NpNxOqD3ZbHY+OB9U9P3AamBJjUz3gB4W5BfWOvtqsVuj67rLrfIgyO2MT1X/O0E+HwT5upha53leYxjq585qPMaTDVBFdzrClwuFwp/jjiMqcrlcqqen51qLWSPoexW5tkqZ7HNxBvR5lF+C+VljY8Ov4lwsvh3jbinJZDKXYMw9orJO4X2MXE8cUuRpEbvHEXmsWmMLE6JjuFxwfJmacKlRWaIqS0DnIzoX5FJgLsP3ehbQAAwAp4FTDItY+kBCsCcQOY5yVEV6xGp36HCUwcHucrncG3ecCWMjm802W2veI8JKDCtUuUKGFwXnqyk5BnIE9IjCn0Q5FIapw3HOATnbRusBtwBXjHJYL/AjlJ19fW/8cMeOHXW3LXNb271zGxoqd1vko4LeCKRGOk7hRRH2WOGJqPrK6x3P8xaGIdeIsExVrkRYBroIaGb8pYN+4AhCt6i+BOY5EfuciPzR9/1JMb9gQj2lGzZsmFOpVJaoOi2gzcCbqtKTSukL5yPUSUhIqG9aN22aOefUqXnW2nmqzjzQJgARmWPFqljpBRlQY0878GbFmN6mhoaj9foG9B/aOzsXOxVdqMZeJpaL1PCGA69Mpoc5nO3eGpLFxvBOhn/UBqzY13Ro2kuJkHZ0WltbnaampmaRhmY14VyjZhbQyHAJ4SRQsWJ7FSoqcsIJw7/XUyo/ISEhISEhISEhISEhISEhISEhISEhISHhLfwbdldwolE4RbEAAAAASUVORK5CYII=;" parent="dNxyNK7c78bLwvsdeMH5-11" vertex="1">
          <mxGeometry x="398.5" y="620" width="80" height="80" as="geometry" />
        </mxCell>
        <mxCell id="pnSuQXYb4ILXROEF6l5I-64" value="" style="endArrow=none;dashed=1;html=1;rounded=0;strokeWidth=2;" parent="dNxyNK7c78bLwvsdeMH5-11" edge="1">
          <mxGeometry width="50" height="50" relative="1" as="geometry">
            <mxPoint y="720" as="sourcePoint" />
            <mxPoint x="721" y="720" as="targetPoint" />
          </mxGeometry>
        </mxCell>
        <mxCell id="pnSuQXYb4ILXROEF6l5I-65" value="&lt;b&gt;项目部署&lt;/b&gt;" style="shape=hexagon;perimeter=hexagonPerimeter2;whiteSpace=wrap;html=1;fixedSize=1;fillColor=#76C1F3;" parent="dNxyNK7c78bLwvsdeMH5-11" vertex="1">
          <mxGeometry x="18" y="740" width="96" height="100" as="geometry" />
        </mxCell>
        <mxCell id="pnSuQXYb4ILXROEF6l5I-66" value="" style="rounded=1;whiteSpace=wrap;html=1;fillColor=#d5e8d4;strokeColor=#82b366;" parent="dNxyNK7c78bLwvsdeMH5-11" vertex="1">
          <mxGeometry x="128.5" y="740" width="534.5" height="100" as="geometry" />
        </mxCell>
        <mxCell id="pnSuQXYb4ILXROEF6l5I-70" value="" style="shape=image;verticalLabelPosition=bottom;labelBackgroundColor=default;verticalAlign=top;aspect=fixed;imageAspect=0;image=data:image/png,iVBORw0KGgoAAAANSUhEUgAAAEsAAABLCAMAAAAPkIrYAAAAAXNSR0IArs4c6QAAAARnQU1BAACxjwv8YQUAAAAzUExURQAAAACf/wCl/wCj/wCi/wCj/wCl/wCk/wCk/wCk/wCk/wCl/wCk/wCk/wCf/wCk/wCk/25zK9cAAAARdFJOUwAQMFBgQH/P7//fr4+fIHC/+FTYegAAAAlwSFlzAAAXEQAAFxEByibzPwAAA89JREFUWEe9WNu2qyAMLN6watX//9qdSYJKJFZ71jrzUop2yGUSoK//iVBVddM0davff0Wou9i/E4Zxan5jDO0nKkmGadYXbiMsB6I+rnHQMWFt9KVbCJ16tnZtNQedrMhjmX5PMvUdYWKmfu0qndkRmpHJ+nu2texOv6g5ZyzMFm/EbYFRF0yAsH1zNMCF/nuuOpBF/VJGC6PiOUxnVIhEvLC+AtV46d6OD707uMsyVadfvgNR6x0ymH0z14LWJZtBVeuXe2CyQkgCNP2MSshGHR8w0fTt0tgAspMBmPzo+AmQTROysF6q5eIJRXnQsYLy66WXEjy9R7cS4FCmo5mU5QVL24ZbVxToXocM8rqUW4IyAd5i5OWiQ8JMbxb1HhqU3XutEWJPyE1mGFX9UDKr5T66Iulcy+9YYgtk+T6fW5kgTENqZWJiqYlQxLZU1qVoUfIIWVOUFnhOaaDZJFgKhi0ECXnfmSW0oVo2IlCdw9/cRWUqiCpwEmxK4ZiMoLb8V7zXrGXtVsyW+wEnxQMy3HRucPmNrCGjTUwoLXI6oIWMuNiu6ZQOhvhvuChPQkGpN21D9tOS0FMZGC4KmMzQUxMa5ToJPdSsMYLhCjGu+KzokUkYcS2S/kzoIt5+oTIxXAlk31uHCeDS/XSXZsXWQnK0jMNFpWmamXK9ZhUT2DRQLBSf6yyJxEW2ULsF25HpCxfH7YCNiyKQon2I3a9c/Bw4VLnPlbcyRsbFSciq3OfaC3OD4XrNUyZAnwulbcrFchn4XCjys+6fcc0xiha2It/wmIviJFxU5OaXj7lI1NIIKJFGFMQV/dsKytJwkWsiPgSs0Fedbd/rq/o21YdxScra7V92TznIilYyNktZn7hSWVqLDwRQ/qkhV5/e/CQdCIyAaGFaIYUXZ6jCVmF+czgQGFBE9k6DgtNhEVUzt9x9YuluA1P2zQd5KBiWwKcBgnNLQogO4aDgOecvApq4z8QH8GPqYFhBAQKSOeGUvAQEKHsGCVy8TPCWwnUs36oRP9tdE/DMDQE8tAdwdDEr2IQwre45GkafShfJusilA5xTCt5Din5zKANUpSsGDtP+faEIxL14aOaQ9U8sA5W3OsguG2oOpiqUpwBHHl+zOQKSdXV35Rv3nX8xXhVSdf3mzI3lq2nyh8/q6HcDqulL1ELHTdE50B5xcfNhKFO8CNUB0hjeY4Eu1B945zagM2TfIoxdu4U3zG36x693G1AJ88KOCIZxXI//G3ZPmBhy/7To1+qudznq7iMHVkEclx+JEua6aZalaf+R5hFerz84mS6xX18W0wAAAABJRU5ErkJggg==;" parent="dNxyNK7c78bLwvsdeMH5-11" vertex="1">
          <mxGeometry x="285.13" y="747" width="61.75" height="61.75" as="geometry" />
        </mxCell>
        <mxCell id="pnSuQXYb4ILXROEF6l5I-71" value="" style="shape=image;verticalLabelPosition=bottom;labelBackgroundColor=default;verticalAlign=top;aspect=fixed;imageAspect=0;image=data:image/png,iVBORw0KGgoAAAANSUhEUgAAAgAAAAIACAYAAAD0eNT6AACAAElEQVR42uzdd3wc1dU38N+Z2aYuF7k3MMaA6QZsSTYogQDGWrlIS4eQ5vT+JCHdyZuePMmTnpACCQklK9kguQQwILAl2YANuGNsg3uX1bVt5rx/SBhja6XdnZmdXe35ft68j9mZuXNmJO09c+cWQAghhBBCCCGEEEIIIYQQQgghhBBCCCGEEEIIIYQQQgghhBBCCCGEEEIIIYQQQgghhBBCCCGEEEIIIYQQQgghhBBCCCGEEEIIIYQQQgghhBBCCCGEEEIIIYQQQgghhBBCCCGEEEIIIYQQQgghhBBCCCGEEEIIIYQQQgghhBBCCCGEEEIIIYQQQgghhBBCCCGEEEIIIYQQQgghhBBCCCGEEEIIIYQQQgghhBBCCCGEEEIIIYQQQgghhBBCCCGEEEIIIYQQQgghhBBCCCGEEEIIIYQQQgghhBBCCCFEspHdAQghEjfL65ugQ/+m3XGYT9nbWOf/od1RCDGYOewOQAhhgI4iKLTI7jBMR7wegCQAQlhIsTsAIYQQQiSfJABCCCFEBpIEQAghhMhAkgAIIYQQGUgSACGEECIDSQIghBBCZCAZBijEIHbkKw/YHUJUQx/+IZyH99gdhhAZS1oAhBBCiAwkCYAQQgiRgeQVgBAZwr3jVeSsWwEAiAwdhba5HwEA5C//GxzNhwEAnTNuQfD8K+L+3NF8GPnL/3bqXM339MxOHO1zIYT9JAEQIkMo3R19vnN3NB8+9bnS3ZHY5+Fg3+/zo30uhLCdvAIQQgghMpAkAEIIIUQGkgRACCGEyECSAAghhBAZSBIAIYQQIgNJAiCEEEJkIEkAhBBCiAwkCYAQQgiRgSQBEEIIITKQJABCCCFEBpIEQAghhMhAkgAIIYQQGUgSACGEECIDSQIghBBCZCBJAIQQQogMJAmAEEIIkYEkARBCCCEykCQAQgghRAaSBEAIIYTIQJIACCGEEBlIEgAhhBAiA0kCIIQQQmQgSQCEEEKIDCQJgBBCCJGBJAEQQgghMpAkAEIIIUQGkgRACCGEyECSAAghhBAZSBIAIYQQIgNJAiCEEEJkIEkAhBBCiAxEdgcghEjcrLm+6brCr0TbfuQrD9gdYlRDH/4hnIf39L2RsL6xtvoqu2MUYjBz2B2AGJzKvHcMD1Fkod1xDHY66xMkjxdCJEISAGGJiB6ZCIX/bHccg59U/iL9XHrjPTkbn3640+44Mp0kAEIMYkMf/qHdIUTlOHHI7hCEDab5fK6cQPeykvKqwx2hrI9KImAfSQCEGMSivmMXwh5UEOC/ASgDAbnu7stnzr1t4drlj2+zO7BMJKMAhBBCJEVJRdX3Adx92kcXKIq2trjct8Du2DKRJABCCCEsV1pR+UEwvtXHpnwirinxVv0EixdLnZREcrOFEEJYalZ5VRkz9TcmlQB8rXj9lifKfL5cu+PNFJIACCGEsMysW247XycsAeAaaF8Ce0MBvFBacfsYu+POBNIJUNji9fJFdocQ1fmrlyCr9fhZn7fN/QjCw0bZHV6fcteugHvHq2d9no73WQwepRUVeTprSwAMif0ovpI58nJxRWV5U23Nq7EfJ+IlCYCwReew0XaHEJXmcPb5eXjYKERGTrQ7vD7pWX23mqbjfRaDBjG7HgEwLYFjxxBTffHcylubltc8ZfeFDFbyCkAIIYTpSip8nwBQbqCIfFJoWam36qN2X8tgJS0AwnbjNq6Gu7MFAHDs3MvQNnJC1M/dna0Yt/HFU8fuKvYCgGmfx8qzdS1c+98EAITGTUHgopkAgPynHz61T+fMudDyh5r2uWv/m/BsXQsA0PKGobP4lrhizj+yF0W7XwcABHMKsf/S2XHff7N+LmJwK67wncfMP+9vnkrdkwMlMOAcQA4GHiit8Hkaav2/s/u6BhtJAITthu7dhtzeWeE6ho05VdH09bkj0IWROzacOvadCsWsz2Pl2v8msl5ffeq/30kATv+s67Jrgd4K3YzP1ROHT30eHjUx7gQgq/XYqWvuGDb6VAIQz/036+ciBjnm3xCQE21z81W3IHLVzchZ8QBy9m4eqDRi5t8UV/jUplr/r+2+tMFEXgEIIYQwTWmFr4KAOdG2B0ZOgnbNXDhUJ7rLP4WTV82JpVgi5l8Ve6u+YPf1DSaSAAghhDCFz+dTmfln0bazw4mW8s9CpZ6qRyGCPsOLY9ffF0vxRMAvJQkwjyQAQgghTHEgqN8BYGq07cevuwsuT/Z7PiMQ1Atm4HDV/YihSiICflVc4fu83dc6GEgCIIQQwrjFixUwfSva5kh2Pvj8q6Me7ho5EYfu/A44huGhxPzLknJfld2XnO4kARBCCGFY6YYt5ejv6f+mj8Gh9F/luIeMxOHbvh1LEqCA+OGScl+x3dedziQBEEIIYZyOz0bbFBoyCs7R58VUjLuwCIdv/w5YHTAJ8IC4trjCF1vB4iySAAghhDBkRnnlFCa+Ptr2k6VVIIq9PHfBcBy++/vQXJ6Bdh1OrNeWzZ9faPc9SEeSAAghhDBEIdyNnhX9zsKqE8q4C+Iu051biGO3x/I6gC4MaY6a6YsWydzScZIEQAghhCEEuiPatuYZFVBVNaFyXXlDcfjWbwDKgFXV+92HT/zE7vuQbiQBEEIIkbDiisorAEyJtj009RpD5buHjMLhihhG/TF9sdhbOd/u+5FOJAEQQgiRMGK6Mdq2cEERXNl5hs/hGns+jpXdPWAoBHpw5vzbJ9l9T9KFJABCCCEMoJuibWm5/AYQ4uj91w/lohK0XHLdQLsVqpr2L5/Pl9g7hwwjCYAQQoiEXHrjPTkAl0TbHpl4sWnnIiKEZ92KwMhJ/e7H4NIDQf6C3fcmHUgCIIQQIiG5nkAZAHdf2zRXNly5Q009n6ooaCn/zMBzBDB+UOytjH/oQYaRBEAIIURimKO+/++YclVcY/9j5fLk4EjF5wbazQPQHwGT3j8MUpIACCGESAgDM6JtC0ycZtl5XWPOQ/OVN/a7DwFlxeVV99h3d1KfJABCCCHit3ixAiDqS34ummjp6bUZFQjnDut3HyL8YrrPV2DL/UkDkgAIIYSI26yXtp1HQE7fWxWoJgz/64+qqDju/fRAuxW5A/x1W25QGpAEQAghRNw0h3ZZtG1dY86BOvDsfYa5h47GyStvGmi3z5fcstDa5og0JQmAEEKIuBFwabRtwVHJW6AvfHX5QIsGeVhVvpfEW5M2JAEQQggRP8Yl0TaFi8YnLQyHw4HjN3yo330IuGvW3Mpzk3dz0oMkAEIIIeJHiNqsrhWMTGoo6qRLEBw2tr9dHDrR/UkNKg1IAiCEECJ+jNHRNlFOcjveK0Rofv8AI/4IHywu942NrcTMIAmAEEKIuExftMgJoCjadnK54yjNHK4RExEomtDvLiB9UdIDS2GSAAghhIhLzpG2Uein/lBUR9JjIgAt190xwD70iTlz5iQ/O0lRkgAIIYSIS1jTojb/64oDKtlTtThHTEJwyKj+dhnR4sheaEtwKUgSACGEEHFRoUft5RcuGG5bXERA64x5A+0l0wP3kgRACCFEXJiQFW1bJM/cFQDjNmka+qvaCPjAjIo7kjtMIUVJAiCEECIuDCXqe/QBl+q1mEN1ouWy9/e7iwMRn61BpghJAIQQQsSFwNETACvWAI5T97RZ/e+gY6D3BBkh+V01hThD92nvDMPunH4/1x1OdAw7u/+RWZ/HSssbhvCoiaf+fSrOUafNjeJ0m/q5npV76vPI0H47OvUp7M45dc2n39t47n+0z626zyI16cxuilLRk00dAE/nLCwCO9ygSLDP7Ux8bWlFRV5DbW273bHayf5UTQxKs+b6pusKvxJte+MHv2t3iFFduuwB5J44dNbnJ+79JiIjU3NNkfynH0bW66vP+jwd7zMAgLC+sbb6KrtjFH0rKfd9CcT/29e29ilXIXzjR+wOEcqaGhS+virqdmZa2LTMv9TuOO0kLQBpoMx7x/CIHknNmicKXdUvBEt+KRLEnD1rrm+63WHEa81y/3q7Y0gGIp05yvMj6Wx3eACA7vOv6jcBIOIbAEgCIFJbiCILofCf7Y4jLlL5C0Powv5akFJYRvziMymd4L4rerW7ze7wAADKkAFePRFK7I7RbpIACFuU/CP9Vucc9s8f2h1C3NLxPovUx4yOaJmOo7PF7vAAAE6nC+HcYXB2nIhyEbhkxpy78tet/HdqZCw2kARACCFEXFTW2/UonQDV9pN2h3dKx5QrMeTVZ6JehsPZPR3A8wkVvnixMmPDG0UODg0nXfFoCnJZ0d8zBpJ0JUwaWh0qWjs9aF7v97fafU9OJwmAEEKIOFHU3vOKHoHODCUFhgOGxpwPRE8AAKjT0E8CMN3nK8gK4BJm/WImOo+Bcwg4B8BYrN88HIDCILDS0yOC9DOvmQEViABwB4ASb1UA4AMgOgjmXQzlDTDe0KFvXresZmfPAckjCYAQQoj4MLWDotdVuq7ZsiDQWXEUjuj/Mli/6J1/l5WVOUJ5Q68AqBhMxSCeiQBP0oGeOYZhSgcPD0CTwZgM0GwCAwSoIJR4q1qJ6WUmfR2R8oLuxpomv7/byvtj/09ICCFEWtEIh/urDPVgN5CdZ3eYIE/uAHsoV5WUV34MpNwUAl8PoLDnwFP/XzIVMPENAN3AzN+kAAKl5b41OvFyFbRkTZ1/r9knlARACCFEXMZl4fCBADQAap87dJ5MiQRAdQ208i9fDaKrk9zyHisPE99AwA06+JfF3qqXADymObSHX1q69ITh0iEJQNrrGDYaG8sX2R1GVNF6oR/5ygN2hxbV0Id/COfhPWd9/nr5InSm6Kx2k5vqMHLHhrM+l/tsrmj3OdP4/X6txFt1GMDYvrYrrceAogl2hwlVUfudETCNEAEzAMxwRNSflHgrn1CY/rRmWXW9kULtn7NRCCFEGqJ90bY4Thy0O7hTwrkFdodgNjdAt+mE50u8vpdKyn1VWLw4obpcEgAhhBAJ4G3RtmQdfNPu4E7RHQO9BkhnfDWI/SXrN20u9lbOj/doeQUwyIzc8e5MpM0TL0TYnR3351mtx5F/pKdpNuzOQfPECwAg7s9j5d7xKpTujp7jx085tdBNX58r3R1w73j11LHdl80GANM+j1X+kb3Iaj3Wc2xBEdpGTjDt/sf7c4mVo/kwnPt6vpj1rFwEz78i7vtv1s/F6H2O93Ozfi7iNIQt0V6dZx3ehQ5dh6qkwDOmYk41x6QgnJWLYM4QBHPyEcoqgOZ0I+LOgub0QHO8dxlkYh1qOARHqBtKJAR3VytcXW1wdbbC09kCJRIy8SLpQgKWlpRXNQL0P43L/E2xHCUJwCAzuWnZqX93DBtz6osrns/zj+w59XnHsNGnKpp4P49VzroVp94Ft914z6mKpq/PlbYTyH/64VPHnqpoTPo8VkW7Xz/1LvjI+VeeqmjMuP/x/lxi5dz35qlrDo+aeCoBiOf+m/VzMXqf4/3crJ+LeBcxtkbtOqfr0DpboOYNtTtMsNMZ9zERdzbah49H57Ax6CoYha6CInQXFIEVNe6yokQFT3szck4eRnbLEeQe34f8o29DDRvsq0AoAbihxFv5L41cX1lX++iR/naXBEAIIUTcdKaN1M9cAHR0D5AKCYCuD7hP2JOD1lHnoWX0eWgfMQnd+cNiKNkIQiBvGAJ5w3BiwrSeT1hHTvMh5B/ZjaH7t/W29iU0OoEAukflcHlxeeW3x2Upf/L7/VpfO0oCIIQQIm5Ny/wHSrxVewD0uVJp1lubEJl8hd1hwtV6tM/PA/nDcXzCxWieMA0dw8bA7nWcmBR0DBuLjmFjcfCi2XB1t2Po3i0Y/vbryD+6J5EihxDR7w4E+aMzKxZ+Zm3tkoYzd5AEQAghRGIIa8B9JwB5uzbgxPX32DolMANwdL271k/EnYVj51yBo5Ono3Noag41fUcoKw+Hp87E4akzkd1yBKPeWIui3a9CjbfvAONyBcp/SysqxjTU1r5nCmdJAIQQQiSIGgC+q88tkSDCLUfhHjLStuh0LQIA6Bw+DgcvKMaJCZdAT4EpiuPVVTgSu2fMw54rb8LobU0Yu3U11HAg5uMJ+NOZlT8gCYAQQogEEfBcf2+p3TteBmaU2xrh/ju/i6OuHAR6k4F0pjk92H/p+3B46kyM3foiRm1vhBoJD3RYV4Scv+hrQwqM0RBCCJGOGmr9b4B4R7TtBRufhc4Dd8KziqqqaM8qGBSV/+ki7izsvewGhLMHnuSIgD9EGw0gCYAQQoiEEVNttG1qKIBwy9F4ijNVaziIk6HYm8rTyZhta+BpOz7Qbt2KU/9ltI2SAAghhEicjtr+NmdtfsGWsLq1CA53d9lybqs5Ax0Yt6k+ll3/sHrJkkPRNkoCIIQQImENV1/cACDqUrWFG+sRDia3Io4w40BXZ2qu8WeCiRuejmXSoA6NnD/vbwdJAIQQQiRu8WKdwQ/1t4tjW0wz05qCARzo6kDExr4HVio4vBsjdq0fcD8CfjzQTICSAAghhDCEVeeDAKLWuEPXPYmINmBvdVMc6e5C9yDr9PcOR6gb5zVVY6AZAhl4y9me+8uBypMEQAghhCFrn3jsbWJ6Ltp2ioSBXa9ZHsfJUBAtRufTT2Hnrn0S7o6WAfcjpq/W1z80YO9HSQCEEEIYprP+i/62Fz33MMIWVs7dWgRHA9123wbLjNi9AcP3bIxhT3q+cZm/OpYyJQEQQghhWNPymqdAiPpymrQwPI1LLDl3WNexv6sDPEi7/eUe349z19XGsmsXQ/9UrOVKAiCEEMIcOv2kv80Fm19E0OR5AXRm7O/qgMaDs/L3tDfjwuf/CSWWNQCI/qeprmZ7rGVLAiCEEMIUjVdNWwLg1f72GfrfB6DFsERvLBiM/d0dCOqa8cJSkDPQiYuefRDOQEcMe9OKxlr/n+IpXxIAIYQQ5li8WNdJ/yz66abuPnEAyqtPmXK6w4FudEUGZ49/Z7ALFz73EDztJ2LZ/VhYw0cw0PCAM0gCIIQQwjRra5c0ENBvJ7Rha2sRTGyN+1OOBwNoDQ3OHv+u7nZMe/ovyD1xIJbdw8y44+UV/sPxnkcSACGEEKbSVMdXGejsb59RS/8Xwc7WhMpvC4dwPDg4e/y7O07i4qceQHbLkZj2J+BTTcuqn03kXJIACCGEMNXaJx57G8CX+9uHImEU1fwMoTgX6+nSIjjU3RnXMeki79geXPLfP8Xa7A8wftZQV/3XRM8nCYAQQgjTNdVVPwBgeX/7ONqbMfTxH8U8P0BY13Ggq2NQDvYb+ebLuPjpv8LV3R7jEVTTeNXFXzdyTkkAhBBCWIFVp/4xAP2uBORqO4Yhj/0QoUD/T/UaM/Z2tQ+64X5qOIjzX3wMk9cuBcU+muHJVg/uxOLFhoZTSAIghBDCdDPnVd6ghZXlALIH2tfVdgwj/v1dRKL06GcA+7s6EDZp+GCqGHLgDVxe9+sYZ/jrRagOjh7q2+L3xzAxQP8cdt8AIYQQg0eJd+HVgPIT6Hh/rMdEsvJwrPJrcDv6rpIOdnUOqgV+nIEOTNqwEkW7Xo3zSH7c1Xbi7sbaalNuhiQAQgghDJtVXlWmE74O4MZ4juucdCk6bvow3A53n9sPd3ehPZZZ8NKAooUx6o11GLf5eTjiH8Xwm7Ee5Uv+unrTZj2SBEAIIURCfD6fur8bFUT4qg6eGdfBioJj190JuqgETlCfuxwLdA+K1f2IdYzYuR7jNz4LV1dbvIcHmfhTTbU1fzc7LkkAhBBCxGVGxR0jVQ7fdyCgf4KIJsV7fNfo89B688fgzs6Puk9zMIATcQ4RTDVqOIARO9dj9PZGeDpOJlLEMQb5mmqrX7AiPkkAhBBCDGj6okXOrIMnbtYVuhccrgDgQpQn92hYdeLYjR+Beu5lcPezX2s4hKNpPNFPdssRjH6jCcN3vwo1Ek6wFFqhOrWPrl6y5JBVcUoCIIQQok/TfD5XQQCzmPUFdKj5dp1oeKKD8FsvvR6BmeVwOj397tcRCeNwd1eMpaYOd2cLhu7bimF7NiH/2F4g8eGK7WD+cuOy6r8izrn94yUJgBBCiFOu9frO0Vi/iYluRoCvB5BLFN+T/uk6J12C9rK74MopgHOAfbsiERzoTo+JfhQtgtzj+1BweBeG7t+GnGYzHtTpeQfwkReXVb+VjGuQBEAIITJY2fz5hWHNUQzgRgbmRMBTYaDCf0fnhIvQOutWeIaMhCuG/YOa1lP5p2jt7+puR/bJQ8g9fgAFR3cj7+heKFqizfvvxcBbIHytqdbvT+Y1Gf8pC8uVVPgWgfnPfW3rGDYaG8sX2R1i9Nj/8b0+Pz/ylQfsDi2qoQ//EM7DZ69U9nr5InQOG213eH2a3FSHkTs2nPW53GdzRbvP72isq07p79TpixY5PYdOnM+klIL1WQyaTsAFMHFSuI7Jl6N95gK4C0fEfExI17CnM/5Z/txdrWAGIp4c6Krx51k1HIC7owWezpNwd5yEu6MF2a1HkNN8CM5Ah1m36BQGOonwC1db7k/q6x9Keo9HaQEQQohBpqyszBHML5qk6Pr5DOUCkD4VUK7CoeZLGOTsecwm854AFQWtF78PXVd+AO6cgn47+J0prOvY19mRwBS/jGlPPXCqd73mdCPsyUHElQXN6QagIOLOAhOgOT1QtAiU0yYTUrQwHMFuqKFuOELdcIQCpj3Rx6AF4N87IsqvV6/0H0vWSc8kCcBpSiqqFoM5BR89+EK7IxBCDGzWXN90S09AnBdR2UERqFAwlEBDABoC0odCpzFENJ6hTwiBRhOzg4nQ04/snf9rrkh2AU7O8EKfMh1Opyeuih8AIjpjX3cHwhz/FL+FB998z9A6NRyEmvpzBhwipl9BCf6pobY21lV/LJPSzVXJVuKtOgFgqN1xxEN3ONFVMNzuMKLKPdF3x5jwqIl2hxaV48QhUPjsmce6C4ZDcwzUjcke7o5WOINn95yW+2yuaPc5syhoueQ6dF88G84ho6Ak2F8gwoy9ne0Ixb4AzntMfeERDNu72e6bEQsdwCoQHiwIdy5duXJlymQpkgD0KvP5ckMBtj0jE0KIVNQ56RJ0XPp+0JjJcKjGEjStt/IPJlj5O7vbcVXNT0EJtBwk0Rtg/MuhOv7x4pOP7bM7mL7IK4Be4YA+UfIhIYR4h4K2KVeha1opaOQ5cDqcAw7ji4XRyh8ARuzakIqVvw7CqwCWKRrVrVnuX293QAORBOAUmmB3BEIIYadwQRHaLixFaMI0OIaNhqqoMQ3hi5XGjH1dxip/MGPkzlfsvlUAEAHhdei8BlDWqBpesLNDXyIkAeilAxPk+V8IkUmCw8ai4/wZCI07H8qQUXA63SAg7s58sXin8g9oxhazKziyC572E0m9Twx0EmgrQ9+oAFsYyusuD16q9/vNHxuYRJIA9CLweHkFIIQYrAJFE9E9/gKERp8HHjYGanY+VNVhWYV/Op0Z+7o6DFf+ADByx8BP/wy8RUAIgBNAAXrqugIAQQCn9+IMAWgB0AqghYBWBg4T0z6d9P1MvNdFrr0vXnHBASxenHLvHIySBOAUGmN3BEIIkSjNlY3AqEkIDxmDcGER9Pzh0POGgbLz4XB5TvXWT/b4Ch3vVP4Rw2U5Ax0Ytm/LQLtFnIrjOlM73j1p7T2yiyQAp9CQaONkW0dOxvFzLjVUumvoaDhyh9h9kUKIdKWowDvDI1UHoDqgOJxQVAcURX1P+6Xa+z+7vfPk321C5Q8AI998BTRQ/wHCE6na6z7VSALwroJoG9pGTsSRKVcbKnxUVg5ynGZ2pxFCiNSl977z7zah2R8ASNcw6o2mWM78W7uvPV1IAnAKF0bbEnHnGC5dehcIITKFZuI7/3cUvf06XN0DTdVCmxtrl6y2+/rThSQAvRgojFZJhz3GE4CUXeJKCCFMFNFNGOrXh9HbGgbch8C/hhVzHg9SkgD0on5eAYRNaAEwY3lNIYRIZWFdx76udoR0czvMFxzZhZzmQwPtdrI9mPWo3fcgnUgC0IMA5EfbqLk8ppxACCEGq7CuY29XO8ImV/4AMHpr44D7MPFfNz79cKfd9yGdSAIAoLSiIpc5+r3QHNJ5TwghoglpGvZ2dSBiwfS8nrbjGLp/+0C76U5W/mj3fUg3kgAA0HV3PlH010aSAAghRN8CmoZ9Xe3QLOrnNGZ7I2J4rV/3Yp3/LbvvRbpR7A4gFTip/+mudROG7+nSL0UIMcgEtAj2dXVYVvk7Qt0o2rVhwP100n9u971IR5IAAIioSr/3QXManyhTBgEIIQaTTi2MvV0d0CxclW/0tkaokVD/OxFWr61dMvAQAXEWeQUAgHW93z76TMbzJF0yACHEINEeCeFgV6el7ZpqOIjRbwzc+Q+gn9p9P9KVJAAA1Iii6GrfY1bNqPwBQJf6XwgxCJwMBXAk0G35eUa/0QRHcMDzbGqs9a+w+56kK0kAAGhqRKEoA/VYMSkBwKBbSEoIkWGOBwM4PnClbJgSCcc28Q/jp5CJfxKWMn0Apvt8BcZLSQzrjuhvAMxqAZDfUSFEmmIwDnd3JaXyB3qe/p2B/of0M/CWs+P443bfm1iUzZ9faHcMfUmZBMAd0H87a+6dtiyXpyoRy++DBXNjCCGE5XRm7O/qQEs4mJTzKZEQxmxdM+B+BPyivr7enGUGLVTsrfpCgNWr7I6jLymTAADQWAnXzZhzV77xouLDuh61BYB0c36/rJggQ6QOCgfh3lRvdxiDjtp8GM63N9kdRsbSuGdq385I8urZUW++BGegY6DdjrKHHrT15sSgxFv5OQJ+BXLutDuWvqRSAnCAwaWqM/jC7IULRyfzxDpcUVetIF2HGa+YJAEY3Dwb/ouc1f+Be8vATy4iNkp7M/LqfoPsxiWgJFZAokdY17Gns8O05XxjoWiRmJ7+GfSrJr8/Oe8jEkOl3qrvA/RrAAg7tZN2B9SX1EkACFkAAMblWpgai+f5LknWqV0O6jfdVEz4A4jIO4BBy/XW68h65SmAGTn1j8C9+QW7Q0p7SstR5D3xSygdJ6GePIzsFx6xO6SMEtQ17OlsR8jkFf0GMvLNl+Dqahtot2MKBX9v280ZQFnZfZ4Sb9XfGPj2O59ldSoj7Y6rL6mTAIBOu0E0iXReW1pR+cFknLnTpfX7G0cm/BEwYNmEGc5Du6C0HLWkbNE/15svI+fpv+LdViJGzguPIXtdncz+lCDHkbeRv+QXUNtOnPrMvb0JOc//G0hyhZSJOiNh7OloP63VkjFi94be1lDrqOEgxm16fsD9GPhRQ21tu933qS+z5laeG8rvWAPgQ++J2aFPtDu2vqRGArB4sQLGB874NJuZHirxVv7T6s6B66dNa0c/7fwDzkQVo4jZFQIzPK+tQt4Tv0Leyj+CQgErb5M4DUUiyG6oQe4zD/bZPO15ZQVyV/4JFOyyO9S04tn8IvKW/i+U7rO/391b1yC/7ndQOlKyNXVQaAkFsb+78z2jlia8+jTOa6jGtFV/jeXpPGFjt744YM9/AAfhoT/bfZ/6UuL13aMrtB6M6WduY+b5dsfXF9XuAACgOHf4+4nwyb630mVM2r3jzp+2e/+OrQMuCZWQ+noeP/Wi/wH6XhPgyHlXI+LJMXyaPIcTLsWcW660n0DOqn/As6keYIbS3QHn4d0ITb4cUJ2W3CbRw7n/DeSu+CNcb2/sdz+15QhcO9dDKxoPPW+Y3WGnNAp0IPfZh+F59WlQPy1lSttxuLc3gd050IvGASQLbZvlSKALx4PvfYgYu/kFTNj0HADA3dmCordeRSinAF0FI029967udkxZ/RiUAVoZGPhK09LqtXbfq9PNmLNw3MQLp/0bwNcARFs7fuK4y6b9fv/WrSnVmcX+BGDxYmXCoWN+AP11/Msjwm3jp140e+L5U1/fu2P7EbPDGD/1os8CyOtr27Fzr0Qo2/jghGyHAx7V2NxLFOpG9kvLkbPqQTiaD71nm9LeDOfeLQhPugTsyjL7FmU8x9G9yHnun8h6qQ7KwL2UAQBKsBvuN9ZC6e5AZPR5gMGf/2Dk2rUB+ct/D8eRt2Pan7QwXG9vgmvXa+C8IdAKRkgiYIDOjAOBTrSF323pJNZx7st1GHdGfxY1EsawvVsw5MAOdOcPRzDXnMbZSRtWIu/YvgH24rfbPMpHjm3dmhLvgS698Z6ccy+a8i1FUR4FMG2A3XMQhrJ/x9Zn7Y77dLb/1ZSW+77CxD+L4xAdwCOqQj9e/aR/q1lxlHirtgOY2te2LR/4MFpHnWf4HEPdboxwZyd0rNLdAfe2NXC/9iyU7v4rH3Zno/Pa2xE6/2qzbk8GYzjf3gzPa8/CeeANQyXpWXnonlGB0EUlpk0xnc7UY3uR3VAD54EdhsrRhoxG4IobEDr/arC0fsUlrOvY39WB4Gl9K7JPHsaUxmrkNB8c8PiTY6fi0IWlaBk1OeEkLKvtBC6v/VW/LT8AwIwPNi2r/qfd92y615vtgnsRAV9F/w+uZwoDemlj3ZKX7b6Gd9iaAJRUVN0Oxr+RWF8EHaClIO03jbVLXjQci9f3EsB91pg7Zt+B45OMD0rIcTgxPjs3rmMcR/fAvekFuHa+HPdQqPCkS9BVsgDakKSOqhwU1LbjcG9rgmt7k+nvnLUhoxGYfjNC51+VkYmA2nwQWa+sgOvNDTBzFld2ZyN0/jUIXlCMyIgJdl9myuvWIjjQ3YFI70IljmAXxm1+AaO3N8bd8bm7oAiHz5+Jo5OvjHv11Kkv/BvD9m7pfyfiHa62E9PsnPhnRsUdI1WOfBTgzwEYkWAxxxh8bVNdjTWvs+NkWwJQ7K36OAG/BWBGyr4FwJ/h0B5vXLo0oe7wJd6qVQCu72vbW1eX49AFJYaDdCoKJucOPOOx2nwYrt2vwrlrAxzH9xs6J5OC0AUzELjiA5IIDEBpPQbXrg1w7doAx9G9lp9PLxyB7kvfh9AFM8FOj/ECUxkzHAfegGdjfU/fCYtHSOiFIxCcfCVCk6+ANny8vCI4Q1s4hEPdPav5OQMdGLXjJYzZugZq2FhHYs3hRMvYC3Bi4jScHHsBNIer3/1zj+/Hpf/944C/D0y4tam22p/s++Tz+dR9If19ik4fBlCJKP3E4nSQmRY0LfO/lOzrOVPS/youvfGenDx39/8y8HELio8QsApAjaY6Vq194rG3Yz2wxFv1MIC7+9q2/+LrsPeKm0wJcGr+kLNvuh6B88geOPZthWvXa1BjaHqLGxEiY6cicPG1CE+8BOyQd9HU1Q7nge1w7tsO5/7tUNqbbYmDnR6Eps5A8IIZiIw8x+7bYirqaoPrzVfg2boaavNhW2LQs/IQGXcBwuMvQHjc1IzvkNmzoE8X8o++jZE7XsGwvZugaOY/WOuqEy1jpqB53IVoG3UuAmf2F2DGxc/8BfkD9v2gtY11/hIkadGfYp8vSwliFuv6XBDdivia+WMVZODzTXXVDyTruvqS1ASg1Fs1h8F/AGhScs7Iuwi0iplWRZyR519auvREtD1LvFU/BPCNvrYdnXwVdpYsNCWic3Lz4dHCUI/tg3P/DjgOvgnH4d0gLZycWwKAXVkInXs5QpOvQHjsVMBpRlKb+pT2ZqjH9sJ18E049m2HevJQyo3V1wtHIHjelQhPvATayElp+YpAaT8B595tcO1+FY592wd8t5tsekERQuMvRGTMFGhFE6AVFGVECwFrGtr2boX7rY0YvmejpUP6+hLMKUTbyHN6/jdiEnKP78eUhv8MGLZO+uy1tUsGXhowQT6fTz0Q0K4kUm5gxvUAShG9N7/J6HldVz69dvnj25JzvjPOnoyTzJpXOUPX6fsAbrTjInvpIN4JVjaBeDN02sykb3a3n9hZX18fKS2v/AQT/bGvA1vGnI+t198X9wnVcBDuzhZktR5FTsthZJ88grzWo3C2n0iZiodVByKjJyM87kJERk/ueXfqSPeEgKG2HIN6bB8cx/bCcWwf1ON7QQOPMU4p7M5GeNwFCE+chvCEi6DnFNodUp9IC8Nx4E249m6BY+9WqCftedJPFLs80IaPh1Y0HuGiCT3DNoeMSsvk6z10DY7j++E4/BbUfdvgOPAG1CQt6BMbwoAPv4R/N9ZW3x1TcTEovsk3FC5cQuBpTLiEGBcDuASAbavRAggB/DcFyk/W1Pmtf/d4GusSgMWLleL1m28hos+A2Zz2c2sEAewlUJjBF/W1Qyg7H7tmLoCuvjtq0hHshqqFoYRDUCNBqKEAnIEuuLpb4e7s+Z/R92m2UFREho+FNmwctIIR0IeMgFY4EnrBCHAKDWEj1kEdLVBaj0JtPQ619RiUtmNQ245BaTkGSqkvOnPohSMQHj7+VGUVGT4enJ1nvOA4UCQCtXk/1GP7oR7fB0fv/01mC1YysMMBvWAktPzh0AuGQy8Y0fPvwhHQcocAJs3nYQpdg9J2AmrrUagnj0BtOQKl+SAcR/em98+FoIOxkoEdCqiFiTsBage4TdG5M6Li1FoAKlO+3jusncBu6MoIIh4NwggwRgAYw8BI9PwvVYXA+JfC9Ic1y/3rk3FC0xOAa72+c8LEdxPjPgDnJuMihPWYFOj5Q099EXJWLtiTC92TC/bkQM/O65mcJSs3oRYECnX3TGgU6AK0CCjQDqWrA0p3K6i7HdTdAbWrDdTdDqWrDUr7ScCklRrTmZ5dAG34WOg5hdDzhkDPHdrz79xC6LlD4p4PgrQIqKsNasdJUHsz1M4WUMdJqB0nobQe63m6z/TpeBUVWm4hOLsAelYeODsPnJUPPSuv5385+eCsXEBxQnd7AFLACQz/pUjv30GgEwi0Q+nuhBLoAHV3ggIdUDqaoZ483DNlcqb/TAafl4j5wbBT9/f36tooUxKAYm/lBQorXhDmMbjErHJF+mIi6KcNB2JS3vPfSiQE0rXe/5ta74gHG11x9DzRqg6w6gSrLuiqAjUUBFiHGg6AdIYSGXytJqmFoLncZ/8thEMg1s74b/mbEACAMEDPMLhWBa00+xVBQhX19EWLnO5DJ2czuJwALwDjs+QIIYQQoj+bAKxg0Ep3+7EGo/MixJQA+Hw+9VAXLtcVvgHALACzYW+nCSGEECJjMdCpMDWxwg068RpPa96a+vqH4up41mcCIBW+EEIIkVbCIGwEY5XC3BDWPC+sW/nv/pe6P/ODmfNvn6RGIqWskPHl79IMM3sJKO9r2/HRU9GWW2TeyTweQJGuEkIIg5iBUBjQUrsjILGOcXs2wNnP6CgG6onoUbtjHRQYIeiRVxqXL92CKOMtpQY6TYm3shKg6r62nRh1Pt48/1rzTuZxgz3xzZkthBDvoemgri5AS/1OgxN3r8Po/ZuibifgsFONXFj/xBMtdseaKdJ8pgtzMSmvR9tWcMLk+RnCMoRNCJE4CoVBHZ1pUfnndJzAqAMDLPjD9AWp/JNLEoDTNF05bTeAPtfadYQD5rbYaxqgp8ZsgEKINMIAugJAV3fKzCjaH2Id5+54sf+hjURPNSzzP253rJlGEoDTLV6sA7Q52mZXuDue0gZEFizAIYQYxHQd1NEBCoXsjiRmY/e+hpyOfuey6YaifNruODORJABnIHDU1wAD/BLHjUNpPE2nECKpKBwGtadHk/87cjpOYOze1/q/LsL/a3zi8V12x5qJJAE4AwMbo20bcvxtU89FkdTutSuESAHMPc39nenR5P8ORdcw+Y0XBpjVkDa3uOl/7Y41U0kCcCamV6NtGnLE5CSVGRSWVgAhRBQRDdTeCUrD1sJxb69Hdmdzf7uEFR33bfH70+d9xiAjCcAZCrSODQD6HKiqamE4TJ6jm0PSD0AI0YdAsKeXfxqulZHXdhSjD2zqfyfCj5K16p3omyQAZ1i5cmUQhJejbc/uao6nuAFRJALIwh9CiHfoOqijExRIz8WZFD2Cc3fUg/p7XUF4rdVNP7I71kwnCUAfWMeaaNuGHbXgNYC0Aggh0Du2v70TSOP+QZN2NSGrq98ZaINMdK80/dtPEoA+KOCoCcDwQ9vNP2Ew/d7vCSFM9E5HvzQZ2x/N0GNvYcShN/rdhwjfa3rSvynGIoWFJAHoQ3so+wUAfba/qZEwnLrJT+y6lvLzeAshLKKlb0e/07mDHTj3zdUD7EVrx7jpZ3bHKnpIAtCHjU8/3MlAU7TtBa0HzT9pUFrDhMg4gWBPk38advQ7HbGO87Y9B0ek3++xgKrgI36/X552UoQkAFEohKejbRu5z/zWKwpH0rrpTwgRB03veepP045+Zxr/1ivIazs60G5fXv2kf6vdsYp3SQIQBWkUNQHIazlk/kq+zNIKIMRgx+h96u8YNK/9Ck7ux5j9GwfYi2oa66r/YHes4r0kAYhizXL/BoD3Rdue23HM9HP2zO8trQBCDEoRDdTeMWie+gHAHezEedvrB9iL93EIi+yOVZxNEoDoGKC6aBvHvP1qPGXFRmeQjAgQYpBhoDuQtpP6RKPoGqZsXQVnONDfbhFW6Pamp/zmTqAiTCEJQP+ejLah8MRe818DAEAgCGkFEGKQ0DRQWydoEL7em7SrEbnt/beEEtM3mp6sbrQ7VtE3SQD60eqhegCt0bbndQzY6SV+LK0AQqS/3qf+QdDDvy8jDm0fcLw/Aysblvl/YXesIjpJAPrRO1PVkmjbx+1+OY7S4hCQvgBCpK1IBNTWMSif+gEgt/0YJu1qGmi3IxGNPgz5IktpkgAMQFf4kWjb8k4egoMsyO5ZBwUG55eHEIOWzkBXANTR1fPvQcgZ7saUraug6P2OYAiD9FtfXuE/bHe8on+SAAxg7RWXPAfgQLTtQ0/ssebEwdCgbDpMNQoRRnicmFLgwXC3A1Z06xCDH4XCoI6O3pE8g5PCGs7fsgruYGe/+zHzFxtrl7xod7xiYPJ9F4NSb9WvGPhCX9siDjdeKb3Xkkl82OUCsj12X/6goyqE8vEFuGlcAWaOyIHztN6cQU3H2qOdWHWwDcv2tiIySJ/khEk0DdQVGDRj+qNixnlvvIDhR3cOtONDjXU1H7I7XBEbh90BpANdob+Tzl/oa5sjEkRWqAPdzhzTz0uhENjtBFTV7lswaBSPyMHXLx+Nc/LcfW53qwquG52H60bn4WNTi/DzjYdRf6jd7rBFqumduIuCoYyYwXPc3g0xVP60gT30KbtjFbGTmiUG+9/YenTc1IvmEDCur+3uYDtOFE225Nyk6YDbCWmsMe6u84bhx1ePxVD3u3lvy8mT2LH9Dby5YwcOHTwEIiAvLw9EhAKXijnjCwAQ1h/vTPzEYlChcATU2dUzfXcGGHZsN87ZtXag3Y5oEf39a5+skfH+aURaAGKkAH9lYEZf24Yc2wP1IobGFlTSmgYKhXteB4iELZw0BPdfNurUf7/91ltY8p9q7Nj2BvTTnuCuLbsWd957N6i31YUAfOqiIoAYf9xq/uyPIo3oOtAdADKk4geA/NYjmPzGCwO1coQZdNu6lUv22x2viI90AoyR00OPAWiLtn3Mgc3Wnbw7MGh7FSfDVcNz8J0rRp/671VPPYMff/9H2L51+3sq/8LCQtx+z11Q+njl8skLR+C60Xl2X4qwBffM39/WkTFP/QDg6W7FlK1PD9TjHyD6fFOd/wW74xXxkwQgRvV+fweYH4y2feyul6AoFt1OBtDVbfctSEsKEb5x+SiovR39XnyuHv955DFwHyMspkw9Hw5H341iBOD+y0a9p8OgGPwoEu6ZyW8Qzd8fC1eoCxds+i+c4YGum//YWOv/o93xisRIAhAH3eH8PwB9p8PMGNps0ZBAABSJDNqJRaw0d3wBphT0jKQ4fvQYHnvksaj7njx5st+yxuW4cMv4ArsvSSSDpgMdXUBHd8YNx3VEQrhg00p4AgN1fqUVrvYTn7M7XpE4SQDisPaJx94mQm207edseQ5kVSsA0PsqILO+jIzyTiw89e+6J+sQCUefZnn3mzvxxrbtZ32+f++7i0LeMDbf7ksSVmId6OoGtXeCIpnT3P8ORddw/pankd3ZfzIMwnqXB7fV19dn3k0aRCQBiJeGX0XbpGphDGk9EE9pcaPOLsjsmrHJc6qYUZQNANA1Da+t39Dv/joz/vDr32J1/Yvo6OjAiWPHUf3of/CH3/7+1D4zR+RaswiUsBczKBjqae4PhZGJf2PEjPO2P4/81v4n8GPgLQ3OufV+f4fdMQtjZBRAnBqWV68u9foaGFza1/ZzN63CyVkf7PMdsyk0HegOAlkyQdBAJue7oVBPbd18sgXd3QP3o+juDuDhB/+Bhx/8x6nPHE7nqX97VEKh24HmgDz4DA4MCkV6WtcyYDx/9NvAOHfHGgw9/vZAezYDfMu62keP2B2yME5aABKgg38SbZsjEkRhu7VTYFMw1PuUIvozLufdoZPhUOKduOiMORiGuSRvHgwoEulZra+rO+Mr/3N2NaHoyBsD7RkCyNdUV7M9lmJF6pMEIAFNddXLAXo92vbJrz8FUi2+tV0BIDLIpx81qCvybitMQUEhiBJrux8ytPA9/90akvue1rSe9/zo6Or5d4ab8NbLGHlw60C76cR0b2Od/zm74xXmkQQgMQzqvxVg2Im3rQ+hs1vmB+jH0e53W0myc7IxYeKEhMq54MILTv1b0xknQtL8n5b0dzr4dUgLWq8Jb72MMfs3DrQbg+gzDcv8j9sdrzCXJAAJGusmP4h3RNt+7uZnoVjdCsB6T6fATG6+7Mf21gDaw+8+rc++7tq4yyAilFw769R/v3qiC5okXelFZ6A7IBX/Gca/9QrG7Hs9ll2/LmP9BydJABLk9/s1Yvp5tO2KrmHk4W3WB6JpMklQFBGdsfrwux2VS6+bjfETx8dVxszSYpw7+d11Hp4/KAsDpQ1moLt3Br9gKBM79kc1fs8rGLvvtQH3Y/D3G+uqf2p3vMIakgAYEBg99B8A9kbbPnH7mlMz0FmJwpHeJEC+4c709zeOn3pLoqoqPvm5z2LY8GExHTtl6vm4+757Tv33yaCGJXtOxnSssBGfNnVvMAj5u3iv8W+9grF7Xotl19821dV81+54hXVkNUADDq1fr4+behEIuDnaPqQArfmj4yk2IaTpPd9zTumhfroTwQjG57gwtbBn2GR2djauKZ6Bo0eO4vChvkdrOBwOXH/jDfjQoo/AedoQwP/bfATrj3fZfUkiGmZQKNyzUp90kD0bMybtWosxBzbFsvNDjXU1n7Q7ZGEtmdLEoOleb7Yb7t0ARkbbZ8O19yGUpCkX2O2SOQLOkO1Q8HDZuTi/wP2ez/e89TZeeekVHDp4EB0dHcjPz8fkKZNx1TXXnNVK8MyBNnx57T55lkxRFAwBgaD0h4mCmHHOm6sx4vCOWHZ/dKyH7vH7/ZJFDXKSAJiguLzqXiL8I9r2jsJR2HyZN2lfTpIEnG1UlgO/L510VhIQi+cOtuFrL+1HQJPKJaX0PvEjGJTRMP0g1jFl2/MYevytGPbmx4Ojh92z/oEHpLdkBpBXACbYv2PrxvFTL5oN4Jy+trsCHegYPh4BV05S4iFN6xny5HRAcrweHREdy/a2YESWE+cXeBDLlABBTcefth/Dj147hLAMF08dug4EQ6CuLiAckVf8/VB0DVO3rsKQEzEtVPaoq/3EPU01NTLONUNIAmCSieddspYVXoQo0ysPPbITh8+5MmktlKTpPZOcOJ2DNwfQGRSOQI1oIF0Hk4L+avawznjuYDteONSObKeK0dlOuPsYqnmkO4In95zE/7x0AC8eapf6JVXoWk+v/u6AvOOPgSMSwtTNT6OgJYb1SRh/abzq4g+//dBDcmMzyGCtGmxRUlH1/8D4VrTtzaOmYMfUsuS+p1Qd4NwsxPTImw4iESgawxPqwIg9mzFyz2tQtDB0RcUbxbeiZchIIMYVGR0KYWqBByOyHChwqWgOaDjQGcLu9qBU+qlE04BAqGe0i/xkYuIOduCCTf9FVlfLgPsy4U9NV178aSxeLO1cGWaQ1AqpoazsPk8or+NVABdE22fb1fPRmjU8uYEpCjg3O+aKMaVoGhRNh6ppyGs9hJFvbUDhsejNma994OPozkrOqxZhLQpHet7vy9N+XHI7jmPq5qfgDA08PwgT/7yptuardscs7CEJgMlmzaucoevUgCivV3RFxfprP5z82eQIQHY2OJWHCeoM0iIgBhyahtyTB1B0YAuGHtqFWJ/8uvOH4bWyD9p9JcKAUx37ZJ7+uBU278OUbc9B1WLqw/fTxrrq++2OWdhHEgALFFdU/oyYvhJte0vRRGyfdqMNPZcJ8LjAnvh7wpsuooN0DcQMlXVkd5xAwdG3MfTQDmR1Jj7ZTvewcXit9Fa7r07EixkUDAOhUE8nPxG3EYe245ydjSAe8P4xmP6ncZn/l3bHLOyVwo+D6asw3PXtVkfOLQCm9bn92B4MbT2I5jzrJwh6r54Z0qBpQFYWYOUshaz3PNHr3PPlzoCqR+AOdCCv+QByWw6i8OjbcIQDpp529zUVFt9DYSpN6+nRH5L3+4kiZkx46yWM3h/LBD8IMehDTcv8j9gdt7CftABYpMS78GpAaQDg7HMHRcHL137YvlZOhYDsLLAjxhyQe/8/ndGzGGLPv9/5BVKYoWoRqFoQ7o6TyOo4gZzW48htPQhPZ6vll8OqE2++/16cyCqw6YaK2HFPhR8KAhF52jfCEQlhyrbnUHByfyy7tzFjYdOy6mftjlukBkkALFTs9d1P4B/3t0/Ik4ugJw9hTy7C7myEXVmIOD3v/s/hBhNBUxzQFRVMCnRFBUBgAEx01oNTtOcoAp22lXpKcLkAIhB0EPdU7IquA8xQIyEoWhjOYAecwS44Q91wBDvhDHXB3dWGrM5mOMJB2+4vq040T7kaR865HO2uLOgyC1xq03UgGAaFQjJjnwmyulswdfMz8HQPnGATcFgnvqWptuZVu+MWqUMSACstXqyUvrLlKSa+we5QBotx04tRePFV+Hezim5SwdJsnPIoHAEHQ6CIzC9jlsLmvZiy/XmokVg6+/EuJuXmplr/TrvjFqlFEgCLlVbcPoY58hqAIrtjSUcjLrwMV7z/A7h08nhMKsiG06GAAVT890283RmyOzwRjc6gcAgIhqVTn5mYMXb/Rox/6+UY90djxKlVvLR06Qm7QxepRxKAJCgtr7yFieogyy/3q6CwEOfPvh6TL7oIU8aOwOg8DxxR5i54+UgbPrxmn90hizNQKAwOheVp3wKOSBDnbX8Bhc17Y9qfCP90tuV+vL7+IXN72opBQxKAJCmpqFoMhqyt3Wto0XBMuaYUUy69FJNGFmFErhtupyPmX0hm4KaVO3CoW9YssRf3dOQLhXrG7wtL5HYcw3lbn4Mn0B7L7hqAbzbWVf/U7rhFapMEIFkWL1ZK1m+pA/gWu0NJlnETJmDcxZdh1LlTMHJkEYryc1DgcSLX5YBqwqyEjYda8fHGmHo/C7NpGhAK98zWJ0381mHGqINbMHH3S7GM7weAdoX5rjXLaursDl2kPkkAkmjW3DuH6ErwZYAm2x1LQhQHHKqCESNHoHDcRBSMn4ChI0ahoLAQedlZyM9yo9DjRJ5bhduh9o46sA4z4H3qTeyRvgDJoes9T/nhSE8CICylamFMfuMFDD3+dqyH7NR1tWLt8se32R27SA+SACTZjIrKS1WmBgC5fW1XFQW33HobPOdOhc6ErnAErDMCoRA0BoKhIFjXEQgE3/NEEAlHEAkHe8bnx8jpyYKivjtjsduTBYfTAbfTiSyXCw5VgcepIsuhYlR+FiYMyYUr1nkDkmTT8Q7c+UJMS52KRGgaEI70jNvXpdJPlvzWI5i8/Xm4gx0x7U/Af51q5I76J55osTt2kT4kAbDBrPJKr060FFHWC8jKzsLdn/k8Jo1K8qJBAyACPB43srM8UCg1+jMygA+/8BZeOd5ldyiDx6lKX3rwJxsxY+zeVzF276uxJvMM4MdjPfQdv98vGZqIiyQANimpqPoyGL+Itt3lcuPWz3wOF44baXeoZyECPG43sjweqKr9icCB9iBuflqGOBsSifRU+vJO3zaeQDsmb69HXtuRWA85Qcz3NiyrWWF37CI9qcaLEInY98bWpvHnXzQWhOl9bdc0DdvWv4KiCy/BiPzUW942EtHQHQhC03QoimJrIpDvdqA5EMGWFhntFDOdeyr7QBDU3Q0KhUGaJjP02WT4kZ2YuuVpeAJtsR3AaHSojg+sqfOvtzt2kb4kAbDRzMumrejQcAmAC/varmsatr/yEoZedDlG5mfbHW6fNE1DIBhCMBSGrjMcigKycpGhKK4uysG/dp5AROqvKBgU6V14JxAEBQI9T/zytG8rV6gTU7Y9jzH7N0KJrZc/A/htaxbd9cqS/yS+bKYQkFcAtiv2+bIowE8DmBVtH1VVcdOnvojSc0bZHW5MXE4HPG43XC4niJL3K/bffS34yksH7L78FMGApoMiGjgc6an8Zdrk1MGMkYe3Y8Lul6BqMc+f0AqmjzYu81fbHb4YHKQFwGb7t26NjDtn2pOkohzAiL72YWbsfLkJXWPOxfkjh9od8oA0XUcwFEZXdwDhcAQ6A4pCUEwY+9+fyflurD7UgaOBDJ2FTtN6mvVDIVB3ABQMARF5yk817kA7pm57FqMObo31qR8A1kDTb2xcXtNkd/xi8JAWgBQxY87CcaqDVgM0qb/9Llp4L+4ovQRKEp+szeJ0qHA6nXA6HXA6HJa0DhzqCOKmp3ZmxLMuRSLgiAZENHnCTwPEjJEHt2L82y9D1WJOUkMAvjPWQ7+QXv7CbOlXiwxis7y+CRq4noBz+tvvnFt8uO/6GXCk80+PAKfqgMPpgMvhgNOhgkxqIfjb9qP4vy3H7L5C8+gM0jVA08ARvfffDKnw00de2zFM2tmAnI7j8Ry2RYd+79q6JRvsjl8MTulchQxKJbcsnAiV6gdqCRheeiM+6r0eea7B8xZH7R1NoDpUOFUHVIcKhxr/9enMqFq1E2+2peEMgboO0nSw1lPhk6YBulT06coRCWHcnvUYdWBLPIcxgN8WRDq/unLlyqDd1yAGL0kAUtCM8sopKlE9gDH97eeYejk+ctetmJDrsjtkyxARHKrSO9RQhdr7b4eq9tun4GBnEDf/N0VfBTCfqujBDNa0nn/rugzDG0RGHNqOCW+/DEc4njqc3wbxBxtrl7xod/xi8JMEIEUVV/jOI+ZVACb2tx8VjUHVRz+By4tSc5igtQiqSlBIASkKVIVA1NOKoBDhd9uO4sGdLckNibnniZ11kM49Fbyu9zTjsw5oUskPdrkdxzBpRyNyO+J6DaUD/Gct4rl/3cp/xzgZgBDGSAKQwmYvXDhaCyvPAJjW337s8mDmRz+PivOK7A45pbSHdHxi9T4cCkR6ftMV6lmgiKj3Nz/GX39CT6Ms6z11d++/AfRU7Hin0mep3DOYK9SFcXs2YMSh7fEe+iaR/vGG2iXP230NIrNIApDiShYsGAFNfQqMywfa95zbP44PXnUenDZMxJOqtp/sxhdW70VY3qMLiyh6BGP2bcSYfa9DiW/BpDCAXxZEOr8r7/qFHQZPD7JBat/27Z0Tz7v8P0x6MQZ4HdCyeT0aOp2YOmkc8pzyowWA4VlO5LtUrDvSaXcoYpAhMEYe3I6pW57BkOZ9ca3ECcJqBt/SVFfz2M6dO2V4n7CF1BJpYO+bmwIXT574aFBxTgHo4v721fe9iYYtO5E1+SJMyHPbHXpKmDokCycDEeyQtQKEGRgYevwtnL/tWRQdeROqHtfEUy0g+nxjbfVn9+/YFteYQCHMJglAmti5c6e2b8e2mvEXXAQAZf3tq3a2Yue6Brw17DxcOroQ8kYAuGpkLrY0d+NwV8zTrgpxlvyWg5iy/VmMPrAFznBcCaUO8L80cs1bW/u49PAXKUGqhjRU7K36OAG/BeAcaN+c2bfgQzfNxujsAXcd9NrDGj7zwtvY3yFJgIhPfstBTHjrZeS2JzTB1AvQ6AuNK/yv2X0dQpxOEoA0NbNiYanCSg2AkQPtqw0fj7K7PoibJxbaHbbtDnSG8PkX9+BkUF67ioHltxzEuD3rkd96JP6DCftZxzebllU/DJm2UaQgSQDSWM/6AcpSAFfFsn/ezbfhY9degWEeh92h22p3WwBfWrMP7SFJAkTfCpv3Yuze15DXdjSRw7sA/NbloR/U+/0ddl+LENFIApDmLr3xnpxcT/efwbgrpgNGT8Itd92L0jH5doduq60nu/GVNfsQ0GSlPNGDWMewo7sxZt9ryO5qSaSICBgPMuh7Tcv8si61SHmSAAwSxeVV9xLhjwAGnhKQCKPm3o47Sy/DMHfmtga8crQT3163HyFNWmczmaJHMOLQdozevwnuYELDRZmAatLUb61Z8fgOu69HiFhJAjCIlNziuxwq+wGcF8v+kSGjcNVt96JySlFaLi9shtePd+GbTfvRLS0BGccd7MDo/ZtRdHgHVC2xhaOIaRUx7l+z3L/e7usRIl6Z+a0/iM2Yc1e+4gj+hoAPxnqM5/JS+Lw344IhWXaHb4uNJ7rxjcZ9kgRkiLz2Ixi9bzOGnHg7vsl7TsdohKJ/XRbtEelMEoBBqqTcVwXiPwEYFtMBqgPnL7wHC6+6ICNnEdx4ogvfXrsfHWFJAgYjRYug6MibGHlwS6Lv99+xhoAfNdRVr7T7moQwShKAQay04vYxDO3vYL4p1mMcBcNw2a33YO75Y+FWM+vXY097EPc37cPRrrhmdhMpLKfjBEYe2oZhR3dB1QzM/0D0FKD9SJ74xWCSWd/wGaq4ospHjD8i1tYAAM5x56J4XhU+cG5m9Q84EYjg6437sKtN1mZJV6oWQtHhHRhx6A1kd500UhQDWK4o/IM1T9ass/u6hDBb5nyzZ7jZCxeOjoSV3xGwMJ7jCqZegg/MX4ArRmbOsMH2kIbvv3wQG47JAkLpgphR0LIfRYffxJATe+Jdle9MERAeJ+YfN9TVbLH72oSwiiQAGaa43LeAiP8PwIR4jiu6+AqU3jwXV40pzIhfGp0Zf9t6HI+9ecLuUEQ/cjqbUXT4DQw7uhvOcLfR4poB/MWhOH7/4pOP7bP72oSwWiZ8l4szTPd6s93k/ioYXwPgiefY/KkX45qbynHtxGFQM+DVwHP72/CLVw8jKCMEUkZWdxuGH3kTw47tgqe7zXiBxDsYyh86A56/bnz6YWn2ERlj8H+Di6hmlFdOUYh+TcCceI/NHzse11T4MHvyaDgG+XKD20924wcvH8QhWUnQNp5AO4YfeRNDj+022ov/HTqAFUT0m4Za/yrIXP0iAw3ub24Rk9IK3weY8XOAL4v32NyCApx3QwWuveIijBzEKw52RXT86tXDeO6ACU+cIiY5nc0YcvxtDDu2E1ldpt33owT8M8L8wLplNW/afY1C2EkSANFj8WKleMPmSmL+GUCT4j2ciDBi+ixcOXsWSsYNHbQjB57Z14pfvX4EwYi8EjCbqkdQ0LwfQ07sReHJfXCGDL/Tf4dOTM/pCj/Q5qYnt/j9iU37J8QgMzi/pUXCpvl8roIg7gPzYgCjEymjcHgRLr6pHDOnnY8hnsHXKrCnPYifbTiM7SdNq6AylivUhaHH3sLQE3uR13oIxKYmVgcA/MsB+vOLdf637L5WIVKNJACiT72rDH4ajK8AGJ5IGUSE0VMvwrmz3o/iyeNQ6B48MwxqzPDvbMZD244jrMvr41g5wwEUNu9DQcsB5J88CFeoy+xTdBC4Vtfxz6arL3kGixdLU40QUUgCIPpV5vPlhoL8cTC+CGBsouWoqopxV87AtGuKceXEEchyDI5kYHdbAD/fcBg7WgJ2h5KSHJEQ8lsOovDkPuS3HDKn1/7ZQmD8FwoeDXKwdn1dnelZhRCDkSQAIibTFy1yug423wHC1wi4yEhZTpcLky65HBOvvAaXTBqD4Vkuuy/PEJ0ZT751Eg9uO47OTF5LgAFPqAO5rYeR33oYua1HkN3dAiS64E7/dAI16QS/I4xHVq/0H7P78oVIN5IAiPgsXqyUbNgyB8yfA/ABmPA7lDdyNCbOLMNFUyfjohEFcKbpsMLmQAQPbD2GVXtbM2JMmapHkN3ZjILm/chrO4rc9iNQI5YOlQwDeBHAk6pTr169ZMkhu++BEOksPb9pRUoorfBNBfizzLgXQJ4ZZbpcbky45FKMnXYFJo0fg3OH5sKRZr+lrx7rxB82H8Xu1sGznoAjEkJ253HktxxGdudJeLpajM6zH6s2Bv4L0JNuNbyi/oknWuy+F0IMFmn21SpS0aU33pOT6w4sBPiDAN4HQDGrbFVVUXDuVIy+8DJMOmcCpo0aggK3w+5LHpDOjNUH2/HnLcdwJI0mEFJ1De5AK3LbjiGn/Tg83S3I6TgJRySpfRwOAFzLOp5sy1ael2F7QlhDEgBhquJy31goqFKYP8zApVacY+jIURh63gUYOuk8jBgxAhOH5GJUjjMl5x4IaDr8O5vx+I5mdKfIdMIEhivUDXegDdntx5Hd1QJPVxuyuprhDNvSmbGbmBqYeJWi06o1y/0bIDPzCWG51PvGFIPGrLm+6brC9wK4EwkOJYyV6slC4YRzMGzCuRg2dhxGFw1HUZ4HI7NccDtMa5BIWEtQw392NuPJ3ScRsDgRUFiHIxKCM9QJT3cbsjpb4A60wR3ogKe71Yqhd4nYDfAqhbHM0ZH3TH39QzKMQogkkwRAWK6s7D5POL/zRmb2ElDOwKiknZwIziHDkTNyDHKLRqJg+EgMGTYEQ/PyMCzHjXy3E/luFR41OUlCS1DD4ztPoHZ3S1yJAIGhahE4IiGokQBcoS64ujvgCbTBGQ7AEQ7AFeyEK9gJRyTl+h5oAG1m1lcrUNawM/J849KlR+0OSohMJwmASLpSb+U0JvIBKAfjStj8e8ikAFnZcOUNgTuvAFl5ufDk5sOdl4+s3FxkZWeBSUWW2w0iwOVQ4VBVqIqCLKcCgJDrckBjoDOsoTMUQWcwjK6Ihq6QhoiuQ9N1BMMREBiKFkZbVwCv7dwLikTgDHdD0TUoehiOcAiOSAhKJASHFoIaCcIRCZk9Q57Vugj0KoPXKMwNWlhpaHrK32x3UEKI95IEQNhq5vzbJylaxAvAC+BaAG67YxJx0Rh4g8DrmZT1CmvrAqOHr1//wAPp0/NRiAwlCYBIGdMXLXJmHTh5qa7wDQBm9f6v0O64xCnvqexVxvq2oOfVjU8/3Gl3YEKI+EkCIFJWWVmZI5Q39AqwOhvE1wIohcWdCQUAgAHew6BtIN5MOm1j0JbOkGeLVPZCDB6SAIh0QsXeyqkKcCmDLmPQJQS+FMBEuwNLRwx0ErAboF1M+pvEylZA2+LyqNvq/f4Ou+MTQlhLEgCR9srmzy8Mhx2X6MSXEuFSQLkU4PMgrQUhgI+A6G1m7FZAu5n03dCVXZri2L2u9tEjdgcohLCPJABi0Crz+XJDXZFJrKiTFKJJzDwJoEkgngTGRKRvgtAK8HGATjDoCIgPKEyHABxgwmFFj+wPK57DUsELIfojCYDIWJfeeE9OvjswTCN9GBOGqZoyjImHgTGUCMNAGMqMYQQqZGJPz1GcB6Z35iIuRM/fkAog/7SiAwC6zzhdO4AIADAQIEI3GC0ABQncqYPbCBQE0A5GBxF3gtCsM52Agmbo3OyIKCdG5aLZ7/drdt87IYQQQgghhBBCCCGEEEIIIYQQQgghhBBCCCGEEEIIIYQQQgghhBBCCCGEEEIIIYQQQgghhBBCCCGEEEIIIYQQQgghhBBCCCGEEEIIIYQQQgghhBBCCCEGBbI7gEFn8WKldMOmK8E4l0kphM5hAh9xkuul+rpHj9sdnhBCCAFIAmCa6YsWOT2HTnwGoK8yMKqPXTSA6pjwlaZa/0674xUiHcye57tIZ/4UM65nYDwBOQCCAA4DWE2k/72hdsnzdscpRDqSBMAE073ebDd5loD5phh2b2fGgqZl1c/aHbcQKYyKvZWLCfRNAGr/u/Lj7FE+1OT3d9sdtBDpRLE7gMHAze7fxlj5A0AeEZYWV/jOsztuIVJVSUXV9wn0HQxY+QMA3UYB9kMeaISIiyQABhVXVF4BwofiPCyPmH9ld+xCpKJZc33TwfhGnIfNLa6ojPfvUIiMJgmAQcT0UST25DF31tzKc+2OX4hUoyv8ZSTw3URMX7E7diHSiSQABjFQluChpCn0AbvjFyKV+Hw+FcDNCR5+Qcn82ybbfQ1CpAtJAAwiYHzCxzKkBUCI0xwKYCyAIYkeT7o+ze5rECJdSAJgXF7CRxIX2h28ECmFIwlX/gCgQx9u9yUIkS4kARBCpA52OIwcTlAMHS9EJpEEQAghhMhAkgAIIYQQGUgSACGEECIDSQIghBBCZCBJAIQQQogMJAmAEEIIkYEkARBCCCEykCQAQgghRAaSBEAIIYTIQJIACCGEEBlIEgAhhBAiA0kCIIQQQmQgSQCEEEKIDCQJgBBCCJGBJAEQQgghMpAkAEIIIUQGkgRACCGEyECSAAghhBAZyGF3AEIIIVLXnDlz3M3O7KkK0wQQjyCmIgIXMogAAIQwGB0EnGCiQ4oe2d9NkTfX19V12R276F9KJwBlPl9uuIuvAPE0KHSxzjSBiMeAMQaAB0A2APcZh50AcByMEyAcA7AdoC06tC3kUbc1+f3ddl9XupsxZ+E4p6qcx8BYXaHhxHoRQA4CChlM7+5JQQBdPV8QfIyAw9DpkE60u2mZ/4Dd15HuSm5ZOBGqcjkRLmLmCwEay8AoAkaip3VvSB+HtQLQABwDcIAI+5lpB4Nf1yP6a+tWLtlv93UJe82e57tI07kMhBIwZrQC56gMFQDe+fNmnPZnzqf9H2bopMINlYu9VW8TYxMTNRFpja62/Jfq6x8K2H19g8WMOXflq9Q9BC6nQwnrhQAAikRYcR9rqH3sEE79ZKKjgXZIJp/Ppx7q5tlMmMvAtQCuhLlJSphAL+nQnwWU59o8aNri94eMFFjirRrwJkfHDzTW1XzcxOszXcmCBSMo7HgfQy8GKTMYfAkBOSYU3QZgOxFeho4mzeFoWPvEY2/bfb2p7JoFC4Y5Ig4viG8AcB0Y4yw4zV4wVkHBM0E3rVzv97cm8xpnzfVN1xV+JeECiD7eWOt/IAmhUonXdzeD7yDCiHc+ZMYuhVGbr3VWr1y5MpiMe2aG4nlVJaTxrSDyAjjXotN0AVTPrK9QFOfShtrHDtp93elgRnnlFAeUKxl8JRMuATARwMQBvocPEWGJSo6fvvjkY/ui7ZQSCUBJua8Y4A+BsADA8CSe+iTAftLpXw3Lq9cghozprNgHYQJQcsvCiaQqd+lABQFXI3l9Rd5g4lqVldo1df4GJPDzGGwuvfGenFx3wAfgXoCvBXqfxJIjQISVrNMjwTFDnlz/wANhq0+YDglAacXtY5gjjwOY1c9uBxj8maa6miesjMWIsvnzC4Oa46ME/jBAFyb59DoDL4L4YbiVR6Vl9l3Tfb4CTzduZuKbANwEYIyB4rqI6cMNy/yP97XRtgSgrOw+TzCv44MEfBbANLvieBe/DaLfEUIPNNTWtsd61KBJABYvVkpe2bIQxIsAXA/7O4juZsJDelh/MBObpUvm3zYZmvYlAHcDyLc7HgAHmfAnUrU/Ny5detSqk6R6AjBrXuUMXacliO1LmRn4ZFNd9Z+tiicRpRW3jwFHvsjAIqTG79YJAv9FVZx/6O9pdTCb5vO58gP6LUR0Fxjl6HnFbRadiBY01Pprz9yQ9ARguteb7Sb3Z4jxRQZGJfv8MWgB8Ac4tF/H8kWX7glAWVmZI5RXdDfA9wOYamcsUYQBfgy6/rPG5Us32x2M1Xrev+rfAagKyX3ajwkDnQT8LuLQfv7S0qUnzC4/lROAEq/vHoAfQHxfziEiurSh1v+GFTHFo7SiIo/h+ioYX0JP/6lUEwHhCYXp12vq/GvsDiYZrlmwYJhTUxcx4zMw9qQ/kBNaxH3uupX/bjv9w6Q95fl8PrW4ovLDbrh3gPHTFK38AaAQwDcQUXeWVFR9dc6cOW6jBaaq0oqF7wvlFb0K8INIzcofAJwA3QNF3VjirXzsWq/vHLsDssLshQtHl5RXPaDpvBGg25CClT8A9L53/Jojou4uqaj66vRFi5x2x5QMxd6qLwD8D8T/ZOZi1j9vc/hUUl71IWbXTjC+hdSs/AHAAUaVDl5dWu57Zta8yhl2B2SVMu8dw0u8Vb9wRNS9zPgRrK38AWCY4gguOvPDpCQApRWVVx0I4CVi+huAsck4pwnywPhpqyN7S2mFr8LuYMx09S2+USXeyseYlecAvtjueGJEAN0WAW8t9Vb+uNjny7I7IFMsXqyUeCs/p4WVN0D4GFK04u9DPhg/dR868Xqx13ed3cFYqcTr+yYBv0LCLab0frtin1FReWmJt6oBhL8D73ZWTHVMfIOu09oSr696xpyFVnR2tcV0rze71Ov7TgjhXQC+jCQmYwTynvmZpQlAmc+XW1xe+VtmWgvwlcm6UHPRZGZ+ssRb9XDZ/PmFdkdj9GJKyis/5lR5W+9TZjryMOh+CvDrpXOrZtsdjBGl3sppJes3NwH0awB5dseTGLqQwM+Ueqvm2B2JFUq8VT8E+AcGixmf7LiLfb6sUm/lj1WmVwAUJ/v85uFK1aFsK/VWftHn86VLctynUm/VHDfcmxj8PdjS94LP6uhpWQIwa17ljFCANxDRZ5A+TzX9uTukOV4vrVj4PrsDScTshQtHl3irngLRA+h5zZHuprCC+uLyqh+l4xdDSYXvkwx6GcA1dsdiAicDfywrK0vpeUXiVeKt/AGAb5hQVFKb3GfOq7yBAvomBt0PYDC8osll0C8PBPBcOrYGzJhzV36Jt+oRBlbAuiGWsTjrIcOKBICKvb77dZ3WAJhi48VaYQKzsqq0ourrSJEhlLEoqfDN1cLK6wA+YHcsJlOI8PUDATwzo+KOkXYHE4ueLwPfUjD/AcDgeI3RY2I4d9iNdgdhlmJv5fcA+qZJxWnJiNnn86kl5VU/VXR6GqDJyThncvG1qkN5bVZ5pdd4Wckxe57vItURfAnAHXbHAvBZk6+ZmgCUVlTkFXurqgn8Y6T4LIMGKMz4UUlF1cNlZfeZOVTDClRSXvVdMNcBKLI7GOvw+1QOr5s9z3eR3ZH0Z9Ytt52vOgJrAZ5vdyyWIJppdwhmKCmv+imBvmNagcS7LI95wYIRBwJ4BoSvIo0eThIwTCd6othb9T92BzKQ0nLfbZrO65AiHawZtOPMz0yrpGfMWTiOWV1J6dOpzBjGXaG8zpTNsqd7vdkecv+LGQvsjiVJJmo6rymdWzWvYXn1aruDOVOx13edDu0JgArtjsUqDE7mJF5WoBJv1a/RMzeJmcU+amXQs+ZVztA1qgY47ZrHE6QQ8PMSb+WUsR7lU36/PyktLLEqKytzBPOG/4zBX7Q7ltMp4IfO/swEM+fedqHqUBrSqEe5STgln3iKb/INdbP7mQyq/N8xhBX8d1Z5VZndgZyuxFs1j8D/xeDoe9GftOuLccrixUqxt/IvMLvyJ+x3uekXVoVdXF51va7TcxZNC53iaNHBgP7PVOoDNH3RImcof/ijBKRU5Q/g1cDoYUvP/NBwAlA8z3eJomgvAphg9xWKniF+5OIXQSixOxabZGuEZbO8vlnGizKutNx3G4BqmDuzV4qitJn7/nRlZWWOkg2b/0mgj5hcNLNOn6v3+zusiLvEW3UjEeqQuuP6LcegOw90879SIQmYM2eO23XoZA0YVXbH8l68z6E45vU1lbehBGD2PN9FpPMqJHf+fhHF7Dm+IqfKq2Df1MrHAewmYCMI6wFsB7AXgKEFl+JFQI4OXl4yd4GtLVLF5b4FTPwvDN7+MO9FSLspm6f5fK5g3vDHwbjL/NtBi5uW+ZcaL+lspeWVtwB4EvZ1JA0AONn7Mz9uUww9CLcfCOi/tTOE6V5vdqsjp5bAqdRBkUGojjj0K6JNsZzwF9O1824fH9EjzyB5k0uEAdoE6FvAtANE+4n1o1C4mzS1TSOorOr5KlM+A+eAeTKgXAXwZQBcSYrRNmXz5xeGNDyD5FT+HQAawVhNCm1kRdlSEGzb39/qZ1ff4hvlUHgagS4DYTbA16Hv5WrNkg9FXXb1Lb6ZL6/wH07CPXmP4vKq64n4MSSn8tcJ2KwDrwK0HcBeVvSjjohy8p0dIqrmUaFmM2MUA2MJPBmgKwG+BCYNFVM0ejYJ12qasrL7PKFAZw2AW8wumwl/aqz1/z8r4i6dWzWbCUtw9lLoVggx0AjCc8S8lRVlh7s1580zl/X1+Xzq250ocjn0cdyzct0VxLgKPSu6JmHCOfpksde3t6nO/5Mk3JP3KPb5sijAKwCkyoRY2wE8TeAHGmprtvS3Y0K9RUsrKvLArjUMXGrxhewlYAmIVrQHPI0bn364M94Cin2+LKVbf5+ukJcYtwIYanHMcTBnLYDpixY5PQdPruCeZWKt0gXwf4jhz9e6njW61KnP51P3hfT3KTrdBuA2WDQRDgPr2jx0rdFln+Mxc+5tFyqK1gBrE5wOAHUA1yi6+7k1yx85mUghZWX3eYL5HV7ScTcItyDBhIWYVjUs8xseZpqstQB6VlnsrgVg+ix9zPhx07Lqb8KC1Sx7F4laC2tbXcMA1RLhn043njPyCmP2woWjtYjqBWMewDfB2n4irDDPW7Osps7Cc7yHz+dTDwS4BsC8JJ2yhZheAfFmndAMnZsBaifiTmZln+aM7IpnjY5E/thJZ/e/CWxV5a+BsJSg/6Ghdkk9DP4R9S4zuQLAijlz5nyhzZE9j6F8MVU78CXCfbD590ywpPIn4DAz/dzlCP+9/oknWswqt7fn7ioAq2bMuevLijP0IWL+CkyeKpqAGQUB/jmApMzH3tMSE6kDyKrKfycR/RoI/iOeVSuj6X2S8wPwF5f7xpLCHwPjY4hrbnLep4Pus+h6TTfd5yvwBALLGSg1vXDC95rqqhdbEXdZ2X2ekN5RDesq/2ME/F9Io7+b1Wq2esmSQwAeAPDAzPm3T1K1yOcZ+AisSfhJJ/rHzPm3X7n2icfetugevceBAP8KFlf+DGwlgl8DL1lXW7MJJiaWcbcAlFRUfRkMK3q1MoEfJc3xvTUrHt9hvLj+zSqvKtMJP4Kt02QabwEorqj8cO8aC+ZGBnQC9IMQAr9ZX1fXlYy7UVZ2nyeU3/FpML4Dc6fKZCJUNdRWL7H4Eqi0oqrGotEXB8G82NVx4sH6+vqIlRcxfdEip/vgyXm9S0O/H/0+tdGKsIaPmFVhWN0C0JOgOZ8G+GrTbxzhe4211lT+AFBcXvnb3plVzdbB4F8qFP6FGUnlQKb7fAXugP4VgL4ES/ow0MvB0UNK++r0Zqbi8qp7ifAPi4pnAp7SGb9oWlZt2au1uBKAEu/CqwGlAaZPL0mbFeCTNiwBSaXeSh+DfgXrV2Pqg7EEoGTugouhqOtgfi/gZ6DpH2tcsWRP8u9Jz3rlzNrvTZ4w5zgc2jQr17IvrfB9hpnN7ozETPhzyE33r/f7W62KPZrZCxeOjkTUW4n5A+h5nzsawAEwVxPxYw11S9aaeT4rE4BZc+8coiuhpwFcZfqNsrjyL61Y+D5m5VmYPMkPAf4IOT+7rvbRI1bFHs21824fH+HIj8G40+zrAuhbjXX+H1oV+4yKyktVprWwKIFhhb/Q9GR1o1XxnzpTrDtO8/lcBQF+BcAlJp6fCfh1fqTzfqPvlI3oyUj5FwA+mtwzJ54ATF+0yOk+dPLl3k6OZomAcH9jbfUvYcH7yzhRcYXvc8T8M5jViZNQ3Vhb7bMi2FlzK8/VFNrYu1yuWY4R830Ny2pWWBFzKrIqAZg1984huhp6Bozppgdt9ZN/TyezjQDOM7HYY0z4dFNttd+quGPVm9z8C+Y+hAUJPL2hrv9OcImYM2eOu9WR8zLMrQsBoAPMX2q86pK/YfFi3ey4+xJz78yCbv6qmRfMQCcRqhrqqr9oZ+UPAOv9/tbGuuqPMeguAElp7jbKc6j5KyZX/i1EdEtjbfX/wv7KHwC4qdb/a2aaDcCclghGVXG5z4rmeWJS/mxy5b/JoTimZ1Llb5Xim3xDdSW8Kh0rfwCgAH8XJlb+DKqDQ7s4FSp/AGioXfK8GqHLASw3sVg3g/5uxfwArY6c78H8yv8lJrqicVnNX5JV+QMxJgCzvL4JIFNWxXrHMVWn65LwTjYuTXX+RzTiYsD6ubuNKJl/22QGvm1ikccU1soaav3P2H1tZ2pa5n9JI+cMEF4zozwi/Zdmr+FQ6q30mTsCg17UIu5Z0cbuitgV3+QbSi5eZcly5Emo/Evm3zYZJs4qx8y/a5o+bb6Vr8ISsXql/1hjXbWXQV+HeQ8g1xwI8KfMjLN4nu8SAF82+fL/VRDpvLap1r/T5HIHFFMCoEP/Acx713EEuvb+Ncv965N9sbFYV1uzkUPKNQBesjuWqDT9pzBvZrnjBH7fmmVLX7f7sqJZV/voEZcSeR+BGoyXRpNCeZ2m/QHPmTPHrYNMHHtML2sRl3fdyn+3mVdmZrpmwYJhPZU/rjC98CRU/gAAXfsJzHkFxkT4RtOyms8m8wkz3hib6vw/AeMjAMyK8csmLlNNpON3MHFuDwL+X2Nd9b12tYIPmAD0ZDxk1ixZ7Uw8p3H50s12XGysmp7yN2sR9wcAJLtT4oB6prjlSpOK6wZThRXvycxW/8QTLQEEbgTwnPHS+P7ZCxeONiOuNkf2pwg4x6TL3BJxROZI5W/cNQsWDHNoalpX/iXlvmIwzPlbJ/pEQ231j62O2QyNy6ofJCKzhu1ODOYXmdI6V1zumw/wtaZdKGNxQ131d2DjK9cBEwDS+aux7BcDnYDbmmprXrXrYuOxbuW/2zqCWTczUG93LKdjxnfNKouIP9m4zN9k9zXFan1dXVfQQwsZ2GqwqFwtpHzPaDxz5sxxM8is1oS9RI4b45nEQ/StzHvHcEfE8SwYl5teeLKe/AEw8bdhRu94xs9imRwplRDpL8Ok/lgENj476uLFChG+b9r1gX/SuKza8HeQUf1W7LO8vgnomaXNOMYvGuqqV9p9wfHY+PTDnaruWghiy+cliEVpReVVZr1rJvAjDbU1Vo1htcx6v7+VVcdcAMbeYRI+PHPubRcaKaLNkXMPzJm4KKKTfmdD7WMHzbtTmYmYh4cRftbkDrK9hSev8i+uqLyCgJtNKOrJxqsu/noyYjbLrPJKr67TczBreDOz4Um5StdvqjJxtdsHG+pqzOxTl7B+EwCd+GMwZcw/vRwcM/Rbdl9sItYsf+QkQakA0GJ3LKyb9rS5OxLxfNLu60nU2icee1sBVQIwsg64Sor2NYOhmLJ0LBO+v7Z2iQn9GwQDiy2ZojyJlT8AEONrMPz0z9tcHro7hd/5n6WkvPJjOtESmDi3CYMMd6Zl0BdMCYboKVf78UVIjZFW/SQAixcrYP6gCedoZ8KdVs/KZKWGWv8bILrbzhjKvHcMB5kyw5xG0O9K9/fMa+r8axj4jZEyCLijuNyX0BN8iXfh1SZVNC+Mc9OPLLlJmcnkScoAgH+YzMq/ZMGCEQAZ/VtnhvJJq5YituS6K6oWg+gBmLyAFuvqi0aOLy73XQNzZow9BDVyr9UzecYjagIw89VN7wdovNETMPAdO4Y3mK2x1r8c4IftOn8YoXtgxupfjH+YPXubXUIIfguAkd8tF4ETmvyJSfmwCZcQ0FXHfb3rIogUxMQ/b6yrSWrrJYUdH4TBnv9EeLipzv9CMuNOVFlZmaPYW/lXmNi/6R0MrFu7/PFtRsog0u8zIRRdV/jeVBt+GTUBUJnmGy+ed7V56A92X6RZXHB9CcAxO87NUO4woZguBn3HjvitsL6urouIjI3zJb4H8Ta1Ll6sKIz5RuNnxq+StWiJiB8B/9dUW/PVZJ+XiT9isIiTrGpfSXbciSjz+XJDecOfIJDRa+4Lq4z7jRQwzedzAXSrCbH8Y+2TNassuEZDoiYAzPAaLZyJvp7MZVitVl/36HGCqRMixaS04vYxAJswfzn/qmmZ/0Cy47dSQ63/GWPzA9DkknJfXCtDlq7feA0Do4zETcBhRQmlxbCsTESE3zfUVX8p2eftnWhmqqHYgd+l2pNmX2Z5fRNCAawBMNeiU/xtzbLqeiMF5AfxfgDDDMbRHtYoJTr9nanPBGD2PN9FACYYK5rWNtVWV9t9gWZr8dA/AU7qDG06R7wwPhzoKFH4p8mMO1l0wg8MFUBcHt8Byi1GY2bm7yRj5TWRCH6gobb6s7ChoxZpvNBgEWGQ40/Jjjtes+ZVzmDwOktGawAA6GVXe67hTrrEPMdoGUz4uVmrZZqtzwRAY8wyXjR/FynS09FMW/z+EJPyv8k8J4HfZ7wM/HqwVjhNtf7/ArQh8RIoricQBl1nLGLeNTZL+Xsy7o2I24ON0y/5JOz67iLDa8tXp/pw0tJy3226Ts8bbUXrxyY1grn19Q8FDJdEbHQoZrebnX+06DoN6zMBIHCpwXLfaKyrTrl55c3SGfD8FUASl2al2QYLaCfdlbK/hGZgwj8NHH1p8U2+obHsOWfOHDfA1xiJlYDfS8e/VMQPN06/+KN2DZvr/R009ESsk/57O2KPEZV6fd9h4kdhyTK6AICX1Ahdv3ql33BfrZIFC0aA6XyDxfy7vu7R4xZdq2F9JgA6G10vm/+AQfj0/46NTz/cCaAuGee61us7B0aXyST+y5rlj5xMRrx20cNaDRKfP5zgRkyVepsz+xIYW4ehw6lqDyb7/ogBMB4b61E+ZOeYecWNWTA26+qxtVdempIze5aV3ecp9Vb+i8HfgxmzG/aFUB1E8H1mVP4AgIhqeOgfQf+bJddqkrN+2crKyhxkbOnJiKK7bRsulyzMlJSVDDUyvuwkM/6SjFjttG7lkv0EMvDlx1fHspeu00VG4iTCkvonnmhJ6s0R/SNUuzqO32N3q4wO3eir11WpOOlPmfeO4eG8zlUMutOiU2gA7m+srb51fV2dacu5EwwvH32goW7JOouu2RRnJQDh/KLJMDIGlfHSYH/aBABk4b8MdFp9Gp1hqMIB8GZTXc32JN0VWzHzfxM9lhgxTQtMZOznwUBaTYedAZ4Mjhp6ZypMzqIwGUz26Wm7r+FMpRW+qSGEm9j4a+VojjPjpsa66p/C5FZn3ehoDMITZsdktrMSAF3TJxksM+V+Ca3Q5Pd3E8FAx7PYEHRDv4QgTsqripSgkIGFpiim+0zAuQYi1DiYel/SGWx5q4duTZVZStngojUORX3W7ms4XbHXdx0zN8JYi3J/XlVA05uWVVty3RTjd0I0rFO9RddtmrMSAEU12DNT0Z+3+6KShXV+3fqzkKH3/6xlRkIGAATVQALAk2LaC0h8GWHCpqan/M3Jvi+iD0RPudpzq1JlnpLSioo8gMYZKKL9xScfS+rw5P6UeH33EPhpADF1ro0bo9bloWvX1Pn3WncVbGwmXF172brYzHFWAsBMhhKAiMopv7a8WRSiJCQABiocAIrq3JSk22G73uFPiU6AMmT6okUxzCPPCf88iNnoMsbCHM+yGwtMGSZmGvcYGOsclyrTrVOxt/J7AP8DBqczjn4G/uXYLFpo5ToHPTMAwsgqgkcbVyzZY1V8Zjlr0QUCF3Liv4fHMmk9c430bQob6bQ7MAKKDLxEak71McHmo/0Aj0jkQM/htiIAA9wvKkg0Mp0oI/pipLgXgghWrPfXddsdyOkY2khDAwAIu+y+hjlz5rhbnTl/A+Mui06hEfNnGupqLJ/oKL8bRaDEK0ICvWl1jGY4KwHQQe6Er5qRFhdtGs3ZDMXajsNsbLzsG8m9IamAWxI9MqKHc2LYLfEhgEy2f0lnMgI1OD0ob/Sb11PcNLo6AmQg1Wd7E4BrFiwY1qqpS8EwOmdJNN0MvrNxWc0TybgeHXq2aqBBhsEWvpowT18tAJ6EW6IIg7/3/2lUlVrZ+j6eBsacU0b9PACACAn/TFTWY1lt0cDPg9N6CeZ0xsA6LeK6pcH/75RcHpfB2Uba/4mSOTHZe80or5yiRmg5gCkWnaJZJ71ibe0SA2t+xEdl3Q1SjRSRFglAX21OiV81Y1BONRtNe8CZjD86A+/R9Iz6eQAAMyf8M9EViuVeJ7xWucpIyconA7ziViM3r1v579RNwBRO+PcKAHSGLSMZSudWzVaJmmBZ5c/7VIVmJ7PyB2L+LoiKgNT9XTuN2S+wU69pzULOSVnJ6EFsoB2KLJ+nIPVQwl+kDl21ZoayXhooo/4+UgLhNQ7RTSk/+RJTDB1Q+7tMTvpohmKv705W8AyMr5YXzRYtwiWrn/QnvfOs8e8CTqk+JtGYmwAQx/IOddBQjx3LtzuGAWTbHUCysYFOepZTjT3liQQwfTkthl4yjFUYpCSzBYCKK6q+TeB/AYjltVkCZ8BqRXfNXrdyyf4kXpdpmJQUGmES3dnDAIkSn0qSlEK7LyiZXCHFUGUT471OuJcBEQqTfU/sRkDCP5OIosVyrxP++yCdjKwhIBLCjxXP8xmeTttqRt/hk5FXt3GY5vO5SiuqHiLG92HVnP6gGldb7o1pPqNsWiz2dXYLgJFMlNnIuMm0o6mJVzYAoDBiyRKDiZbPoMJk35MUkPDPRNFjakZN+OdBxIV23JAMV0Q6P5vqSYDCxhIABg+3Osbim3xD8wP8FDPutegUDPAPG+v8vtSao2Hw6isBSPzGZ9gXnGJw0iSAY7nXBv4QMuvngcWLFYATnqqXVUcs99rAu1ZjszqKhBWRzs+WzF1wsd2BRBMGHzBUAKPIyvhK5t82mVzcSECZRafoZvBdjXU130KKz58/mJw9FbCRoWNME2KbTW1wYOBSY8crsfQKN9KR75zeGa0ywoxXNk0GkJdwAXpMrV8J9+TXoU+w4baIHkVQ1JRNAjqylD0w0mxMSGTyq5gUz6sqgaathcHFcfpxENCva6qredSqaxB9O7sPgKIfMlCex3X4REr+gVmCcbmRwwk4HMNuRn4e7vygbmiBkXSiQrnMwOFcqHUcH3g3OpLoCYiNLSUsDBsBRX129jxfyv0cetckSLzDG+NKK+Iqqai6nXQ8C8CqVwyvMNM1jXVLUn7e/MGoj1cAiqGpY0nHVXZfVNKQsQSAaeAEgEFGEgAoTEbXtE4bDDbyJXhy5cqVsbzfjyVpixahoRYjYYoRms7PpWISAMDIuh3nFpf7xpoZTInX900wHoGhya/6w4+zh65tWuY39vpDJOysBECLaDuMFEiUGRXO7IULRwM430gZTDHMFsW6oQUldEJG/DwAgIi8Bo6OKfFlMjLFJ40vuWXhxGTfF3GWkZrOz82ce9uFdgdyOia8ZOR4BZhlRhzTfD5Xibfq7wD/ANb09GcCfbexruaOJr8/LcbLD1ZnJQC94y5bEi1QB26EZcNDUocWVqpgbB4FrTDUMWCypQCGVlckhrenc9zg1vNExwm/fmJwbImvzpsNBaqq70vunRFRjFQVLcWSADLWDK7wLUYjmDX3ziEFAV4J4ENWXCEDnQD7Gur834d09rNdtIoh4S85As6Z5fWV2n1hSXCrweN3x9LkTKQYq3CAsaUbNl6XvNtiD43Z0M+DwNti2U8FGV3uel7SboroFwOjVEV7rthbeYHdsQCAHnY1AolP6aszKksrKhLuBHut13eOrgQbALzfmivkfSCe3VhXU2NN+SJe0RIAQ/Mua8RWLQeZEq6dd/t4ACVGyiDgtVj2c3jwGoCIkXOxrtyRrHtjB5/PpxpdgpRjbGlhJbQeBr6kAb55xpy7Un0GyYzBwCgCpUQSsG7lv9vYwHcvATk6nL5Eji31LpwZAa8FyKIWEVob1pRrmmprXrWmfJGIvhMAotVGCiWGb86cOdZMEZkCwnrkizA4jbIONMayX73f3wFgg6GACVWDudI52M23AzjPSBmsOpti2a+htrYdoJj2jcKjOoJ3J/P+iAGNJtBzpRU+q4a5xYwIKw0dz/TReI8prqjyMZTnAMuGEv7L1Z7zvpdX+A10oBVW6LMSC7qxBoYmPMGwFmfuJ+y+OCtcfYtvFAEfN1oOQY850yfgRYOnG6I6g1+y/ObYwOfzqUz4lsFiDq594rG3Y92ZwE8ZORkDn0YG9JNJM6OZ+bkZ5ZVWLWkbEwYtgbF348UlXl/MTfjFXt/9xHgcQJYFl6Mz6OuNddX3yMx+qanPBGC9398KoueNFEzM3zDyPipVOR36V2B8kZ3jYz1qzE/1OmiZ4cAZXyzz3mH5dKHJtj+A2wAYbb59Ib7d+UkjJyPgouKKqipr74xIwBiV8Oy1Xt85dgXQVOvfCYaRFiYA/J2B9pi+aJGz2Fv5VwL/GNYkox1EtKCpzv8Ta+6UMEPUZmzS9ScMlj2CddegeuosuWXhRDAZbtkgwgq/3x/zrF/jPFgD4JjB0+aHKPR1q+9RMpXNn19I0A1/wTC4Lp79G+pqtiDGToPREPP3ysrKZHXAlEPjI9Cfm+X12TZrIxP+abCI62aVV5VF2zjd5yvwHDy5gkAfsegK3maFShpq/bXW3SVhhqgJgJNc1TCw8AkAgPA/JfNvm2z3RZqEoCp/gwlL7Oo6PRHP/n6/XwMjrmP6xPT5WV6fKWOFU0FIc/wWoPEGiwm7VS3u964EqjZ2WrownFv0RQtvj0gYTdLBz5ZW3G7L2g0hDz0GoN1IGTrh530N/505//ZJ7gA3MPENFoX/kkaumU1P+o1MaiSSJGoCUF/36HEGDDV1AsiFpj86GOajL/FWfRLA9SYUdaJQ61gR70GKyn8z4dyqDv5X2fz5hWbfn2QrKfdVATCjM91T9U880RLvQbpCfqMn1om/W1zhM9R5UVjmPObIszMq7hiZ7BOv9/tbCTD6935V8YZN953+QXG57xpFi6wFYMn04ERYGkTwfetqH014umyRXP32ZFeI/mr8FHx1QYB/ZPeFGlEy/7bJDPzMpOIeiXHK2fdY82TNOoCMzgkAABNDEccfzb1DyTVz/u2TQPwnM8oiwoOJHNfzhGNs4hYCcoh5UCTIg9QFKoefsaPvjKY6fg2Dw3+J6ZfvTHlc4q2sJOLnAViT0BD/suHKi6vW19V1JfteicT1mwA01PpXAfS6Cef5UmlF1UK7LzYRZT5fLjS9hoAcE4pj6NoDCR9N+K0pF0W4vdRb+WOTblFSzZhzV76iaXUAhplQ3NEWt6EOln8wIYarCgK6OT9XYYVLQgg/PWvunUOSedKeUSlsdHW8Ak3nupLyqu8C9B+Y8PqyDxozf6axtubLWLxYT+Y9EsYNNJadGfpPTTgPMeOR4grfzXZfcDx8Pp8aCvCjABtZZe7027CycfnShJ/iXW05/4Sx1QFPYdD9xV7f/eZcV3KUlZU5HI7g40am/D0dgX7fuwpbQtiDxwGcMCGSRSUVVV817UZlthhWdIzbFboS+m+y59JwQPkujA3HBoBzQVgMg/OWRNEBonlNy2p+n8z7Iswz4C/FOI/yHwDbTTiXm5iXlFYsTJu50A8G+BcAys0qz+hrhPr6hwLE9Cuz4iHwj0u8VZ81qzxLLV6shHKH/4EBU5JIBjrDjoihL64mv78bbPhd7TsB/aS4vPLTppSVwZh5MRGWWlD0NQ5HaEWZz5ebrGt5sc7/FoA/J+t8cTrIxNc21vqX2x2ISNyACYDf79cYbNbwsSxmpbZ4buVNdl/4QEoqqv4fA18wscinm+r8cY43P5uehd+BDKwbfrbflHqrfuXz+VQTyzRVWVmZo2T9podA+JhphRL/4aWlS40/vTu1/+1Z4MR4RET025KKqi+bdo0ZiBQlHBg19DYrkgAGlwYDXDfd67WiKb1PGjl/CCCl3qsTsFGL6DNkWt/0F1OzUFNdzRMA1ph0zlxSaHmxt+p/7L74vvh8PrXUW/UnsOHZ5U6nQ6OvmVFQk9/fDR0DTvQRDwa+sD/AddN9vgIzyzXDnDlz3KG8Ij9A95hYbLOquU3pA9G4dOlRAn5nUlwExi+Kyyt/O33RIqeJ15tR1j/wgGVJAAFlbrifKCu7z5OMa1lX++gRMqeviVnX/19QaFbvqrEizcX8Xkhh7TMw2Cv1NCoBPy+pqPpXsc9nxRSUCZnu9WYfCPJjbMJUv+/Ff21c4X/NrNLGZtE/QVhvZoQEzHEHeG1xue8ac689cSW3LJzYquY8B/B8c6+Vf7Bm+SMnzSov4tB+DoPjtt8TH9FnXIeaVw+iOTSSzsokAMAHQnkd1ckavRHw0A9gUt8fIwj4s7P9uLdnPQwxGMScAKxZtvR1Av7P1LMz7kKAXykp9xXbfSNKKyqvcsO9AQyzp2g9GPQopnbw8vv9GoE/ASDm2QRjdAERN5Z4q36SrCecaErKfVVQlddAxlZdPAthvbP9hKm97l9auvQEg0wd6krADGjaq6UVlR809foziMVJwNz8AD+ajNkce+YF4C9YfZ5+6MT01Ya66k/U19eb9RB4lpnzb580a65v+qy5vump9GA4mMU1B/SlN96Tk+vu3gjgXJPj0AH8zuWhb/aufpc0Pp9PPRjgrzGwGIDZza6sMM9bs6wmrqlmY1Xirfo1gM9ZUTYDW1XGp9csq663ovxoist9Y0H8QwKsqPgi0OhqM1tj3jHN53MVBHgDLJhkhYElqs5fWbO8ZrcF96R/ixcrxes33UZEn8Q7w8iYwiC9UWf+99q6JcZWqjzDrLm+6brCryRcANHHG2v97xlqO33RIqfncPPjzFhg9u0hwj8brrz4Q8kYAldSXvUkCBVWn+cM3WC6t3GZ3+DMl2ebPcdXpDv1W8A0l4EPACg8bfNeEH3Krk6GVvwepqK4F4EonldVQjpeBGBFp7E9AH3b1X7sUSszTQDA4sVKyYbNt4LxXRhfTCaa3zbWVVtSQQO9CZmnawOYzrfqHAzUq4zvWZ0IzJp75xCdQveD8FlYszIZiPCNhtpqy+Y/KJ1bNZsVvABrFlcJMfB7hOgHTU/5m626hnf4fD71QFC/A0zfRP9/H8uIHB9vqH3soBnnteqL18okgJl/17SsxvLRNLPn+Ip0B29kYJTV5+p1lKDPa6hbstasAmfMuSvf4Qjeyj0Jfgn6b4VmML7TuKz6B0m63lMkAehHqbfq+wx826qgGHiLiH7uast50OxlJMvK7vOE8jvm93yxmTOevG+0oSDSUZLIrH/xKPEuvBpQGmB+68WZXgDob1rE9eS6lf9uM6vQWfMqZ2ga7iaiu/HeJwCzPd04/eI5Vj+plXqr/mR+H5L3OAngpxyiv1iRCMyouGOkyuH7AP4YQDH2QeB9DsVZ+uKTj+0zen4rv3inL1rkdB1qfowACyYl4x821tWY2XG4T8UVvpuJeTmsGdd/uu2KznPNanUq9vquI/BH0XPv4xtFwbyocVnNXyy+3veQBKAfPp9PPRDgp2DO3Pj9aWHgSYX5Py1ZyqpEJ22ZvmiR03Oo+QYQbmfGfABWT+hx0KE4ZprxhRiLkoqqr4JhxoRNsQgAeIoZSxwqvTLKhTfiWdnwmgULhqkh5SooKCHQbQCmWh0wA285IjRj9Uq/0RUVBzTd6812w7PO2uQSABBgoJYISzU4nzcy//p0n6/AHdBvANHtYMxDAskkMa1qWOb/gNGLsvqL18okgJi+2rDM/3Ozyz1TSXnVd3sn97FSGwhPQ8cKIn5pjEfZHs/feVnZfZ7u3PbxDuB6JuXTBv8e2iMO7RxThu3GSBKAAZR57xgeQuhlgCYlKdZWYnqZwRsItAGKvosVx0nu1k82FU9rmb5lS567Uy5y7sMAAAu6SURBVCtUFC7UyFFIhKnEfCUDVwC4FEBSOrUx0KnqdN2a5X5Te+kPgEq9VY8z4EviOd/RDWATwFvBaCWiNia0MqMDoCHEPATAEBAVAfolsT9VmqZVVahk9ZP+rck64ex5vos0nV+GNVOvRsH7AGU9E2+Ajj1gPgKHcpCUyBEllBVmtSPSUFvbXuzzZekd2jCHU70Q4Kt0xo0ElMKMFiSNrjDavyIZX7wWJgHMwCeb6qqtnryHSrxVSwHMs/g8p+sC8BYDewl8nIk6wegmcA4RecDIYlAOgFEAjwMwwtwrxv801lb/b7IuNlMSgIR7sNbXPXp8RkXlPJXxIoBkjB8v6F3C8gYGA0yApoFcQMn63tl1VQU6egZT9/6/ZAsQsDDJlT8AsNNDHw4HeCr3JDvJlAXgGoCuAfXec34ns+TTUkyGNa/G+xUAaGEyK38AWP2kf2uJ1/cJgP+RvIum8QCPJ8Z8EAAiQGdAV6ErIYBdKPFWAQGG6lDA3PPXYWpwDr4ewGvJud7ErX/ggfD0RYtutyAJIAL+UOz1tTfV+R+x8BK4I5h1V647sArgmVbfr17ZAKYRMA0g0KkvVwKf+reF37hMFQCSlgBkCkPvkdbV1mxUeprUTX1Pn6ZCDPga66qftuPk9X5/B8gxB+C37b4RKSJEzJWNdf7n7Dh5Y53/YSZ81+6bkEzEGGd3DLFa/8AD4dDoobczyOwROgqBHyqpqLrdyvg3Pv1wZ8QRKWcgqcmtffgquyMYjAx3JOntHX47jC9akc46mGheU121kZXlDGuofewgkXIzAMvfdae4ABH5GpbVrLAziKba6v8HcMo3A5qFwUl85WHc+gceCLvbc24FYHaS6ATj3yXlVR+yMv6Xli49EdHoepOWCU912bJstvlM6UnaWFf9JAOVACzt8Z6ijgH6+5tq/f+1OxAAaKj1v0Hg9xFw2O5YbHKSdNzYUOuvtTsQABjrUT4FwOiyrmmBidJuOdj6+ocCLg/NA8i0oW69FBD+XFrhs7ST68sr/IcjjkgZQC9beZ4U0GZk5U7RN9OGkjTVVS8jIi8A04aIpTzCaw7QjMa6JSn1x9dQV7MFRGUmLxqUDnYTeHbD8urVdgfyDr/frzVOv/huSt1V3UyjMNk+XW0i6v3+DkV33kLARpOLdoJ1U9ft6MtLS5ee6Ah63gdQjdXnstE6uwMYjEwdS9pQ638GulYKYI/dF2Y1Aj8S5GBp75KdKaeh1v8G6zQTlPqdskzyNIfo6oa6mi12B3KWxYv1hrrqTwJJG6ppCx1s6qyAybRm+SMnI+S8EcQ7zCyXQbdZ3QoA9PQJaKzz+wj0XZg/RbjtmJDUeQAyhemTSTQuX7pZI+cMYlpl98VZpB2gDzXU1dy1vq4upZbpPFPTMv8Bl5tmA/SE3bFYKALG4rEeuiUZM+QZwI111fcDdC9SbHlXMxBwODR66FN2x2HEutpHjyisfIABM5N6ldncxaz6wQ11/u8roDKTr8FuTzfVVps+FbGwaDapdbWPHmm4atpNYHwb5q0gmALoRUXnyxvr/A/ZHUms6v3+jsY6/0IGvojB11FzJ0Gf3bis+nvxTFJip8Y6/8MKayUA77I7FjPp4C+tf+CBsN1xGLWmzr8XTLMB3mZisROSfA1rFApdBuC3SPvvX3o56KFbkeRR3ZqqG+rPQsxp0R/GuukkFy/WG5dV/0CHPgPAq3ZfqEHNTPyRxjp/mS0LshjHTXXV/6foVGLBe047RJj450EELzNznvJkWbNs6etBjzKdCX+CLdNVmO43TXU1pnR01BS908jxpLOh44GeljM1olwHkEmvNNjyFQPP1FBb295YV/056NoVAJ5N9vlNwET4PXtw3Xq/vzXZJ6cIG2tNJKRya+QpVs8njbV1Sza42o9fA6Yvo2ce83QSJsLv1Qhd0FRb83ek+Zf1muX+9YHRQ68C6FvomcEvHa3RiKc31dZ8NdVfwfRnvd/f2lRb/UmQXgbgDbvjSRAT+CeNddVfMKtAPeI5iJ7VQRMMyJyOiKtX+o8FPXg/gRqMlkVEtrWMNC5furmxrvoGIroxbUYKEO8gopsaaqs/0+T32/I95epqPgAg4cQjAt5pR9zxSurUbMU3+YaSW/8mmD6BpE6TGjcN4GqN8e11y2retDsYK1w77/bxET38/d530pYngibYzuCvN9XVPGF3IGbrXUr44wR8I4krvRm1B0SftmK51hKv7yWAr07g0LDLQ0PNXFK8dwn0JQBuTLQMAt/WUFfzH7PvUyKhzCqvLNeJvgpglt3B9OEQA98LjR7691R4nVTirXwMPeuVxIWAww3TLx6bjCWijUr63KxA7zoCFP4MGJ8CUGT3TThNN8APMyk/b6r1p0UGZ1Spt3KaDvoKAXcASL2JNgivMfPPxnmU/6TLe/5E9VY2n0FPf42RdscTxTEC/i+A4P9Z1QJTUl75MRDFP4ESobqxttr09TDmzJnjbnXm/AuMqgQOb2YPjbPrSTaaknJfMYg/i56pkN02h7MTRL8McuAfqdSq17vS6jrEXU/Stxrr/D+0O/6YIrXz5HPmzHG3qrleEN8H4CYYWJvA4F1YD8bfXWrkkfonnmix857YZcacheNUp/JRMH8wiQs8RRNk4EmF6K8Ntf5VSPNXL/Ga5vO5CruxQCf+BAHXwea/U/Tc/7VM/NcQhx6z+ku6t0VkLXoW8opVALp2dePypVbNikelXt+3GfxdxNdidn9jXXXKDv+8ZsGCYWpEvaf3AeBqJO93LQxgBYAHG6dfXJeqT8vFFZU/I6avxLo/ARt1D81MtYSvn3hTw6y5dw7RlPAcYvaCcB2A0RaerhugtWAscxCWpupYflssXqyUbth4HbOyAGBvEpOBEIB6Yl7qJFd1fd2jx+2+FamguMJ3nqJjAQjzuGfhFzUZ52Wgk0DPgPUVDGVF0zL/gWRe96y5lefqCj0HYGIMu0cA+nBjnf9hq+Mq8VbNA/AwgLwBdyasDo4aen0qNGfHdG23LJwIRa2EghvBPBvmv6btAvAcMS9Pm7/xxYuV4lc2/ZqIPjPwzvS6FtHK161ckjYTsKVMAnCma72+c8JAMYGnMXAB9awbPxrA0DiK0QAcAbAH/P/bu5sXr6owDuDf5/7GmQat0NDeUBgXLRJcNGGlCVO0mVqIym/dzkXQtrX/Qpt2RRvBravZtVCKTAmEMQhqERmaYGXi2zj3nhYTRC+WVDQz9vn8AQfu4p577nkenm8WW1fnW/qz16ZGZ4yVvDf7D4yf7vthX6vaV6nZpD2Vf6dU8EOSxSQfpupUf2fy1OmFY/+fKZJ/w/758dZhlJeHas91qT0t7ZmspDH+U7eS+jxpn6bqTFp/9uoDo3Or/Y7sP3To8eFO9/afxVy35LNKvflfhj6txD3n3b9I4vugLdV4jc+muKtd4/Hk5lvZ06c9W8lsJbtbsjPJpntcYikr8cHnK/mkazndT9fp9fJn/FvPHzj8SjfUW0leyu9uqmuxMrz30PKNdxYWFtbVOPw1ewC4m/n5+anrkw9vG5bvbOgnuo2j5V9/jIYs3+7S3aipdvPU7t3frtWrpfVqbm5u4uamR2a6lp2perS6PJaWLa1aV+2PYqHrWpLlanWldcPFSvtmVJNfnDxx/OvVfpb1bvbIkQ1Tl6/uGNryTNdnJl3tqJatqUynZTqtNrdqQ/3czdzSvq/UjZZcqmqXaqivutHElydPHL+QNVxmefG1wzvbqHu1ZZhJy6akblflYp/h5Pap0cer0hty9Gi39+zi66m8kZUI7skkV5KcS+r9j2Z3Hbsf9569Bw9uy+2JJ2qi39xabWlVv5RD+vZjde279Ln85MbRhfuxZ+eF8Xh6dL3bnhoebN1wa1jqLq7XQx4AAAAAAAAAAAAAAAAAAAAAAAAAAAAAAAAAAAAAAAAAAAAAAAAAAAAAAAAAAAAAAAAAAAAAAAAAAAAAAAAAAAAAAAAAAAAAAAAAAAAAAAAAAAAAAAAAAACr4yeT80TUr+++rwAAAABJRU5ErkJggg==;" parent="dNxyNK7c78bLwvsdeMH5-11" vertex="1">
          <mxGeometry x="164.5" y="742.87" width="70" height="70" as="geometry" />
        </mxCell>
        <mxCell id="pnSuQXYb4ILXROEF6l5I-72" value="" style="shape=image;verticalLabelPosition=bottom;labelBackgroundColor=default;verticalAlign=top;aspect=fixed;imageAspect=0;image=https://www.bt.cn/static/new/images/logo.png;" parent="dNxyNK7c78bLwvsdeMH5-11" vertex="1">
          <mxGeometry x="579.5699999999999" y="746.6199999999999" width="56.88" height="61.16" as="geometry" />
        </mxCell>
        <mxCell id="pnSuQXYb4ILXROEF6l5I-73" value="" style="shape=image;verticalLabelPosition=bottom;labelBackgroundColor=default;verticalAlign=top;aspect=fixed;imageAspect=0;image=data:image/png,iVBORw0KGgoAAAANSUhEUgAAAgAAAAIACAMAAADDpiTIAAABpFBMVEUAAAD////////////////////////////////////////////////////////////////////////////////////////305H20IrvpyT305PvqCfvqCb20Yz65b7647rP55i63Gvd7rXc7bXl8sfkyN20ZqLXrc3cuNTKkr2czSrO5pXN5pTa7K/Yr8+TInnFibjNmMCyYqDJkLzJkbzK5I3R6JzIj7vN5pLO5pfKk73IjrvN5pPFiLfO5pbNmcHbttPWq8yPjrmVJXstLHuLi7YmJXfu9trs1+f98+H98d341pn305Lr9dTr1+eSkrvx+OHw4e3WrM3p0uTs2ejixNuUJHrfvdfu3Orh4ey+vtYqKXqbmsCVlLzdutXu3erg4Ou7u9TJyN2xsM7Y2OfY1+b99OP537D87tX88Nr76MZoaKGTkrutrcz20In41pr0wWT30o/31JTW1ubw99/u9tvh8MDg77zW1uWUk7yzs9D53qyamcCRkbq0tND64reQkLqKirb31JP30pBlZJ6yss+ysc7Fxdv64LL54LGfzzGezi7NvpLkAAAAFnRSTlMAgIgEgooIjNnas6/cfXrWdnfUhIN/F/YnmQAAFg9JREFUeNrt3XmDXEUVxuF0QJAguE+IorK5kAxGBRQBUVGCCoqioii4a2RRAVdUFMWdLy0703VrO1XvOaeqznn/jN033f17pmUmPfceO2Z7u+Paj8Cnud3BgQswvBf6uwDDe6m/CzC7V/q7AKN7rb8LMLkj/V2Awe31dwHmFvR3Aca26e8CTC3S3wUYWrS/CzCzRH8XYGTJ/i7AxDL9XYCBZfsfHOy0H5+Pd2H/k1f4e4ClbfqfOuUCDC3S3wUYWrS/CzCzRH8XYGTJ/i7AxDL9XYCBZfu7gOVX6O8CFl+xvwtYehX9XcDCq+rvApZdZX8XsOiq+7uAJUfo7wIWHKm/C1huxP4uYLGR+7uApdbQ3wUstKb+LmCZNfZ3AYusub8LWGId/V3AAuvq7wKmX2d/FzD5uvu7gKkH6O8CJh6kvwuYdqD+LmDSwfq7gCkH7O8CJhy0vwuYbuD+LmCywfu7gKnG0N8FTDSW/i5gmjH1dwGTjK2/C5hijP1dwARj7e8Chh9zfxcw+Nj7u4ChJ9DfBQw8kf4uYNgJ9XcBg06svwsYcoL9XcCAE+3vAoabcH8XMNjE+7uAoabQ3wUMNJX+LmCYKfV3AYNMrb8LGGKK/V3AAFPt7wLUp9zfBShPvb8LiOwCsV0YvPjvejdpV8aTXkk7ynuCB/EGueevXTrR/2CWvTcO4H3aj6t6F2m3dgC6cwB9cwAOwAE4AAfgAByAA3AADsABOAAH4AAcgAPQflzVGx/AVVfDd03wIlxLvP91FADv/wBtHwwe3IeI96/Y9VMBuPo0emeCl/iQeoAbKAA+fJa4jwQP76PUAxT3MdsAuvszA+AXYBtAf39uAOwCTAMA9GcHwC3AMgBEf34AzAIMA4D0FwDAK8AuAEx/CQCsAswCAPUXAcApwCoAVH8ZAIwCjAKA9RcCwCfAJgBcfykAbAJMAgD2FwPAJcAiAGR/OQBMAgwCgPYXBMAjwB4AbH9JACwCzAEA9xcFwCHAGgB0f1kADAKMAYD3FwaAF2ALAL6/NAC4AFMAGPqLA0ALsASAo788ALAAQwBY+isAwAqwA4CnvwYAqAAzAJj6qwBACrACgKu/DgCgACMA2PorAcAJsAGAr78WAJgAEwAY+6sBQAmwAICzvx4AkAADAFj7KwLACFgfAG9/TQAQAcsDYO6vCgAhYHUA3P11AZy9MXh6NzmAYDcHr9DH1wJwffD0PuEApAWoAujvvz4AbgGaAAD9DQA4fUvwMn1yFQC3Bk/stpaDGADA+x6gBwDx9W8DAKsANQCY/jYAcArQAgDqbwQAowAlAKj+VgDwCdABAOtvBgCbABUAuP52AHAJ0AAA7G8IAJMABQDI/pYA8AiQBwDtbwoAiwBxANj+tgBwCJAGAO5vDACDAGEA6P6rAThzu7QAWQDU/p8qfkZoLQBnDg6kBYgCIPcvf0psKQAvff5LWIAkgIb+RQErAXjl83+yAgQBNPUvCVgIwGuf/xQVIAegsX9BwDoAjnz+V1KAGIDm/nkBywDY+/y3oAApAB39swJWARB8/l9OgBCArv45AYsACH//Q06ADIDO/hkBawDY9JcTIAKgu39awBIAIv3FBEgAAPRPClgBQLS/lAABAJD+KQELAEj0FxLADwDUPyFgfgDJ/jIC2AHA+scFTA8g019EADcAYP+ogNkBZPsfHNxSyHd7cPs7RgNA7X9b/vXYnj9gcgCb8z/cEf4B93sAL4Der/9PF88hMjeAyPk/pAWwAujuXz6LzNQAoud/ERbACQDQvyhgZgCJ8//ICmAEAOlfEjAxgOT5n0QF8AEA9S8ImBdA5vxfkgLYAMD65wVMCyB7/jdBAVwAbsL1zwqYFUDh/H9yApgAQPvnBEwKoHj+RzEBPADA/TMC5gRQcf5PKQEsAOD90wKmBFB1/lfqSWIbBXAAYOifFDAjgMq0MgIYALD0TwmYEEB1WBEBeABM/RMC5gNAyCohAA4g7H8jqn9cwHQASFEFBKABMPaPCpgNADEpvwAwANb+MQGTASBf/4FdABYAc/+IgLkAXEPtzy8ACoC9/1bAZ6YCQO/PLgAJQKD/VsDEACqv/8MrAAhApH9OwGQAqq//xCoAB0Cof0bAXAAI1//iFAADINY/LWAqAKTrvzEKQAEQ7J8UMBMA4vX/+ASAAIj2TwmYCAD5+o9sAjAAhPsnBMwDoOH6n1wCIADE+8cFTAOg6fqvTAIQABT6RwXMAqDx+r88AgAAVPrHBEwCoPn6zywC+gEo9Y8IGBPAhaj+PAK6Aaj13wq4WLt1bDtcfxYBvQAU+28FHNeuzdyfQ0AnANX+EwgA92cQ0AdAuf/wAsL+1/b2xwvoAqDe/+zZz44sIOzff8kYvIAeAAP03/tI2GgCNv0hAMACOgCM0H8LYBwB2/4YAFgB7QCG6B8BMIqASH8QAKiAZgBj9I8BGENArD8KAFJAK4BB+kcBjCAg2h8GACigEcAo/eMA9AXE++MA4AS0ARimfwKAtoBEfyAAmIAmAOP0TwHQFZDqjwSAEtACYKD+SQCaApL9oQBAAhoAjNQ/DUBPQLo/FgBGAB3AUP0zALQEhP2Pni8PCwAigAxgrP57AO4cQUDY/8bP8QFACKACGKz/HoDP36UvYNP/LCcAgAAigNH67wM4py5g258XQL8AGoDh+gcAtAVE+jMD6BZwNwXAF4brHwLQFRDrzw2gWwAFwHj9NwA0BUT7swPACaACGKH/FoCegHh/fgAwAUQAQ/SPANASkOgvAAAlgAZgjP4xADoCUv0lAIAEkAAM0j8KQENAsr8IAIwACoBR+scByAtI95cBABFAADBM/wQAaQGZ/kIAEALqAYzTPwVAVkCuvxQAgIBqAAP1TwKQFJDtLwZgI6B0jtCNgFoAI/VPA5ATkO8vB6BbwBfjAL40cv8MACkBhf6CALoF3BPrf+/Q/XMAZASU+ksC6BZwcrr+WQASAor9RQHgBVwxeP88AH4B5f6yANAChu9fAMAtoKK/MACygC/nBIT9vzJc/xIAXgE1/aUBdFwvYCMg7F+6XoBC/yIATgFV/cUBtF8vIBSw6V8AoNG/DIBPQF1/eQDN1wsIBGz75wGo9K8AwCWgsr8CgNbrBewLiPTPAtDpXwOAR0Btfw0AjdcL2BMQ658DoNS/CgCHgOr+KgAI/zIUBXBw8mT0j9MAbgtueatQ/zoA5+4LHt5Orr8OgKbrBZSXBKD19V8LAP0eQOivBKDlegHtAPT61wLACqD01wLQcL2AZgCK/asBIAWQ+qsBoF8voBWAZv96ADgBtP56AMjXC3hjvPolBQCq/QkAUAKI/RUBUK8XcCJ6aovjl+YB6PanAMAIoPbXBEC8XsCJ2MlNjh/LA1DuTwKAEEDurwpg8/OAM3kAWwEvfMOcBaD2/X8TgP6fB9D76wIgXS/gxPYJvvglkgOg/fVPBdD7HtDQfw/AdTeIL/z3/ruD//2r+wD2n+JLL88RAF+7f39fDw7+jfvF900agD4BLf33AIy9E+GTfPnFubT9iMKrAdAjoKn/dABef5qvvDSLAWgX0NZ/PgCvPtFXX5jVALQKaOw/IYCXn+prL8tyANoEtPafEcCLT/b1F2U9AC0CmvtPCeDY7sg3yAsCoP88oL3/nACObkUA1PeAjv4OQG4EADQBPf0dgNwoACgCuvo7ALmRANQL6Ot/9oFvjbJvB0/kTSf2d1n8+V8e3OzNwWEe/M4o+y4JQK2Azv4jDXKl5bcEB3mI9qqPtCoBC/WHCFiof5WApfoDBCzVv0LAYv27BSzWvyhguf6dApbrXxCwYP8uAQv2zwpYsn+HgCX7ZwQs2r9ZwKL9kwKW7d8oYNn+CQEL928SsHD/qICl+589e2Pw9Ir/Hn5ZcIeHtZtht/18wOIAyG8BS78B2HsL8P8LKPZfWoD/R2BF/4UFkP8DYPH/DEh+QHBRAf6DoP1Z+1Gg/yi4uv+SAvwfgwj9FxTg/xxM6r+cAP9ACLH/YgL8I2Hk/ksJuKm//1ICZD4W/MD3Rtn3gydyyaX7uzz+/N8a3OxtwWF+8MNRxvOxcP/FEO3HVT2mXwzxXw2bZVy/Gua/HDrJ2H451H89fI7x/Xq4vRNEHF8bgOQpQmYE4KeIAQqYEICfJAopYD4Afpo4qIDpAPiJIrECZgPgp4oFCzgK4Ec/Ft9Pgof80+B/fzAAkD1Z9M/O7+/nwcEfOS++R4kA5E8XfhTAY9Xfp6D2ePCA7wtv8It9APnTxZ8/FeyXweF/dUp6T9AAdF8you+CEeIAiv0DAJsLRhzPA9AXQAOgcckQTQDl/vsASpeM2QJQF0ACoHLRIEUAFf33ABQvGhUBoC2AAkDnsmF6AGr6HwVQvmxcDICyAAIApQsHqgGo6n8UQHlRALoC6gFoXTpUC0BdfwQAVQHVANQuHqwEoLI/BICmgFoAepcP1wFQ2x8D4NSTwQ2fGg1A9wUD2wWoAKjunwBweHP0j5MA9N4D6gCAv/5JAjQA1PePAzjcXnGyAEBNQBUAhv71AhQAEPpHARzGrjlaAKAloAYAS/9qAfIAKP1jAA7jV50tAFASUAGAqX+tAHEApP4RAIep6w4XAOgIKANg618pQBoArf8WwGH6ytMFACoCigAY+9cJEAZA7H/u1+n+WwGPFGooCCgBYO1fJUAWALV/ePvD/NXn7xlOQAEAc/8aAaIAwP0nEJAHwN6/QoAkAHj/8QVkAQj0LwsQBMDQf3gBOQAi/YsC5AD09v/N6eh+O7SADACh/iUBYgB6+x/8Lg7g9+HthhKQBiDWvyBACkB3/2oAQwlIAhDsnxcgBKC/fz2AkQSkAIj2zwqQAQDoTwAwkIAEAOH+OQEiABD9KQDGERAHIN4/I0ACAKQ/CcAwAqIAFPqnBQgAwPSnARhFQAyASv+kAH4AoP5EAIMIiABQ6p8SwA4A1Z8KYAwBWwBq/RMCuAHA+pMBDCFgA0Cxf1wAM4De/n+gAAjPBzCAgBCAav+oAF4Avf3vO/KJoDKA81cMJyAAoNw/JoAVQHf/czQAp4YTsA9AvX9EACeA/v5UAMMJ2AMwQP+tgOv5AAD6kwGMJuAogDtH6H/sWPQ0CxwAEP3pAAYT8MRBckr9cwKgACD9GwCMJSANQK1/RgASAKZ/C4ChBCQBKPZPCwACoPa/K3H7FgAjCUgBUO2fFIADgOrfBmAgAQkAyv1TAmAAYP0bAYwjIA5AvX9CAAoArn8rgGEERAEM0D8uAATgaVz/ZgCjCIgBGKJ/VAAGALJ/O4BBBEQADNI/JgACANq/A8AYArYAhukfEYAAgO3fA2AIARsAA/XfCvjjcP27AIwg4E8j998KKOVi7//n8AZdAPQFhA9gsP5wAfD+nQC0BQzfHywA378XgK6ACfofO3YhTgBD/24AmgLCv/pi7dbRXRA8ynYBYf9nAP37AegJCP/ig4u0W9cBaBXA0h8AQEvApv80ANoE8PRHANARsO0/D4AWAUz9IQA0BET6TwSALoCrPwaAvIBY/5kAUAWw9QcBkBYQ7T8VAJoAvv4oALIC4v3nAkARwNgfBkBSQKL/ZADqBXD2xwGQE5DqPxuAWgGs/YEApAQk+08HoE4Ab38kABkB6f4TAPgLXQBzfygACQHhX/HXqQA8Rv04L3t/LAB+AZu/4OgngiYAQP1AN3t/MABuAdvDzwaAJoC/PxoAr4DIwacDQBEg0B8OgFNA7NDzAagXINEfD4BPQPTAEwKoFSDSnwEAl4D4YWcEUCdApj8HAB4BiYNOCaBGgFB/FgAcAlKHnBNAWYBUfx4AeAHJA04KoCRArD8TALSA9OFmBZAXINefCwBWQOZg0wLICRDszwYAKSB3qHkBpAVI9ucDgBOQPdDEAFICRPszAkAJyB9mZgBxAbL9OQFgBBQOMjWAmADh/qwAEAJKh5gbwFbAw8EfPFvo90xw+6eJ/XkBnDoZPLx7C7d/Mrj9U8UDTA4gcwEXka9/bgDd7wHFu88OIC+Avz83AKyAyJ2nB5ATINCfHQBSQOyu8wNIC5Dozw8AJyB6xwUApASI9BcAgBIQv9sKAOICZPpLAMAISNxpCQAxAUL9RQAgBKTusgaArYDS9//PBrcnf/8vCqD75wHpOywCIBQg9fUvBaD3PSB981UA7AuQ6y8FoE9A5sbLADgqQLC/GIAeAbmbrgPgdQGS/eUAtAvI3nAhAK8KEO0vCKBVQP5mKwF4WYBsf0kAbQIKN1oKwIsChPuLAmgRULrJWgDOPU79/v/hzv6yAOg/DyjdYDUApaG//qUBkN8DirMF4G/w/tIA4AJMAWDoLw4ALcASAI7+8gDAAgwBYOmvAAArwA4Anv4aAKACzAAI+z+E6a8CACnACgCu/joAgAKMAGDrrwQAJ8AGAL7+WgBgAkwAYOyvBgAlwAIAzv56AEACDABg7a8IACNgfQC8/TUBQAQsD4C5vyoAhIDVAcD//X8oAOTPB9gDQL7CxFwA/h48veccgLQAVQD9/dcHwC1AEwCgvwEAzAIUATwVPLEnWw5iAACvAD0AiK9/GwBYBagBwPS3AYBTgBYAUH8jABgFKAFA9bcCgE+ADgBYfzMA2ASoAMD1twOAS4AGAGB/QwCYBCgAQPa3BIBHgDwAaH9TAFgEiAPA9rcFgEOANABwf2MAGAQIA0D3twYAL0AWALy/OQBwAaIA8P3tAUALkATA0N8gALAAQQAc/S0CwAqQA8DS3yQAqAAxADz9bQJACpACwNTfKACgACEAXP2tAsAJkAHA1t8sAJgAEQB8/e0CQAmQAMDY3zAAkAABAJz9LQPACOAHwNrfNACIAHYAvP1tA0AI4AbA3N84AIAAZgDc/a0D6BfAC4C9/2QAnv4HfP8MXuJ/Ee//bwqAR5+g7T/Bg/sv8f4Ve24qAGOvDGDwOYC+OQAH4AAcgANwAA7AATgAB+AAHIADcAAOwAFoP67qOYC+OQCeXSS2twcvyFX/I+35OIDnaUe5KngQ75B7/tql9bcLXvzD0+I7EzyEd2q/JramLsD7K09ZgPdXn6oA7z/AFAV4/yGmJsD7DzIlAd5/mKkI8P4DTUGA9x9q4gK8/2ATFuD9h5uoAO8/4AQFeP8hJybA+w86IQHef9iJCPD+A09AgPcfeuwCvP/gYxbg/YcfqwDvP8EYBXj/KcYmwPtPMiYB3n+asQjw/hONQYD3n2pwAd5/soEFeP/pBhXg/SccUID3n3IwAd5/0oEEeP9pBxHg/SceQID3n3rdArz/5OsU4P2nX5cA77/AOgR4/yXWLMD7L7JGAd5/mTUJ8P4LrUGA919qZAHef7ERBXj/5UYS4P0XHEGA919y1QK8/6KrFOD9l12VAO+/8CoEeP+lVxRws/dfewUB3n/5ZQV4fwPLCPD+JpYU4P2NLCHA+5tZVID3N7SIAO9vahsBh8Ef7LQfoY93oQD/+re2nfc3voyA49qPzSexnfc3vp33N76d9ze+nfc3vo0A//7f2Hb+9W98O+9vfDvvb3w77298O+9vfDvvb3w77298O+vf//8fL/uJKcBnKxYAAAAASUVORK5CYII=;" parent="dNxyNK7c78bLwvsdeMH5-11" vertex="1">
          <mxGeometry x="384" y="747" width="64.25" height="64.25" as="geometry" />
        </mxCell>
        <mxCell id="pnSuQXYb4ILXROEF6l5I-75" value="&lt;b&gt;腾讯云服务器&lt;/b&gt;" style="text;html=1;align=center;verticalAlign=middle;resizable=0;points=[];autosize=1;strokeColor=none;fillColor=none;" parent="dNxyNK7c78bLwvsdeMH5-11" vertex="1">
          <mxGeometry x="265.5" y="808.75" width="100" height="30" as="geometry" />
        </mxCell>
        <mxCell id="pnSuQXYb4ILXROEF6l5I-143" style="edgeStyle=orthogonalEdgeStyle;rounded=0;orthogonalLoop=1;jettySize=auto;html=1;" parent="dNxyNK7c78bLwvsdeMH5-11" source="uwBZGx5Mv4PH8Rtc_T75-6" edge="1">
          <mxGeometry relative="1" as="geometry">
            <mxPoint x="474" y="170" as="targetPoint" />
            <Array as="points">
              <mxPoint x="295" y="140" />
              <mxPoint x="474" y="140" />
            </Array>
          </mxGeometry>
        </mxCell>
        <mxCell id="pnSuQXYb4ILXROEF6l5I-144" value="" style="endArrow=none;html=1;rounded=0;entryX=0.526;entryY=1.001;entryDx=0;entryDy=0;entryPerimeter=0;" parent="dNxyNK7c78bLwvsdeMH5-11" target="uwBZGx5Mv4PH8Rtc_T75-16" edge="1">
          <mxGeometry width="50" height="50" relative="1" as="geometry">
            <mxPoint x="470" y="140" as="sourcePoint" />
            <mxPoint x="600" y="140" as="targetPoint" />
            <Array as="points">
              <mxPoint x="566" y="140" />
              <mxPoint x="570" y="140" />
            </Array>
          </mxGeometry>
        </mxCell>
        <mxCell id="pnSuQXYb4ILXROEF6l5I-150" value="&lt;font style=&quot;font-size: 15px;&quot;&gt;&lt;b&gt;Qi-API项目 架构图&lt;/b&gt;&lt;/font&gt;" style="text;html=1;align=center;verticalAlign=middle;whiteSpace=wrap;rounded=0;" parent="dNxyNK7c78bLwvsdeMH5-11" vertex="1">
          <mxGeometry x="208.25" y="10" width="267.25" height="20" as="geometry" />
        </mxCell>
        <mxCell id="pnSuQXYb4ILXROEF6l5I-153" style="edgeStyle=orthogonalEdgeStyle;rounded=0;orthogonalLoop=1;jettySize=auto;html=1;entryX=0.489;entryY=0.041;entryDx=0;entryDy=0;entryPerimeter=0;" parent="dNxyNK7c78bLwvsdeMH5-11" source="uwBZGx5Mv4PH8Rtc_T75-27" target="pnSuQXYb4ILXROEF6l5I-55" edge="1">
          <mxGeometry relative="1" as="geometry" />
        </mxCell>
        <mxCell id="120VNMi8KpEO2bEq0EOa-1" value="&lt;b&gt;Spring Scheduled&lt;/b&gt;&lt;div&gt;&lt;b&gt;定时任务&lt;/b&gt;&lt;/div&gt;" style="rounded=0;whiteSpace=wrap;html=1;fillColor=#99FF99;" parent="dNxyNK7c78bLwvsdeMH5-11" vertex="1">
          <mxGeometry x="524.5" y="515" width="115" height="50" as="geometry" />
        </mxCell>
        <mxCell id="HUR1KUJTbF7FgUGq8IwU-1" value="" style="shape=image;verticalLabelPosition=bottom;labelBackgroundColor=default;verticalAlign=top;aspect=fixed;imageAspect=0;image=data:image/png,iVBORw0KGgoAAAANSUhEUgAAADAAAAAwCAYAAABXAvmHAAAACXBIWXMAAAsTAAALEwEAmpwYAAACzklEQVR4nOWaTWjUUBDHn1b8xIOIiKI7L2tVLOrF3ZkohSKI1I+DCAtehB7Eg2BPgidZiiiKiDsTPygevHhaTyoIpSfBW0FQL4o3D7aKqCB+1Y+Vl2DRTZYmu5tssh14sLDv5c0vM//38iZRKiaznOImYLoPjON5x96msmK56/0rQPACCH3XQjXTQPAHCI32cv8qlVorDyzQTMdB8O1fx32N8b1mOt1X7luo0mSW2HtA6FlDx+saML2wHCx12u+ZPA/ruB8EO6OPoDxvGkKS1EeYPG+2ccz6iJrnzacVtVcfreZ5x/SRa2OeJ6uPcox5Hrc+rITyPDZ96HB346cJKwgdhgrt10JngOlVk3n+RgsNA9uDIDSiGb+GGdcSAAidqB+3ZnTHUmC8G/FuTteLFCp0JFYAM+m6y/aSoLG9PLhIMz6KADARqD/BL3ECfGw4WCm11imuBMaXISM5FnQNEJzqGIDrwBXaooU+ZBbAmGbca9bwzAIYs9g+lh2AsprfwBnJBIBmOmeWUt8f1VIPCN5LPQAIjYHQnaBIbL64azkIPkk9gPZ21rOB1726E+odSyWAZvqtGY8G9ck7xYJm+pxuAPF2a2DcHdTPPIi5kGkG0F4k3uUrtLFB35H0A4jr4HNzKPJ1rql5WvB26gG01/9h0CEEbg0sNpFQaQfwIoE3I25+U6kC8DSBpxpOmgkAoV8geCjLADVzULHExgwDkGmvN1wrrO8kwLQ5OvomZZoICWAi8Xj1pe3LAh2olnqA8VNsAC6E0NC/Y/KVwlYDFrXqZh7ylD+SQ2HGtwiA37TQeRDap9k+qZkmozg/05gmzV6QEzxgSjSa6cZsp7hZAdzCFuPTphxKrLBVPKi6trTYHcXd4PJ6Nfl0wXGzQKh2WVL6gFB5PhdfMXXHS7426wPanedJ6SPePJ+Lnxp0x8ce6n9zy+yMD0wzv+Oa6A9U7xxcuh36AgAAAABJRU5ErkJggg==;" vertex="1" parent="dNxyNK7c78bLwvsdeMH5-11">
          <mxGeometry x="482.19" y="748.99" width="57.78" height="57.78" as="geometry" />
        </mxCell>
        <mxCell id="HUR1KUJTbF7FgUGq8IwU-2" value="&lt;b&gt;Nginx&lt;/b&gt;" style="text;html=1;align=center;verticalAlign=middle;resizable=0;points=[];autosize=1;strokeColor=none;fillColor=none;" vertex="1" parent="dNxyNK7c78bLwvsdeMH5-11">
          <mxGeometry x="481.08" y="808.75" width="60" height="30" as="geometry" />
        </mxCell>
        <mxCell id="HUR1KUJTbF7FgUGq8IwU-3" value="&lt;b&gt;CentOS&lt;/b&gt;" style="text;html=1;align=center;verticalAlign=middle;resizable=0;points=[];autosize=1;strokeColor=none;fillColor=none;" vertex="1" parent="dNxyNK7c78bLwvsdeMH5-11">
          <mxGeometry x="381.12" y="808.75" width="70" height="30" as="geometry" />
        </mxCell>
        <mxCell id="HUR1KUJTbF7FgUGq8IwU-4" value="&lt;b&gt;宝塔面板&lt;/b&gt;" style="text;html=1;align=center;verticalAlign=middle;resizable=0;points=[];autosize=1;strokeColor=none;fillColor=none;" vertex="1" parent="dNxyNK7c78bLwvsdeMH5-11">
          <mxGeometry x="573.01" y="808.75" width="70" height="30" as="geometry" />
        </mxCell>
        <mxCell id="HUR1KUJTbF7FgUGq8IwU-5" value="&lt;b&gt;Docker容器化部署&lt;/b&gt;" style="text;html=1;align=center;verticalAlign=middle;resizable=0;points=[];autosize=1;strokeColor=none;fillColor=none;" vertex="1" parent="dNxyNK7c78bLwvsdeMH5-11">
          <mxGeometry x="141" y="807.78" width="120" height="30" as="geometry" />
        </mxCell>
      </root>
    </mxGraphModel>
  </diagram>
</mxfile>
